<svg width="1920" height="571" viewBox="0 0 1920 571" fill="none" xmlns="http://www.w3.org/2000/svg">
<path d="M1021.2 381.8H960.398V253.8H851.598L837.998 381.8H738.798L869.198 78.6L761.998 38.6L608.398 392.2V476.2H836.398L837.998 569.331H961.198L960.398 476.2H1021.2V381.8Z" fill="#E3F2FF"/>
<path d="M1272.74 40.9999C1139.94 40.9999 1068.74 141.8 1068.74 323.4C1068.74 440.339 1098.53 524.48 1155.5 569.331C1222.5 569.331 1225.84 569.331 1272.74 569.331C1319.65 569.331 1347.14 569.331 1389.98 569.331C1446.96 524.48 1476.74 440.339 1476.74 323.4C1476.74 141.8 1405.54 40.9999 1272.74 40.9999ZM1272.74 134.6C1324.74 134.6 1347.14 176.2 1347.14 323.4C1347.14 469.8 1324.74 513 1272.74 513C1219.94 513 1198.34 466.6 1198.34 323.4C1198.34 180.2 1219.94 134.6 1272.74 134.6Z" fill="#E3F2FF"/>
<path d="M1920 381.8H1880.71V253.8H1771.91L1758.31 381.8H1659.11L1789.51 78.6L1682.31 38.6L1528.71 392.2V476.2H1756.71V569.331H1879.91L1880.71 476.2H1920V381.8Z" fill="#E3F2FF"/>
</svg>
