<svg width="1312" height="569" viewBox="0 0 1312 569" fill="none" xmlns="http://www.w3.org/2000/svg">
<path d="M413.2 343.8H352.4V215.8H243.6L230 343.8H130.8L261.2 40.6L154 0.599985L0.400001 354.2V438.2H228.4L229.2 555H352.4V438.2H413.2V343.8ZM664.744 2.99995C531.944 2.99995 460.744 103.8 460.744 285.4C460.744 466.2 531.944 568.6 664.744 568.6C797.544 568.6 868.744 466.2 868.744 285.4C868.744 103.8 797.544 2.99995 664.744 2.99995ZM664.744 96.6C716.744 96.6 739.144 138.2 739.144 285.4C739.144 431.8 716.744 475 664.744 475C611.944 475 590.344 428.6 590.344 285.4C590.344 142.2 611.944 96.6 664.744 96.6ZM1333.51 343.8H1272.71V215.8H1163.91L1150.31 343.8H1051.11L1181.51 40.6L1074.31 0.599985L920.713 354.2V438.2H1148.71L1149.51 555H1272.71V438.2H1333.51V343.8Z" fill="#E3F2FF"/>
</svg>
