<svg width="47" height="46" viewBox="0 0 47 46" fill="none" xmlns="http://www.w3.org/2000/svg">
<path d="M0.4 41.9V40.5C2 39.1 3.53333 36.8 5 33.6C6.53333 30.4 7.3 26.7 7.3 22.5C7.3 20.5667 7 19 6.4 17.8C5.8 16.6 4.93333 15.3 3.8 13.9C2.8 12.7 2.03333 11.6333 1.5 10.7C1.03333 9.76667 0.8 8.6 0.8 7.2C0.8 5.19999 1.43333 3.56666 2.7 2.29999C4.03333 1.03333 5.7 0.399994 7.7 0.399994C9.7 0.399994 11.5333 1.16666 13.2 2.69999C14.8667 4.23333 16.1667 6.26666 17.1 8.79999C18.1 11.3333 18.6 14.0333 18.6 16.9C18.6 21.3667 17.8 25.5667 16.2 29.5C14.6667 33.3667 12.7667 36.6667 10.5 39.4C8.23333 42.0667 6.06667 43.9667 4 45.1H3.9L0.4 41.9ZM28.2 41.9V40.5C29.8 39.1 31.3333 36.8 32.8 33.6C34.3333 30.4 35.1 26.7 35.1 22.5C35.1 20.5667 34.8 19 34.2 17.8C33.6 16.6 32.7333 15.3 31.6 13.9C30.6 12.7 29.8333 11.6333 29.3 10.7C28.8333 9.76667 28.6 8.6 28.6 7.2C28.6 5.19999 29.2333 3.56666 30.5 2.29999C31.8333 1.03333 33.4667 0.399994 35.4 0.399994C37.4 0.399994 39.2333 1.16666 40.9 2.69999C42.6333 4.23333 43.9667 6.26666 44.9 8.79999C45.9 11.3333 46.4 14.0333 46.4 16.9C46.4 21.3667 45.6 25.5667 44 29.5C42.4667 33.3667 40.5667 36.6667 38.3 39.4C36.0333 42.0667 33.8667 43.9667 31.8 45.1H31.7L28.2 41.9Z" fill="#FFA161"/>
</svg>
