<svg width="47" height="46" viewBox="0 0 47 46" fill="none" xmlns="http://www.w3.org/2000/svg">
<path d="M11.9 45.3C9.9 45.3 8.03333 44.5333 6.3 43C4.63333 41.4 3.3 39.3333 2.3 36.8C1.36667 34.2667 0.900001 31.5667 0.900001 28.7C0.900001 24.3 1.66667 20.1667 3.2 16.3C4.8 12.3667 6.73333 9.06666 9 6.39999C11.2667 3.66666 13.4333 1.73333 15.5 0.599997H15.6L19.1 3.8V5.2C17.4333 6.73333 15.8667 8.93333 14.4 11.8C12.9333 14.6 12.2 18.0667 12.2 22.2C12.2 24.3333 12.5 26.0667 13.1 27.4C13.7 28.7333 14.6 30.2 15.8 31.8C16.8 33.0667 17.5333 34.1667 18 35.1C18.4667 36.0333 18.7 37.1667 18.7 38.5C18.7 40.5 18.0333 42.1333 16.7 43.4C15.4333 44.6667 13.8333 45.3 11.9 45.3ZM39.7 45.3C37.7 45.3 35.8667 44.5333 34.2 43C32.5333 41.4 31.2 39.3333 30.2 36.8C29.2667 34.2667 28.8 31.5667 28.8 28.7C28.8 24.3 29.5667 20.1667 31.1 16.3C32.7 12.3667 34.6333 9.03333 36.9 6.29999C39.1667 3.56666 41.3333 1.66666 43.4 0.599997H43.5L46.9 3.8V5.2C45.2333 6.73333 43.6667 8.93333 42.2 11.8C40.7333 14.6 40 18.0667 40 22.2C40 24.3333 40.3 26.0667 40.9 27.4C41.5 28.7333 42.4 30.2 43.6 31.8C44.6 33.0667 45.3333 34.1667 45.8 35.1C46.2667 36.0333 46.5 37.1667 46.5 38.5C46.5 40.5 45.8333 42.1333 44.5 43.4C43.2333 44.6667 41.6333 45.3 39.7 45.3Z" fill="#FFA161"/>
</svg>
