<svg version="1.1" id="aspasFechar" xmlns="http://www.w3.org/2000/svg" xmlns:xlink="http://www.w3.org/1999/xlink" x="0px" y="0px"
	 width="50px" height="50px" viewBox="0 0 50 50" enable-background="new 0 0 50 50" xml:space="preserve">
<g>
	<path fill="#F5A45D" d="M2,44.15v-1.4c1.6-1.4,3.149-3.7,4.649-6.9c1.5-3.199,2.25-6.899,2.25-11.1c0-1.933-0.3-3.5-0.899-4.7
		c-0.601-1.199-1.468-2.5-2.601-3.899c-1-1.2-1.75-2.266-2.25-3.2c-0.5-0.933-0.75-2.1-0.75-3.5c0-2,0.65-3.633,1.95-4.9
		C5.649,3.284,7.3,2.65,9.3,2.65s3.833,0.767,5.5,2.3c1.665,1.534,2.982,3.567,3.95,6.1c0.965,2.535,1.449,5.234,1.449,8.101
		c0,4.467-0.784,8.649-2.35,12.55c-1.567,3.899-3.484,7.2-5.75,9.899c-2.268,2.7-4.435,4.617-6.5,5.75H5.5L2,44.15z M29.8,44.15
		v-1.4c1.6-1.4,3.149-3.7,4.649-6.9c1.5-3.199,2.25-6.899,2.25-11.1c0-1.933-0.3-3.5-0.899-4.7c-0.601-1.199-1.468-2.5-2.601-3.899
		c-1-1.2-1.75-2.266-2.25-3.2c-0.5-0.933-0.75-2.1-0.75-3.5c0-2,0.65-3.633,1.95-4.9C33.449,3.284,35.065,2.65,37,2.65
		c2,0,3.85,0.767,5.55,2.3c1.7,1.534,3.032,3.567,4,6.1C47.516,13.585,48,16.284,48,19.15c0,4.467-0.785,8.649-2.351,12.55
		c-1.567,3.899-3.484,7.2-5.75,9.899c-2.267,2.7-4.435,4.617-6.5,5.75h-0.1L29.8,44.15z"/>
</g>
</svg>
