<svg version="1.1" id="aspasAbrir" xmlns="http://www.w3.org/2000/svg" xmlns:xlink="http://www.w3.org/1999/xlink" x="0px" y="0px"
	 width="50px" height="50px" viewBox="0 0 50 50" enable-background="new 0 0 50 50" xml:space="preserve">
<g>
	<path fill="#F5A45D" d="M7.449,45c-1.699-1.566-3.034-3.616-4-6.15C2.482,36.317,2,33.617,2,30.75c0-4.4,0.782-8.55,2.35-12.45
		c1.565-3.9,3.482-7.2,5.75-9.9c2.266-2.7,4.433-4.616,6.5-5.75h0.1l3.5,3.2v1.4c-1.667,1.534-3.234,3.717-4.699,6.55
		c-1.468,2.834-2.2,6.317-2.2,10.45c0,2.134,0.3,3.867,0.899,5.2c0.601,1.334,1.5,2.8,2.7,4.4c1,1.268,1.733,2.368,2.2,3.3
		c0.466,0.935,0.7,2.067,0.7,3.399c0,2-0.65,3.635-1.95,4.9c-1.3,1.268-2.917,1.9-4.85,1.9C11,47.35,9.149,46.567,7.449,45z
		 M35.3,45c-1.667-1.566-2.984-3.616-3.95-6.15c-0.967-2.533-1.45-5.233-1.45-8.1c0-4.4,0.783-8.55,2.351-12.45
		c1.565-3.9,3.482-7.216,5.75-9.95c2.266-2.732,4.433-4.633,6.5-5.7h0.1l3.4,3.2v1.4c-1.668,1.534-3.234,3.717-4.7,6.55
		c-1.468,2.834-2.2,6.317-2.2,10.45c0,2.134,0.3,3.867,0.9,5.2c0.6,1.334,1.5,2.8,2.699,4.4c1,1.268,1.733,2.368,2.2,3.3
		c0.466,0.935,0.7,2.067,0.7,3.399c0,2-0.65,3.635-1.95,4.9c-1.3,1.268-2.917,1.9-4.85,1.9C38.8,47.35,36.965,46.567,35.3,45z"/>
</g>
</svg>
