<svg width="63" height="63" viewBox="0 0 63 63" fill="none" xmlns="http://www.w3.org/2000/svg">
<path d="M28.7372 43.663C28.5112 43.434 28.1972 43.305 27.8772 43.305C27.5572 43.305 27.2422 43.434 27.0162 43.663C26.7892 43.89 26.6602 44.205 26.6602 44.528C26.6602 44.849 26.7902 45.165 27.0162 45.392C27.2422 45.619 27.5572 45.75 27.8772 45.75C28.1972 45.75 28.5122 45.619 28.7372 45.392C28.9622 45.165 29.0932 44.849 29.0932 44.528C29.0932 44.206 28.9642 43.889 28.7372 43.663Z" fill="#1765AB"/>
<path d="M53.318 46.272C53.318 46.794 52.892 47.219 52.368 47.219H3.385C2.861 47.219 2.435 46.794 2.435 46.272V41.837H53.318V46.272ZM24.343 49.666H31.408V55.286H24.343V49.666ZM36.675 60.188H19.077C19.58 58.759 20.937 57.734 22.527 57.734H23.127H32.627H33.225C34.816 57.734 36.173 58.759 36.675 60.188ZM9.008 36.371C9.008 33.017 11.478 30.235 14.685 29.76L18.617 33.711C18.855 33.95 19.166 34.069 19.478 34.069C19.789 34.069 20.099 33.95 20.337 33.711L24.269 29.76C27.476 30.236 29.945 33.018 29.945 36.371V39.391H9.008V36.371ZM20.898 29.688L19.478 31.115L18.056 29.688H20.898ZM15.552 22.074H21.65C22.275 22.074 22.869 21.933 23.402 21.686V23.296C23.402 25.471 21.642 27.24 19.478 27.24C17.314 27.24 15.552 25.47 15.552 23.296V22.074ZM15.552 18.624C15.552 17.129 16.762 15.913 18.249 15.913H23.401V17.866C23.401 18.836 22.616 19.626 21.649 19.626H15.551V18.624H15.552ZM54.535 32.787C53.863 32.787 53.318 33.335 53.318 34.01V39.391H32.38V36.371C32.38 31.719 28.9 27.871 24.418 27.313C25.304 26.214 25.836 24.817 25.836 23.296V14.69C25.836 14.014 25.291 13.466 24.618 13.466H18.249C15.42 13.466 13.118 15.78 13.118 18.623V23.296C13.118 24.817 13.649 26.214 14.535 27.313C10.054 27.871 6.573 31.718 6.573 36.371V39.391H2.435V9.999C2.435 9.476 2.861 9.05 3.385 9.05H28.687C29.361 9.05 29.906 8.502 29.906 7.827C29.906 7.151 29.361 6.603 28.687 6.603H3.385C1.519 6.603 0 8.125 0 9.999V46.271C0 48.142 1.519 49.666 3.385 49.666H21.909V55.317C18.838 55.63 16.432 58.243 16.432 61.411C16.432 62.086 16.979 62.634 17.651 62.634H38.101C38.773 62.634 39.318 62.086 39.318 61.411C39.318 58.243 36.915 55.63 33.843 55.317V49.666H52.367C54.233 49.666 55.751 48.143 55.751 46.271V34.009C55.751 33.334 55.207 32.787 54.535 32.787Z" fill="#1765AB"/>
<path d="M55.3949 28.537C55.1689 28.308 54.8549 28.179 54.5349 28.179C54.2149 28.179 53.8999 28.309 53.6739 28.537C53.4479 28.766 53.3179 29.08 53.3179 29.402C53.3179 29.724 53.4479 30.039 53.6739 30.266C53.9009 30.495 54.2149 30.624 54.5349 30.624C54.8549 30.624 55.1699 30.495 55.3949 30.266C55.6209 30.038 55.7509 29.724 55.7509 29.402C55.7509 29.08 55.6219 28.764 55.3949 28.537Z" fill="#1765AB"/>
<path d="M54.535 5.74899H45.404C44.732 5.74899 44.187 6.29799 44.187 6.97299C44.187 7.64899 44.732 8.19699 45.404 8.19699H54.535C55.207 8.19699 55.752 7.64899 55.752 6.97299C55.751 6.29799 55.207 5.74899 54.535 5.74899Z" fill="#F06C00"/>
<path d="M41.2752 6.10901C41.0482 5.88001 40.7342 5.75101 40.4152 5.75101C40.0942 5.75101 39.7792 5.88101 39.5552 6.10901C39.3282 6.33701 39.1982 6.65201 39.1982 6.97301C39.1982 7.29501 39.3282 7.61101 39.5552 7.83801C39.7802 8.06601 40.0942 8.19601 40.4152 8.19601C40.7342 8.19601 41.0492 8.06501 41.2752 7.83801C41.5012 7.61001 41.6312 7.29501 41.6312 6.97301C41.6312 6.65201 41.5012 6.33601 41.2752 6.10901Z" fill="#F06C00"/>
<path d="M54.5348 11.133H40.4148C39.7418 11.133 39.1968 11.681 39.1968 12.356C39.1968 13.032 39.7418 13.58 40.4148 13.58H54.5348C55.2068 13.58 55.7518 13.032 55.7518 12.356C55.7508 11.681 55.2068 11.133 54.5348 11.133Z" fill="#F06C00"/>
<path d="M54.5348 16.516H40.4148C39.7418 16.516 39.1968 17.064 39.1968 17.739C39.1968 18.415 39.7418 18.963 40.4148 18.963H54.5348C55.2068 18.963 55.7518 18.415 55.7518 17.739C55.7508 17.064 55.2068 16.516 54.5348 16.516Z" fill="#F06C00"/>
<path d="M59.89 19.207C59.89 21.23 58.252 22.877 56.239 22.877H43.579C43.257 22.877 42.947 23.006 42.719 23.234L40.455 25.509V24.099C40.455 23.424 39.91 22.876 39.238 22.876H38.71C36.697 22.876 35.059 21.23 35.059 19.206V6.117C35.059 4.094 36.698 2.447 38.71 2.447H56.239C58.253 2.447 59.89 4.093 59.89 6.117V19.207ZM56.239 0H38.709C35.353 0 32.623 2.744 32.623 6.116V19.207C32.623 22.346 34.987 24.939 38.02 25.284V28.464C38.02 28.959 38.315 29.404 38.77 29.594C38.92 29.657 39.08 29.687 39.237 29.687C39.553 29.687 39.865 29.563 40.098 29.33L44.082 25.324H56.237C59.593 25.324 62.323 22.581 62.323 19.208V6.117C62.325 2.745 59.595 0 56.239 0Z" fill="#1765AB"/>
</svg>
