<?xml version="1.0" encoding="utf-8"?>
<!-- Generator: Adobe Illustrator 16.0.3, SVG Export Plug-In . SVG Version: 6.00 Build 0)  -->
<!DOCTYPE svg PUBLIC "-//W3C//DTD SVG 1.1//EN" "http://www.w3.org/Graphics/SVG/1.1/DTD/svg11.dtd">
<svg version="1.1" id="Camada_1" xmlns="http://www.w3.org/2000/svg" xmlns:xlink="http://www.w3.org/1999/xlink" x="0px" y="0px"
	 width="62.324px" height="62.634px" viewBox="0 0 62.324 62.634" enable-background="new 0 0 62.324 62.634" xml:space="preserve">
<path fill="#649BE1" d="M28.716,43.477c-0.226-0.229-0.54-0.358-0.86-0.358s-0.635,0.129-0.861,0.358
	c-0.227,0.227-0.356,0.542-0.356,0.865c0,0.321,0.13,0.637,0.356,0.864s0.541,0.358,0.861,0.358s0.635-0.131,0.86-0.358
	s0.356-0.543,0.356-0.864C29.072,44.02,28.943,43.703,28.716,43.477"/>
<path fill="#649BE1" d="M53.297,46.086c0,0.522-0.426,0.947-0.95,0.947H3.364c-0.524,0-0.95-0.425-0.95-0.947v-4.435h50.883V46.086z
	 M24.322,49.48h7.065v5.62h-7.065V49.48z M36.654,60.002H19.056c0.503-1.429,1.86-2.454,3.45-2.454h0.6h9.5h0.598
	C34.795,57.548,36.152,58.573,36.654,60.002 M8.987,36.185c0-3.354,2.47-6.136,5.677-6.611l3.932,3.951
	c0.238,0.239,0.549,0.358,0.861,0.358c0.311,0,0.621-0.119,0.859-0.358l3.932-3.951c3.207,0.476,5.676,3.258,5.676,6.611v3.02H8.987
	V36.185z M20.877,29.502l-1.42,1.427l-1.422-1.427H20.877z M15.531,21.888h6.098c0.625,0,1.219-0.141,1.752-0.388v1.61
	c0,2.175-1.76,3.944-3.924,3.944s-3.926-1.77-3.926-3.944V21.888z M15.531,18.438c0-1.495,1.21-2.711,2.697-2.711h5.152v1.953
	c0,0.97-0.785,1.76-1.752,1.76h-6.098V18.438z M54.514,32.601c-0.672,0-1.217,0.548-1.217,1.223v5.381H32.359v-3.02
	c0-4.652-3.48-8.5-7.962-9.058c0.886-1.099,1.418-2.496,1.418-4.017v-8.606c0-0.676-0.545-1.224-1.218-1.224h-6.369
	c-2.829,0-5.131,2.314-5.131,5.157v4.673c0,1.521,0.531,2.918,1.417,4.017c-4.481,0.558-7.962,4.405-7.962,9.058v3.02H2.414V9.813
	c0-0.523,0.426-0.949,0.95-0.949h25.302c0.674,0,1.219-0.548,1.219-1.223c0-0.676-0.545-1.224-1.219-1.224H3.364
	c-1.866,0-3.385,1.522-3.385,3.396v36.272c0,1.871,1.519,3.395,3.385,3.395h18.524v5.651c-3.071,0.313-5.477,2.926-5.477,6.094
	c0,0.675,0.547,1.223,1.219,1.223H38.08c0.672,0,1.217-0.548,1.217-1.223c0-3.168-2.403-5.781-5.475-6.094V49.48h18.524
	c1.866,0,3.384-1.523,3.384-3.395V33.823C55.73,33.148,55.186,32.601,54.514,32.601"/>
<path fill="#649BE1" d="M55.374,28.351c-0.226-0.229-0.54-0.358-0.86-0.358s-0.635,0.13-0.861,0.358
	c-0.226,0.229-0.356,0.543-0.356,0.865s0.13,0.637,0.356,0.864c0.227,0.229,0.541,0.358,0.861,0.358s0.635-0.129,0.86-0.358
	c0.226-0.228,0.356-0.542,0.356-0.864S55.601,28.578,55.374,28.351"/>
<path fill="#FDAE66" d="M54.514,5.563h-9.131c-0.672,0-1.217,0.549-1.217,1.224c0,0.676,0.545,1.224,1.217,1.224h9.131
	c0.672,0,1.217-0.548,1.217-1.224C55.73,6.112,55.186,5.563,54.514,5.563"/>
<path fill="#FDAE66" d="M41.254,5.923c-0.227-0.229-0.541-0.358-0.86-0.358c-0.321,0-0.636,0.13-0.86,0.358
	c-0.227,0.228-0.357,0.543-0.357,0.864c0,0.322,0.13,0.638,0.357,0.865c0.225,0.228,0.539,0.358,0.86,0.358
	c0.319,0,0.634-0.131,0.86-0.358c0.226-0.228,0.356-0.543,0.356-0.865C41.61,6.466,41.48,6.15,41.254,5.923"/>
<path fill="#FDAE66" d="M54.514,10.947h-14.12c-0.673,0-1.218,0.548-1.218,1.223c0,0.676,0.545,1.224,1.218,1.224h14.12
	c0.672,0,1.217-0.548,1.217-1.224C55.73,11.495,55.186,10.947,54.514,10.947"/>
<path fill="#FDAE66" d="M54.514,16.33h-14.12c-0.673,0-1.218,0.548-1.218,1.223c0,0.676,0.545,1.224,1.218,1.224h14.12
	c0.672,0,1.217-0.548,1.217-1.224C55.73,16.878,55.186,16.33,54.514,16.33"/>
<path fill="#649BE1" d="M59.869,19.021c0,2.023-1.638,3.67-3.651,3.67h-12.66c-0.322,0-0.632,0.129-0.86,0.357l-2.264,2.275v-1.41
	c0-0.675-0.545-1.223-1.217-1.223h-0.528c-2.013,0-3.651-1.646-3.651-3.67V5.931c0-2.023,1.639-3.67,3.651-3.67h17.529
	c2.014,0,3.651,1.646,3.651,3.67V19.021z M56.218-0.186H38.688c-3.356,0-6.086,2.744-6.086,6.116v13.091
	c0,3.139,2.364,5.732,5.397,6.077v3.18c0,0.495,0.295,0.94,0.75,1.13c0.15,0.063,0.31,0.093,0.467,0.093
	c0.316,0,0.628-0.124,0.861-0.357l3.984-4.006h12.155c3.356,0,6.086-2.743,6.086-6.116V5.931
	C62.304,2.559,59.574-0.186,56.218-0.186"/>
</svg>
