<svg width="150" height="138" viewBox="0 0 150 138" fill="none" xmlns="http://www.w3.org/2000/svg">
<path d="M147.07 0H2.92969C1.31162 0 0 1.30942 0 2.92411V135.076C0 136.691 1.31162 138 2.92969 138H31.3477C32.9657 138 34.2773 136.691 34.2773 135.076C34.2773 133.461 32.9657 132.152 31.3477 132.152H5.85938V26.8869C5.95605 26.8966 6.0542 26.9018 6.15352 26.9018H144.141V132.152H138.929V119.518C138.929 113.809 135.282 108.767 129.852 106.972L119.514 103.552C120.776 102.071 121.806 100.387 122.549 98.5575H131.254C132.872 98.5575 134.184 97.2481 134.184 95.6334V87.3859C134.184 71.5998 121.316 58.7565 105.5 58.7565C89.6833 58.7565 76.8158 71.5998 76.8158 87.3859V95.6334C76.8158 97.2481 78.1274 98.5575 79.7455 98.5575H88.4511C89.1943 100.387 90.2238 102.071 91.4856 103.552L81.1474 106.972C75.7181 108.767 72.0703 113.809 72.0703 119.518V132.151H58.4435C56.8254 132.151 55.5138 133.461 55.5138 135.076C55.5138 136.69 56.8254 138 58.4435 138H75H136H147.07C148.688 138 150 136.69 150 135.076V2.92411C150 1.30913 148.688 0 147.07 0ZM128.324 92.709H123.861C123.88 92.3695 123.891 92.028 123.891 91.6838V87.6579C123.891 87.6307 123.889 87.6041 123.889 87.5772H128.324V92.709ZM82.6752 92.709V87.5772H87.1105C87.1105 87.6044 87.1084 87.631 87.1084 87.6579V91.6838C87.1084 92.028 87.1198 92.3695 87.1386 92.709H82.6752ZM88.0983 81.7287H83.388C85.9148 71.8946 94.87 64.6042 105.5 64.6042C116.13 64.6042 125.085 71.8946 127.612 81.7287H122.901C120.425 74.5084 113.562 69.3012 105.5 69.3012C97.4373 69.3012 90.5748 74.5084 88.0983 81.7287ZM105.5 91.3297C103.882 91.3297 102.57 92.6391 102.57 94.2538V97.2756C102.57 98.8903 103.882 100.2 105.5 100.2H114.667C114.003 100.912 113.257 101.548 112.443 102.09C112.251 102.184 112.069 102.298 111.901 102.432C110.026 103.548 107.837 104.192 105.5 104.192C103.162 104.192 100.974 103.548 99.0993 102.432C98.9309 102.298 98.7486 102.184 98.5556 102.09C95.1897 99.8447 92.9678 96.0188 92.9678 91.6838V87.6579C92.9678 80.7608 98.5895 75.1497 105.5 75.1497C112.41 75.1497 118.032 80.7608 118.032 87.6579V91.6838C118.032 92.5993 117.93 93.4912 117.742 94.3515H108.429V94.2538C108.429 92.6391 107.118 91.3297 105.5 91.3297ZM133.07 132.151H77.9297V119.518C77.9297 116.335 79.9635 113.524 82.9904 112.523L96.9226 107.914C99.4855 109.269 102.403 110.04 105.5 110.04C108.596 110.04 111.514 109.269 114.077 107.914L128.009 112.523C131.036 113.524 133.07 116.335 133.07 119.518V132.151ZM144.141 21.0536H6.15352C6.0542 21.0536 5.95605 21.0589 5.85938 21.0685V5.84823H144.141V21.0536Z" fill="#043166"/>
<path d="M47.3291 133C46.7842 132.454 46.0283 132.144 45.2578 132.144C44.4844 132.144 43.7314 132.454 43.1865 133C42.6387 133.544 42.3281 134.298 42.3281 135.067C42.3281 135.836 42.6387 136.591 43.1865 137.134C43.7314 137.678 44.4844 137.991 45.2578 137.991C46.0283 137.991 46.7842 137.678 47.3291 137.134C47.874 136.591 48.1875 135.836 48.1875 135.067C48.1875 134.298 47.874 133.544 47.3291 133Z" fill="black"/>
<path d="M131.25 10.5344H65.0581C63.44 10.5344 62.1284 11.8437 62.1284 13.4582C62.1284 15.0726 63.44 16.3819 65.0581 16.3819H131.25C132.868 16.3819 134.18 15.0726 134.18 13.4582C134.18 11.8437 132.868 10.5344 131.25 10.5344Z" fill="#043166"/>
<path d="M32.54 11.3908C31.9951 10.8467 31.2393 10.5342 30.4688 10.5342C29.6982 10.5342 28.9424 10.8467 28.3975 11.3908C27.8525 11.9344 27.5391 12.6887 27.5391 13.4579C27.5391 14.2268 27.8525 14.9812 28.3975 15.5247C28.9424 16.0685 29.6982 16.3816 30.4688 16.3816C31.2393 16.3816 31.9951 16.0688 32.54 15.5247C33.085 14.9812 33.3984 14.2268 33.3984 13.4579C33.3984 12.6887 33.085 11.9344 32.54 11.3908Z" fill="#043166"/>
<path d="M20.8213 11.3908C20.2764 10.8467 19.5205 10.5342 18.75 10.5342C17.9795 10.5342 17.2236 10.8467 16.6787 11.3908C16.1338 11.9344 15.8203 12.6887 15.8203 13.4579C15.8203 14.2268 16.1338 14.9812 16.6787 15.5247C17.2236 16.0685 17.9795 16.3816 18.75 16.3816C19.5205 16.3816 20.2764 16.0688 20.8213 15.5247C21.3662 14.9812 21.6797 14.2268 21.6797 13.4579C21.6797 12.6887 21.3662 11.9344 20.8213 11.3908Z" fill="#043166"/>
<path d="M44.2588 11.3908C43.7139 10.8467 42.958 10.5342 42.1875 10.5342C41.417 10.5342 40.6611 10.8467 40.1162 11.3908C39.5713 11.9344 39.2578 12.6887 39.2578 13.4579C39.2578 14.2268 39.5713 14.9812 40.1162 15.5247C40.6611 16.0685 41.417 16.3816 42.1875 16.3816C42.958 16.3816 43.7139 16.0688 44.2588 15.5247C44.8037 14.9812 45.1172 14.2268 45.1172 13.4579C45.1172 12.6887 44.8037 11.9344 44.2588 11.3908Z" fill="#043166"/>
<path d="M62.7976 34.509H27.7236C21.16 34.509 15.8203 39.8381 15.8203 46.3884V70.5788C15.8203 77.1291 21.1603 82.4582 27.7236 82.4582H62.7973C69.3609 82.4582 74.7009 77.1291 74.7009 70.5788V46.3884C74.7009 39.8381 69.3609 34.509 62.7976 34.509ZM62.7976 76.6107H27.7236C24.3911 76.6107 21.6797 73.9048 21.6797 70.5788V46.3884C21.6797 43.0624 24.3911 40.3565 27.7236 40.3565H62.7973C66.1298 40.3565 68.8412 43.0624 68.8412 46.3884V70.5788H68.8415C68.8415 73.9048 66.1301 76.6107 62.7976 76.6107Z" fill="#B24800"/>
<path d="M54.0161 53.5701L42.8174 46.4067C41.0168 45.255 38.7322 45.1755 36.8555 46.1994C34.9787 47.2236 33.813 49.1857 33.813 51.3203V65.6471C33.813 67.7818 34.9787 69.7439 36.8555 70.7681C37.732 71.2464 38.6977 71.4838 39.6612 71.4838C40.7607 71.4838 41.8579 71.1745 42.8174 70.5608L54.0161 63.3973C55.7019 62.3191 56.7085 60.4821 56.7085 58.4837C56.7085 56.4853 55.7016 54.6484 54.0161 53.5701ZM39.6724 65.6255L39.6732 51.341L50.8389 58.484L39.6724 65.6255Z" fill="#B24800"/>
<path d="M40.2814 104.679H18.75C17.1319 104.679 15.8203 105.988 15.8203 107.602C15.8203 109.217 17.1319 110.526 18.75 110.526H40.2814C41.8995 110.526 43.2111 109.217 43.2111 107.602C43.2111 105.988 41.8995 104.679 40.2814 104.679Z" fill="#B24800"/>
<path d="M61.7619 104.679H53.6455C52.0274 104.679 50.7158 105.988 50.7158 107.602C50.7158 109.217 52.0274 110.526 53.6455 110.526H61.7619C63.38 110.526 64.6916 109.217 64.6916 107.602C64.6916 105.988 63.38 104.679 61.7619 104.679Z" fill="#B24800"/>
<path d="M49.6251 90.6447H18.75C17.1319 90.6447 15.8203 91.9539 15.8203 93.5684C15.8203 95.1829 17.1319 96.4921 18.75 96.4921H49.6251C51.2432 96.4921 52.5548 95.1829 52.5548 93.5684C52.5548 91.9539 51.2432 90.6447 49.6251 90.6447Z" fill="#B24800"/>
<path d="M63.9404 91.5007C63.3955 90.9569 62.6396 90.644 61.8691 90.644C61.0957 90.644 60.3428 90.9566 59.7979 91.5007C59.2529 92.0442 58.9395 92.7985 58.9395 93.5678C58.9395 94.3367 59.2529 95.091 59.7979 95.6346C60.3428 96.1784 61.0957 96.4915 61.8691 96.4915C62.6396 96.4915 63.3955 96.1787 63.9404 95.6346C64.4854 95.091 64.7988 94.3367 64.7988 93.5678C64.7988 92.7988 64.4854 92.0445 63.9404 91.5007Z" fill="#B24800"/>
<path d="M61.7578 118.713H18.75C17.1319 118.713 15.8203 120.022 15.8203 121.636C15.8203 123.251 17.1319 124.56 18.75 124.56H61.7578C63.3759 124.56 64.6875 123.251 64.6875 121.636C64.6875 120.022 63.3759 118.713 61.7578 118.713Z" fill="#B24800"/>
</svg>
