<svg width="158" height="167" viewBox="0 0 158 167" fill="none" xmlns="http://www.w3.org/2000/svg">
<path d="M118.186 0.71727C117.729 0.259657 117.103 0 116.461 0H54.5675C53.9204 0 53.2913 0.262228 52.8369 0.71727C52.3798 1.16974 52.123 1.7996 52.123 2.44489V13.4842C52.123 14.8339 53.2169 15.9342 54.5675 15.9342C55.9103 15.9342 57.0093 14.8339 57.0093 13.4842V4.89235H114.019V52.1885H83.8849C83.5768 52.1885 83.2635 52.2502 82.9759 52.3633L70.0375 57.541V54.6334C70.0375 53.9932 69.7782 53.3634 69.3237 52.9057C68.8693 52.4481 68.2376 52.1885 67.5957 52.1885H57.0093V23.2663C57.0093 21.9217 55.9103 20.8265 54.5675 20.8265C53.2169 20.8265 52.123 21.9217 52.123 23.2663V54.6334C52.123 55.2812 52.3824 55.9111 52.8369 56.3661C53.2913 56.8237 53.9204 57.0808 54.5649 57.0808H65.1539V61.1556C65.1539 61.968 65.5544 62.7239 66.2246 63.1815C66.6328 63.4514 67.1053 63.6005 67.5957 63.6005C67.9064 63.6005 68.212 63.5414 68.5021 63.4257L84.3573 57.0808H116.463C117.105 57.0808 117.732 56.8212 118.189 56.3661C118.648 55.9111 118.905 55.2812 118.905 54.6334V2.44489C118.905 1.7996 118.646 1.16974 118.186 0.71727Z" fill="#043166"/>
<path d="M153.111 151.508V162.108H112.388V154.768C112.388 153.421 111.294 152.323 109.946 152.323H93.6572C92.3092 152.323 91.2154 153.421 91.2154 154.768V162.108H86.3291V151.508C86.3291 147.462 89.6157 144.168 93.6572 144.168H102.575L110.052 150.156C110.072 150.171 110.098 150.184 110.116 150.199C110.185 150.253 110.257 150.3 110.332 150.346C110.378 150.372 110.419 150.397 110.462 150.421C110.534 150.457 110.609 150.485 110.678 150.513C110.729 150.534 110.773 150.557 110.827 150.57C110.904 150.595 110.989 150.613 111.071 150.631C111.112 150.639 111.153 150.652 111.197 150.66C111.323 150.68 111.448 150.691 111.577 150.691C111.662 150.691 111.746 150.685 111.834 150.678C111.849 150.675 111.864 150.673 111.882 150.67C111.949 150.662 112.016 150.652 112.08 150.637C112.111 150.631 112.134 150.621 112.165 150.613C112.219 150.601 112.27 150.588 112.321 150.57C112.355 150.559 112.391 150.547 112.424 150.534C112.445 150.529 112.465 150.518 112.486 150.511L119.608 147.659L125.147 150.431C125.183 150.449 125.221 150.462 125.26 150.48C125.303 150.498 125.347 150.518 125.393 150.536C125.452 150.559 125.514 150.575 125.576 150.59C125.606 150.598 125.632 150.611 125.663 150.616C125.753 150.639 125.835 150.655 125.925 150.667C125.933 150.667 125.94 150.67 125.948 150.67C126.043 150.683 126.141 150.688 126.236 150.688C126.351 150.688 126.464 150.68 126.577 150.665C126.628 150.657 126.675 150.644 126.729 150.634C126.788 150.619 126.849 150.608 126.911 150.59C126.96 150.575 127.008 150.554 127.06 150.539C127.119 150.513 127.183 150.493 127.239 150.469C127.281 150.449 127.324 150.426 127.365 150.403C127.43 150.369 127.496 150.338 127.553 150.297C127.566 150.289 127.581 150.284 127.596 150.274L136.748 144.163H145.781C149.822 144.163 153.109 147.451 153.111 151.498C153.111 151.503 153.111 151.505 153.111 151.508ZM107.502 162.108H96.1016V157.215H107.502V162.108ZM117.277 140.8V143.325L111.993 145.441L105.874 140.543V137.304C109.304 139.222 113.166 140.448 117.277 140.8ZM133.566 137.307L133.561 140.412L126.058 145.423L122.161 143.472V140.8C126.271 140.448 130.138 139.222 133.566 137.307ZM96.1016 112.374V103.374L101.453 96.2371C104.462 97.7359 110.575 100.276 117.359 100.276C124.595 100.276 135.369 97.3349 139.811 96.0263L143.339 103.091V112.374C143.339 125.409 132.742 136.011 119.719 136.011C106.698 136.013 96.1016 125.411 96.1016 112.374ZM100.865 77.133C107.379 69.7444 119.359 69.1274 130.082 69.1274C131.114 69.1274 132.136 69.1325 133.135 69.1377C133.281 69.1377 133.42 69.1402 133.561 69.1402V79.7502C133.561 80.4237 133.828 81.0716 134.324 81.5292C134.812 81.9945 135.461 82.2311 136.134 82.1925C136.36 82.1771 139.58 82.1411 141.839 84.9022C143.506 86.9383 144.337 90.0645 144.32 94.1162L143.257 91.9901C142.72 90.9129 141.477 90.3858 140.327 90.756C140.186 90.8023 125.709 95.3887 117.359 95.3887C109.348 95.3887 102.1 91.0414 102.028 90.9977C100.954 90.3396 99.5602 90.6095 98.8028 91.6173L95.5778 95.9235C95.3775 87.6479 97.1518 81.3467 100.865 77.133ZM145.778 139.273H138.45L138.452 133.859C144.435 128.625 148.225 120.935 148.225 112.377V102.993C150.13 93.3783 149.255 86.2467 145.614 81.8017C143.318 78.9995 140.476 77.9326 138.447 77.5315V66.7056C138.447 65.3534 137.353 64.2582 136.008 64.2582C135.081 64.2582 134.129 64.253 133.161 64.2479C132.149 64.2428 131.119 64.2376 130.082 64.2376C118.291 64.2376 105.06 64.9832 97.198 73.8989C91.5466 80.3132 89.5849 89.7843 91.2154 102.852V112.38C91.2154 120.941 95.0026 128.633 100.988 133.867V139.276H93.6598C86.9248 139.276 81.4429 144.767 81.4429 151.511V164.555C81.4429 165.905 82.5367 167 83.8847 167H93.6598H109.949H155.556C156.904 167 158 165.905 158 164.555V151.523C158 151.518 158 151.516 158 151.511C157.997 144.762 152.518 139.273 145.778 139.273Z" fill="#043166"/>
<path d="M71.6683 151.509V162.108H4.88624V151.509C4.88624 147.462 8.17283 144.169 12.2143 144.169H22.9959C24.1693 151.552 30.573 157.216 38.276 157.216C45.9738 157.216 52.3775 151.552 53.5535 144.169H64.3351C68.374 144.169 71.6606 147.457 71.6632 151.504C71.6683 151.504 71.6683 151.506 71.6683 151.509ZM48.865 138.865L48.8624 141.719C48.8624 147.565 44.1148 152.321 38.2785 152.321C32.4371 152.321 27.6921 147.565 27.6921 141.719V138.865C30.9633 140.182 34.5375 140.907 38.2785 140.907C42.017 140.907 45.5912 140.182 48.865 138.865ZM14.6587 112.375V97.567L25.4095 92.1862L61.8984 105.236V112.373C61.8984 125.407 51.3017 136.009 38.2811 136.009C25.2554 136.014 14.6587 125.412 14.6587 112.375ZM19.1316 72.8636L24.5236 75.4344C25.2452 75.7815 26.0925 75.7429 26.7909 75.347C26.8859 75.293 36.4067 69.8942 46.2177 69.8942C60.2089 69.8942 67.6473 80.8101 68.3535 102.351L26.0668 87.2321C25.7998 87.137 25.5225 87.0856 25.2452 87.0856C24.8703 87.0856 24.498 87.173 24.1565 87.3478L14.4482 92.2067C14.0887 79.9514 17.478 74.6889 19.1316 72.8636ZM64.3402 139.274H53.7538L53.7563 136.325C61.5903 131.235 66.7846 122.401 66.7846 112.378V106.984L70.0327 108.149C70.2997 108.244 70.5796 108.29 70.8543 108.29C71.3525 108.29 71.8455 108.138 72.264 107.843C72.9136 107.385 73.2987 106.64 73.2987 105.843C73.2987 91.163 70.4743 80.2625 64.9051 73.442C60.3347 67.8401 54.0465 65.0019 46.2177 65.0019C37.0923 65.0019 28.5446 68.925 25.5096 70.4855L19.7863 67.7553C19.0545 67.4082 18.2072 67.4442 17.5088 67.8478C16.528 68.416 8.0008 74.0282 9.77505 96.1504V112.378C9.77505 122.401 14.9694 131.238 22.8033 136.325V139.274H12.2169C5.48194 139.274 0 144.763 0 151.509V164.553C0 165.903 1.09382 166.998 2.44184 166.998H74.1101C75.4607 166.998 76.5545 165.903 76.5545 164.553V151.522C76.5545 151.516 76.5545 151.514 76.5545 151.509C76.5545 144.763 71.0752 139.274 64.3402 139.274Z" fill="#043166"/>
<path d="M92.9998 12.8856C91.0022 10.8855 88.3447 9.7826 85.5151 9.78003C82.6805 9.7826 80.0255 10.8855 78.0279 12.8856C76.0277 14.8883 74.9261 17.5492 74.9261 20.3823C74.9261 21.732 76.0225 22.8271 77.3706 22.8271C78.7134 22.8271 79.8124 21.732 79.8124 20.3823V20.3771C79.8175 18.8552 80.4081 17.4258 81.4814 16.3486C82.5598 15.274 83.99 14.6775 85.5126 14.6749C87.0326 14.6775 88.4602 15.274 89.5387 16.3486C90.6171 17.4258 91.2076 18.8603 91.2128 20.3797C91.2076 21.9068 90.6171 23.3387 89.5387 24.4159C88.4705 25.4828 87.0506 26.0767 85.5408 26.087C85.5306 26.087 85.5203 26.087 85.51 26.087C84.162 26.087 83.0682 27.1873 83.0682 28.537V35.0593C83.0682 36.4064 84.162 37.5068 85.51 37.5068C86.8529 37.5068 87.9518 36.4064 87.9518 35.0593V30.6965C89.8468 30.2518 91.5851 29.2877 92.9947 27.8763C94.9923 25.8762 96.0939 23.2153 96.0964 20.3823C96.099 17.5517 94.9975 14.8883 92.9998 12.8856Z" fill="#B24800"/>
<path d="M85.6308 39.8146C84.1067 39.8146 82.8671 40.706 82.8671 41.8068V44.4581C82.8671 45.5568 84.1067 46.4503 85.6308 46.4503C87.149 46.4503 88.3915 45.5568 88.3915 44.4581V41.8068C88.3915 40.706 87.149 39.8146 85.6308 39.8146Z" fill="#B24800"/>
</svg>
