<svg width="143" height="144" viewBox="0 0 143 144" fill="none" xmlns="http://www.w3.org/2000/svg">
<path d="M65.9366 100.384C65.418 99.8571 64.6975 99.5605 63.9633 99.5605C63.2291 99.5605 62.5063 99.8571 61.9877 100.384C61.4669 100.906 61.1709 101.63 61.1709 102.372C61.1709 103.11 61.4692 103.837 61.9877 104.359C62.5063 104.881 63.2291 105.182 63.9633 105.182C64.6975 105.182 65.4203 104.881 65.9366 104.359C66.4528 103.837 66.7534 103.11 66.7534 102.372C66.7534 101.632 66.4574 100.903 65.9366 100.384Z" fill="#053C7B"/>
<path d="M122.338 106.382C122.338 107.583 121.36 108.56 120.158 108.56H7.76684C6.56453 108.56 5.58708 107.583 5.58708 106.382V96.186H122.338V106.382V106.382ZM55.8547 114.185H72.0653V127.106H55.8547V114.185ZM84.1504 138.376H43.772C44.9261 135.091 48.0397 132.734 51.688 132.734H53.0646H74.8623H76.2344C79.8849 132.734 82.9985 135.091 84.1504 138.376ZM20.6688 83.6192C20.6688 75.908 26.3361 69.512 33.6946 68.4199L42.7165 77.5036C43.2626 78.0531 43.9762 78.3267 44.6921 78.3267C45.4056 78.3267 46.1169 78.0531 46.663 77.5036L55.6849 68.4199C63.0434 69.5143 68.7085 75.9103 68.7085 83.6192V90.5624H20.6688V83.6192ZM47.9502 68.2544L44.6921 71.5352L41.4293 68.2544H47.9502ZM35.6839 50.7492H49.6757C51.1097 50.7492 52.4727 50.425 53.6956 49.8571V53.5587C53.6956 58.5592 49.6573 62.6262 44.6921 62.6262C39.7268 62.6262 35.6839 58.5569 35.6839 53.5587V50.7492ZM35.6839 42.8173C35.6839 39.3802 38.4602 36.5845 41.8721 36.5845H53.6933V41.0746C53.6933 43.3047 51.8922 45.121 49.6734 45.121H35.6816V42.8173H35.6839ZM125.13 75.3793C123.588 75.3793 122.338 76.6392 122.338 78.191V90.5624H74.2956V83.6192C74.2956 72.9238 66.3107 64.077 56.0268 62.7941C58.0597 60.2674 59.2804 57.0556 59.2804 53.5587V33.7727C59.2804 32.2186 58.0299 30.9587 56.4857 30.9587H41.8721C35.381 30.9587 30.0991 36.2787 30.0991 42.815V53.5587C30.0991 57.0556 31.3175 60.2674 33.3504 62.7941C23.0688 64.077 15.0817 72.9215 15.0817 83.6192V90.5624H5.58708V22.9877C5.58708 21.7853 6.56453 20.8059 7.76684 20.8059H65.822C67.3685 20.8059 68.619 19.546 68.619 17.9941C68.619 16.44 67.3685 15.1801 65.822 15.1801H7.76684C3.48533 15.1801 0 18.6793 0 22.9877V106.38C0 110.682 3.48533 114.185 7.76684 114.185H50.27V127.178C43.2236 127.897 37.703 133.905 37.703 141.188C37.703 142.74 38.9581 144 40.5 144H87.4223C88.9642 144 90.2147 142.74 90.2147 141.188C90.2147 133.905 84.7011 127.897 77.6524 127.178V114.185H120.156C124.437 114.185 127.92 110.684 127.92 106.38V78.1887C127.92 76.6369 126.672 75.3793 125.13 75.3793Z" fill="#043166"/>
<path d="M127.104 65.6089C126.585 65.0824 125.865 64.7858 125.13 64.7858C124.396 64.7858 123.673 65.0847 123.155 65.6089C122.636 66.1354 122.338 66.8573 122.338 67.5976C122.338 68.3379 122.636 69.0621 123.155 69.584C123.676 70.1105 124.396 70.4071 125.13 70.4071C125.865 70.4071 126.587 70.1105 127.104 69.584C127.622 69.0598 127.92 68.3379 127.92 67.5976C127.92 66.8573 127.624 66.1308 127.104 65.6089Z" fill="#053C7B"/>
<path d="M125.129 13.2176H104.178C102.636 13.2176 101.386 14.4798 101.386 16.0316C101.386 17.5858 102.636 18.8457 104.178 18.8457H125.129C126.671 18.8457 127.922 17.5858 127.922 16.0316C127.919 14.4798 126.671 13.2176 125.129 13.2176Z" fill="#B24800"/>
<path d="M94.7061 14.045C94.1852 13.5185 93.4648 13.222 92.7328 13.222C91.9963 13.222 91.2735 13.5208 90.7596 14.045C90.2387 14.5692 89.9404 15.2934 89.9404 16.0314C89.9404 16.7717 90.2387 17.4982 90.7596 18.0201C91.2758 18.5443 91.9963 18.8432 92.7328 18.8432C93.4648 18.8432 94.1875 18.542 94.7061 18.0201C95.2246 17.496 95.5229 16.7717 95.5229 16.0314C95.5229 15.2934 95.2246 14.5669 94.7061 14.045Z" fill="#B24800"/>
<path d="M125.131 25.5951H92.7332C91.189 25.5951 89.9385 26.855 89.9385 28.4069C89.9385 29.9611 91.189 31.221 92.7332 31.221H125.131C126.673 31.221 127.924 29.9611 127.924 28.4069C127.921 26.855 126.673 25.5951 125.131 25.5951Z" fill="#B24800"/>
<path d="M125.131 37.9709H92.7332C91.189 37.9709 89.9385 39.2308 89.9385 40.7826C89.9385 42.3368 91.189 43.5967 92.7332 43.5967H125.131C126.673 43.5967 127.924 42.3368 127.924 40.7826C127.921 39.2308 126.673 37.9709 125.131 37.9709Z" fill="#B24800"/>
<path d="M137.417 44.1585C137.417 48.8095 133.659 52.5961 129.04 52.5961H99.9919C99.2531 52.5961 98.5418 52.8927 98.0187 53.4169L92.8239 58.6473V55.4056C92.8239 53.8537 91.5735 52.5938 90.0316 52.5938H88.8201C84.2013 52.5938 80.4429 48.8095 80.4429 44.1562V14.0635C80.4429 9.41245 84.2036 5.62586 88.8201 5.62586H129.04C133.661 5.62586 137.417 9.41015 137.417 14.0635V44.1585ZM129.04 0H88.8178C81.1175 0 74.8535 6.30869 74.8535 14.0612V44.1585C74.8535 51.3753 80.2777 57.3368 87.2369 58.13V65.4411C87.2369 66.5792 87.9137 67.6023 88.9577 68.0391C89.3019 68.1839 89.669 68.2529 90.0293 68.2529C90.7543 68.2529 91.4702 67.9678 92.0048 67.4321L101.146 58.222H129.036C136.736 58.222 143 51.9156 143 44.1608V14.0635C143.004 6.31099 136.74 0 129.04 0Z" fill="#043166"/>
</svg>
