<?xml version="1.0" encoding="utf-8"?>
<!-- Generator: Adobe Illustrator 16.0.3, SVG Export Plug-In . SVG Version: 6.00 Build 0)  -->
<!DOCTYPE svg PUBLIC "-//W3C//DTD SVG 1.1//EN" "http://www.w3.org/Graphics/SVG/1.1/DTD/svg11.dtd">
<svg version="1.1" id="Camada_1" xmlns="http://www.w3.org/2000/svg" xmlns:xlink="http://www.w3.org/1999/xlink" x="0px" y="0px"
	 width="66.375px" height="69.625px" viewBox="-0.625 -0.625 66.375 69.625" enable-background="new -0.625 -0.625 66.375 69.625"
	 xml:space="preserve">
<path fill="#1765AB" stroke="#1765AB" stroke-width="0.3" stroke-miterlimit="10" d="M48.621,0.295C48.433,0.107,48.175,0,47.911,0
	H22.449c-0.267,0-0.525,0.108-0.712,0.295c-0.188,0.186-0.293,0.445-0.293,0.71v4.537c0,0.555,0.45,1.007,1.006,1.007
	c0.552,0,1.004-0.452,1.004-1.007V2.011h23.453v19.438H34.51c-0.127,0-0.256,0.025-0.374,0.072l-5.323,2.128v-1.195
	c0-0.263-0.107-0.522-0.294-0.71s-0.447-0.295-0.711-0.295h-4.355V9.563c0-0.553-0.452-1.003-1.004-1.003
	c-0.556,0-1.006,0.45-1.006,1.003v12.892c0,0.266,0.107,0.525,0.293,0.712c0.187,0.188,0.446,0.294,0.711,0.294h4.356v1.675
	c0,0.334,0.165,0.645,0.44,0.833c0.168,0.111,0.362,0.172,0.564,0.172c0.128,0,0.253-0.024,0.373-0.072l6.522-2.608h13.209
	c0.264,0,0.521-0.107,0.709-0.294c0.189-0.187,0.295-0.446,0.295-0.712V1.005C48.916,0.74,48.81,0.481,48.621,0.295z"/>
<path fill="#1765AB" stroke="#1765AB" stroke-width="0.3" stroke-miterlimit="10" d="M62.988,62.27v4.355H46.235v-3.016
	c0-0.555-0.45-1.006-1.005-1.006h-6.701c-0.555,0-1.004,0.451-1.004,1.006v3.016h-2.01V62.27c0-1.664,1.352-3.018,3.014-3.018h3.669
	l3.076,2.461c0.009,0.007,0.019,0.012,0.026,0.019c0.028,0.022,0.059,0.041,0.089,0.06c0.019,0.012,0.036,0.021,0.054,0.031
	c0.029,0.015,0.061,0.026,0.089,0.038c0.021,0.009,0.039,0.019,0.062,0.022c0.031,0.012,0.066,0.019,0.1,0.025
	c0.018,0.004,0.034,0.01,0.053,0.012c0.051,0.009,0.104,0.014,0.156,0.014c0.034,0,0.069-0.002,0.105-0.006
	c0.006-0.001,0.012-0.002,0.02-0.003c0.027-0.003,0.055-0.007,0.082-0.015c0.012-0.002,0.021-0.006,0.034-0.009
	c0.022-0.005,0.044-0.011,0.064-0.019c0.014-0.004,0.028-0.009,0.042-0.014c0.009-0.002,0.018-0.007,0.025-0.01l2.931-1.172
	l2.278,1.139c0.015,0.008,0.031,0.014,0.047,0.021c0.018,0.007,0.035,0.016,0.055,0.022c0.023,0.01,0.049,0.017,0.074,0.023
	c0.014,0.002,0.023,0.008,0.037,0.01c0.037,0.01,0.07,0.016,0.107,0.021c0.003,0,0.006,0.001,0.01,0.001
	c0.039,0.005,0.078,0.007,0.117,0.007c0.049,0,0.095-0.003,0.141-0.01c0.021-0.002,0.041-0.008,0.063-0.012
	c0.024-0.007,0.05-0.011,0.075-0.018c0.021-0.007,0.04-0.016,0.062-0.021c0.023-0.011,0.051-0.02,0.074-0.029
	c0.017-0.008,0.034-0.018,0.051-0.027c0.027-0.014,0.055-0.025,0.078-0.043c0.005-0.004,0.012-0.006,0.018-0.01l3.765-2.512h3.716
	c1.663,0,3.016,1.352,3.016,3.016C62.988,62.268,62.988,62.268,62.988,62.27z M44.226,66.625h-4.69v-2.01h4.69V66.625z
	 M48.246,57.868v1.038l-2.174,0.869l-2.517-2.013v-1.331C44.967,57.22,46.556,57.724,48.246,57.868z M54.948,56.432l-0.003,1.277
	l-3.086,2.059l-1.604-0.801v-1.099C51.947,57.724,53.537,57.22,54.948,56.432z M39.535,46.186v-3.699l2.201-2.934
	c1.238,0.616,3.754,1.66,6.545,1.66c2.977,0,7.408-1.209,9.236-1.746l1.451,2.902v3.816c0,5.357-4.359,9.715-9.717,9.715
	S39.535,51.543,39.535,46.186z M41.494,31.701c2.681-3.037,7.609-3.29,12.021-3.29c0.425,0,0.845,0.002,1.256,0.004
	c0.06,0,0.117,0.001,0.175,0.001v4.36c0,0.277,0.11,0.543,0.314,0.731c0.201,0.191,0.468,0.288,0.744,0.272
	c0.094-0.006,1.418-0.021,2.348,1.114c0.686,0.836,1.027,2.121,1.021,3.787l-0.438-0.874c-0.221-0.442-0.731-0.659-1.205-0.507
	c-0.058,0.019-6.014,1.903-9.448,1.903c-3.297,0-6.278-1.786-6.309-1.805c-0.441-0.271-1.015-0.159-1.326,0.255l-1.326,1.77
	C39.237,36.023,39.967,33.433,41.494,31.701z M59.972,57.24h-3.015l0.001-2.225c2.462-2.151,4.021-5.312,4.021-8.829V42.33
	c0.783-3.952,0.424-6.883-1.074-8.71c-0.944-1.152-2.113-1.59-2.948-1.755v-4.45c0-0.556-0.45-1.006-1.003-1.006
	c-0.382,0-0.773-0.002-1.172-0.004c-0.416-0.002-0.84-0.004-1.267-0.004c-4.851,0-10.294,0.307-13.528,3.971
	c-2.324,2.636-3.132,6.528-2.461,11.899v3.916c0,3.519,1.559,6.68,4.02,8.831v2.224h-3.014c-2.771,0-5.026,2.256-5.026,5.027v5.361
	c0,0.555,0.45,1.006,1.005,1.006h4.021h6.701h18.762c0.555,0,1.006-0.451,1.006-1.006v-5.355c0-0.002,0-0.003,0-0.006
	C64.999,59.496,62.744,57.24,59.972,57.24z"/>
<path fill="#1765AB" stroke="#1765AB" stroke-width="0.3" stroke-miterlimit="10" d="M29.484,62.27v4.356H2.01V62.27
	c0-1.663,1.352-3.017,3.015-3.017H9.46c0.482,3.034,3.117,5.362,6.286,5.362c3.167,0,5.801-2.328,6.285-5.362h4.435
	c1.662,0,3.014,1.351,3.015,3.015C29.484,62.268,29.484,62.269,29.484,62.27z M20.103,57.072l-0.001,1.174
	c0,2.402-1.953,4.357-4.354,4.357c-2.403,0-4.355-1.955-4.355-4.357v-1.174c1.346,0.541,2.816,0.84,4.355,0.84
	C17.286,57.912,18.756,57.613,20.103,57.072z M6.03,46.186V40.1l4.423-2.211l15.011,5.363v2.933c0,5.356-4.359,9.714-9.716,9.714
	C10.39,55.901,6.03,51.544,6.03,46.186z M7.871,29.947l2.218,1.057c0.297,0.143,0.646,0.126,0.933-0.036
	c0.039-0.022,3.956-2.241,7.992-2.241c5.756,0,8.816,4.486,9.106,13.34l-17.396-6.215c-0.11-0.039-0.224-0.06-0.338-0.06
	c-0.154,0-0.308,0.036-0.448,0.107l-3.994,1.997C5.796,32.86,7.19,30.697,7.871,29.947z M26.469,57.241h-4.355l0.001-1.212
	c3.223-2.092,5.359-5.723,5.359-9.842v-2.217l1.336,0.479c0.11,0.039,0.225,0.058,0.338,0.058c0.205,0,0.408-0.063,0.58-0.185
	c0.267-0.188,0.425-0.494,0.425-0.821c0-6.033-1.162-10.513-3.453-13.316c-1.88-2.303-4.467-3.469-7.688-3.469
	c-3.754,0-7.271,1.612-8.519,2.254L8.14,27.847c-0.301-0.143-0.65-0.128-0.937,0.038c-0.404,0.233-3.912,2.54-3.182,11.632v6.67
	c0,4.119,2.137,7.75,5.36,9.842v1.212H5.026C2.255,57.241,0,59.497,0,62.27v5.361c0,0.555,0.45,1.004,1.004,1.004h29.484
	c0.556,0,1.006-0.449,1.006-1.004v-5.355c0-0.003,0-0.004,0-0.006C31.494,59.497,29.24,57.241,26.469,57.241z"/>
<path fill="#F06C00" stroke="#F06C00" stroke-width="0.3" stroke-miterlimit="10" d="M38.26,5.296
	c-0.822-0.822-1.915-1.275-3.08-1.276c-1.166,0.001-2.258,0.455-3.08,1.276c-0.823,0.823-1.276,1.917-1.276,3.081
	c0,0.555,0.451,1.005,1.005,1.005c0.553,0,1.005-0.45,1.005-1.005V8.375c0.002-0.625,0.246-1.213,0.687-1.656
	c0.443-0.442,1.031-0.687,1.658-0.688c0.625,0.001,1.213,0.246,1.656,0.688c0.443,0.443,0.687,1.032,0.688,1.657
	c-0.002,0.627-0.245,1.216-0.688,1.659c-0.439,0.438-1.023,0.683-1.645,0.687c-0.004,0-0.009,0-0.014,0
	c-0.554,0-1.004,0.452-1.004,1.007v2.681c0,0.554,0.45,1.006,1.004,1.006c0.553,0,1.006-0.452,1.006-1.006v-1.793
	c0.779-0.183,1.494-0.579,2.074-1.159c0.821-0.822,1.275-1.916,1.275-3.08C39.535,7.214,39.082,6.119,38.26,5.296z"/>
<path fill="#F06C00" stroke="#F06C00" stroke-width="0.3" stroke-miterlimit="10" d="M35.229,16.364
	c-0.628,0-1.138,0.366-1.138,0.818v1.09c0,0.452,0.51,0.819,1.138,0.819c0.624,0,1.135-0.367,1.135-0.819v-1.09
	C36.363,16.73,35.853,16.364,35.229,16.364z"/>
</svg>
