<svg width="65" height="69" viewBox="0 0 65 69" fill="none" xmlns="http://www.w3.org/2000/svg">
<path d="M48.6207 0.658503C48.4327 0.470426 48.175 0.363708 47.9109 0.363708H22.4485C22.1823 0.363708 21.9235 0.471483 21.7365 0.658503C21.5485 0.844467 21.4429 1.10334 21.4429 1.36855V5.90564C21.4429 6.46036 21.8929 6.91259 22.4485 6.91259C23.0009 6.91259 23.453 6.46036 23.453 5.90564V2.37444H46.9063V21.8129H34.5095C34.3827 21.8129 34.2538 21.8383 34.1355 21.8848L28.8128 24.0128V22.8178C28.8128 22.5547 28.7061 22.2958 28.5191 22.1077C28.3321 21.9197 28.0723 21.8129 27.8082 21.8129H23.453V9.92605C23.453 9.37344 23.0009 8.92332 22.4485 8.92332C21.8929 8.92332 21.4429 9.37344 21.4429 9.92605V22.8178C21.4429 23.084 21.5496 23.3429 21.7365 23.5299C21.9235 23.718 22.1823 23.8237 22.4474 23.8237H26.8037V25.4984C26.8037 25.8323 26.9684 26.1429 27.2441 26.331C27.4121 26.442 27.6065 26.5032 27.8082 26.5032C27.936 26.5032 28.0617 26.4789 28.1811 26.4314L34.7038 23.8237H47.9119C48.176 23.8237 48.4338 23.717 48.6218 23.5299C48.8109 23.3429 48.9165 23.084 48.9165 22.8178V1.36855C48.9165 1.10334 48.8098 0.844467 48.6207 0.658503Z" fill="#1765AB"/>
<path d="M62.9887 62.6328V66.9892H46.2356V63.9726C46.2356 63.4189 45.7856 62.9678 45.231 62.9678H38.5298C37.9752 62.9678 37.5252 63.4189 37.5252 63.9726V66.9892H35.515V62.6328C35.515 60.9697 36.8671 59.6162 38.5298 59.6162H42.1983L45.2743 62.077C45.2828 62.0834 45.2933 62.0887 45.3007 62.095C45.3292 62.1172 45.3588 62.1362 45.3895 62.1552C45.4085 62.1658 45.4254 62.1764 45.4433 62.1859C45.4729 62.2007 45.5035 62.2123 45.5321 62.2239C45.5532 62.2324 45.5711 62.2419 45.5933 62.2472C45.625 62.2577 45.6599 62.2651 45.6937 62.2725C45.7106 62.2757 45.7275 62.281 45.7454 62.2841C45.7972 62.2926 45.8489 62.2968 45.9018 62.2968C45.9366 62.2968 45.9715 62.2947 46.0074 62.2915C46.0137 62.2905 46.0201 62.2894 46.0275 62.2884C46.0549 62.2852 46.0824 62.281 46.1088 62.2746C46.1215 62.2725 46.131 62.2683 46.1437 62.2651C46.1658 62.2598 46.187 62.2546 46.2081 62.2472C46.2218 62.2429 46.2366 62.2376 46.2503 62.2324C46.2588 62.2302 46.2672 62.226 46.2757 62.2229L49.2059 61.0511L51.4844 62.1901C51.4992 62.1975 51.515 62.2028 51.5309 62.2102C51.5488 62.2176 51.5668 62.226 51.5858 62.2334C51.6101 62.2429 51.6354 62.2493 51.6608 62.2556C51.6735 62.2588 51.684 62.2641 51.6967 62.2662C51.7337 62.2757 51.7675 62.282 51.8044 62.2873C51.8076 62.2873 51.8108 62.2884 51.8139 62.2884C51.853 62.2936 51.8932 62.2958 51.9323 62.2958C51.9798 62.2958 52.0263 62.2926 52.0727 62.2862C52.0939 62.2831 52.1129 62.2778 52.1351 62.2736C52.1594 62.2672 52.1847 62.263 52.2101 62.2556C52.2301 62.2493 52.2502 62.2408 52.2713 62.2345C52.2956 62.2239 52.322 62.2155 52.3453 62.2059C52.3622 62.1975 52.3801 62.188 52.397 62.1785C52.4234 62.1647 52.4509 62.1521 52.4741 62.1352C52.4794 62.132 52.4858 62.1299 52.4921 62.1256L56.2568 59.6141H59.9729C61.6355 59.6141 62.9876 60.9655 62.9887 62.6286C62.9887 62.6307 62.9887 62.6318 62.9887 62.6328ZM44.2254 66.9892H39.5354V64.9785H44.2254V66.9892ZM48.2468 58.232V59.2696L46.0729 60.1392L43.5557 58.1264V56.795C44.9669 57.5833 46.5556 58.0873 48.2468 58.232ZM54.948 56.7961L54.9459 58.0725L51.8594 60.1318L50.2559 59.3298V58.232C51.947 58.0873 53.5378 57.5833 54.948 56.7961ZM39.5354 46.5491V42.8499L41.7367 39.9167C42.9747 40.5327 45.4898 41.5767 48.2806 41.5767C51.2573 41.5767 55.6896 40.3679 57.517 39.8301L58.9683 42.7336V46.5491C58.9683 51.9061 54.6089 56.2636 49.2513 56.2636C43.8948 56.2646 39.5354 51.9071 39.5354 46.5491ZM41.4948 32.065C44.1747 29.0283 49.1034 28.7747 53.5146 28.7747C53.9392 28.7747 54.3597 28.7769 54.7706 28.779C54.8308 28.779 54.8878 28.78 54.9459 28.78V33.1407C54.9459 33.4175 55.0558 33.6838 55.2596 33.8718C55.4603 34.0631 55.7276 34.1603 56.0043 34.1444C56.0973 34.1381 57.4219 34.1233 58.3515 35.2581C59.037 36.0949 59.3792 37.3798 59.3719 39.045L58.9345 38.1712C58.7138 37.7285 58.2025 37.5119 57.7293 37.664C57.6712 37.683 51.7157 39.568 48.2806 39.568C44.9849 39.568 42.0029 37.7813 41.9733 37.7633C41.5318 37.4928 40.9582 37.6038 40.6466 38.018L39.3199 39.7878C39.2375 36.3866 39.9674 33.7968 41.4948 32.065ZM59.9718 57.6044H56.9571L56.9582 55.3792C59.4194 53.2279 60.9785 50.0676 60.9785 46.5501V42.6935C61.7623 38.7418 61.4021 35.8107 59.9042 33.9838C58.9599 32.8321 57.7906 32.3936 56.9561 32.2288V27.7794C56.9561 27.2236 56.5061 26.7735 55.9526 26.7735C55.5712 26.7735 55.1794 26.7714 54.7811 26.7693C54.3649 26.7672 53.9414 26.7651 53.5146 26.7651C48.664 26.7651 43.2208 27.0715 39.9864 30.7358C37.6615 33.3721 36.8544 37.2646 37.5252 42.6354V46.5512C37.5252 50.0697 39.0833 53.2311 41.5455 55.3823V57.6055H38.5308C35.7601 57.6055 33.5049 59.8624 33.5049 62.6339V67.9951C33.5049 68.5498 33.9549 69 34.5094 69H38.5308H45.2321H63.9943C64.5488 69 64.9999 68.5498 64.9999 67.9951V62.6392C64.9999 62.637 64.9999 62.636 64.9999 62.6339C64.9988 59.8603 62.7447 57.6044 59.9718 57.6044Z" fill="#1765AB"/>
<path d="M29.4838 62.6332V66.9896H2.01016V62.6332C2.01016 60.9701 3.36224 59.6165 5.02488 59.6165H9.46033C9.94307 62.6511 12.5775 64.9788 15.7464 64.9788C18.9133 64.9788 21.5477 62.6511 22.0315 59.6165H26.467C28.1285 59.6165 29.4806 60.9679 29.4817 62.6311C29.4838 62.6311 29.4838 62.6321 29.4838 62.6332ZM20.1027 57.4367L20.1016 58.6096C20.1016 61.0123 18.1485 62.9671 15.7475 62.9671C13.3444 62.9671 11.3923 61.0123 11.3923 58.6096V57.4367C12.7381 57.9777 14.2085 58.2757 15.7475 58.2757C17.2855 58.2757 18.7559 57.9777 20.1027 57.4367ZM6.03049 46.5494V40.4633L10.4533 38.2518L25.4645 43.6152V46.5484C25.4645 51.9054 21.1051 56.2628 15.7486 56.2628C10.3899 56.265 6.03049 51.9075 6.03049 46.5494ZM7.87058 30.3103L10.0888 31.367C10.3857 31.5096 10.7342 31.4937 11.0216 31.331C11.0606 31.3088 14.9775 29.09 19.0136 29.09C24.7695 29.09 27.8296 33.5763 28.1201 42.4297L10.7237 36.2157C10.6138 36.1767 10.4997 36.1555 10.3857 36.1555C10.2314 36.1555 10.0783 36.1914 9.93779 36.2633L5.94387 38.2603C5.79599 33.2234 7.19032 31.0605 7.87058 30.3103ZM26.4691 57.6047H22.1139L22.115 56.3928C25.3378 54.3007 27.4747 50.6702 27.4747 46.5505V44.3337L28.8109 44.8123C28.9208 44.8514 29.0359 44.8705 29.1489 44.8705C29.3539 44.8705 29.5567 44.8081 29.7289 44.6866C29.9961 44.4985 30.1545 44.1921 30.1545 43.8646C30.1545 37.8313 28.9926 33.3513 26.7015 30.5481C24.8212 28.2457 22.2343 27.0792 19.0136 27.0792C15.2595 27.0792 11.743 28.6916 10.4945 29.333L8.13994 28.2109C7.83889 28.0682 7.49031 28.083 7.20299 28.2489C6.79948 28.4824 3.29147 30.789 4.02138 39.8811V46.5505C4.02138 50.6702 6.1583 54.3018 9.38111 56.3928V57.6047H5.02593C2.25523 57.6047 0 59.8606 0 62.6332V67.9944C0 68.5491 0.449989 68.9993 1.00455 68.9993H30.4883C31.044 68.9993 31.494 68.5491 31.494 67.9944V62.6384C31.494 62.6363 31.494 62.6353 31.494 62.6332C31.494 59.8606 29.2398 57.6047 26.4691 57.6047Z" fill="#1765AB"/>
<path d="M38.2596 5.65966C37.4378 4.83761 36.3445 4.38433 35.1804 4.38327C34.0143 4.38433 32.9221 4.83761 32.1002 5.65966C31.2774 6.48276 30.8242 7.57635 30.8242 8.74074C30.8242 9.29546 31.2753 9.74558 31.8298 9.74558C32.3823 9.74558 32.8344 9.29546 32.8344 8.74074V8.73863C32.8365 8.11311 33.0794 7.52564 33.521 7.08291C33.9646 6.64125 34.553 6.39612 35.1794 6.39506C35.8047 6.39612 36.392 6.64125 36.8357 7.08291C37.2793 7.52564 37.5223 8.11522 37.5244 8.73968C37.5223 9.36731 37.2793 9.95584 36.8357 10.3986C36.3963 10.8371 35.8121 11.0811 35.191 11.0854C35.1868 11.0854 35.1826 11.0854 35.1783 11.0854C34.6238 11.0854 34.1738 11.5376 34.1738 12.0923V14.7729C34.1738 15.3266 34.6238 15.7788 35.1783 15.7788C35.7308 15.7788 36.1829 15.3266 36.1829 14.7729V12.9799C36.9624 12.7971 37.6776 12.4008 38.2575 11.8208C39.0793 10.9987 39.5325 9.90513 39.5335 8.74074C39.5346 7.57741 39.0814 6.48276 38.2596 5.65966Z" fill="#F06C00"/>
<path d="M35.2278 16.7273C34.6008 16.7273 34.0908 17.0937 34.0908 17.5461V18.6358C34.0908 19.0873 34.6008 19.4546 35.2278 19.4546C35.8524 19.4546 36.3635 19.0873 36.3635 18.6358V17.5461C36.3635 17.0937 35.8524 16.7273 35.2278 16.7273Z" fill="#F06C00"/>
</svg>
