<svg width="143" height="151" viewBox="0 0 143 151" fill="none" xmlns="http://www.w3.org/2000/svg">
<path d="M106.966 0.648549C106.553 0.234779 105.985 0 105.405 0H49.3871C48.8015 0 48.2322 0.237104 47.8208 0.648549C47.4072 1.05767 47.1748 1.62718 47.1748 2.21065V12.1923C47.1748 13.4127 48.1648 14.4076 49.3871 14.4076C50.6025 14.4076 51.5972 13.4127 51.5972 12.1923V4.42362H103.195V47.1884H75.9213C75.6425 47.1884 75.3589 47.2442 75.0987 47.3464L63.3886 52.0281V49.399C63.3886 48.8202 63.1539 48.2507 62.7425 47.8369C62.3312 47.4231 61.7595 47.1884 61.1786 47.1884H51.5972V21.0372C51.5972 19.8214 50.6025 18.8312 49.3871 18.8312C48.1648 18.8312 47.1748 19.8214 47.1748 21.0372V49.399C47.1748 49.9848 47.4095 50.5543 47.8208 50.9658C48.2322 51.3795 48.8015 51.612 49.3848 51.612H58.9685V55.2964C58.9685 56.031 59.3311 56.7144 59.9376 57.1281C60.3071 57.3722 60.7347 57.507 61.1786 57.507C61.4598 57.507 61.7363 57.4536 61.9989 57.349L76.3489 51.612H105.407C105.988 51.612 106.555 51.3772 106.969 50.9658C107.384 50.5543 107.617 49.9848 107.617 49.399V2.21065C107.617 1.62718 107.382 1.05767 106.966 0.648549Z" fill="#053C7B"/>
<path d="M138.575 136.992V146.576H101.718V139.94C101.718 138.722 100.728 137.729 99.5084 137.729H84.7657C83.5456 137.729 82.5557 138.722 82.5557 139.94V146.576H78.1333V136.992C78.1333 133.333 81.1079 130.356 84.7657 130.356H92.8366L99.6037 135.769C99.6223 135.783 99.6455 135.795 99.6618 135.809C99.7246 135.858 99.7896 135.9 99.857 135.942C99.8989 135.965 99.936 135.988 99.9755 136.009C100.041 136.041 100.108 136.067 100.171 136.093C100.217 136.111 100.257 136.132 100.306 136.144C100.375 136.167 100.452 136.183 100.526 136.2C100.563 136.207 100.601 136.218 100.64 136.225C100.754 136.244 100.868 136.253 100.984 136.253C101.061 136.253 101.137 136.248 101.216 136.241C101.23 136.239 101.244 136.237 101.261 136.234C101.321 136.227 101.381 136.218 101.44 136.204C101.467 136.2 101.488 136.19 101.516 136.183C101.565 136.172 101.612 136.16 101.658 136.144C101.688 136.134 101.721 136.123 101.751 136.111C101.77 136.107 101.788 136.097 101.807 136.09L108.253 133.512L113.266 136.018C113.298 136.034 113.333 136.046 113.368 136.062C113.408 136.079 113.447 136.097 113.489 136.114C113.542 136.134 113.598 136.148 113.654 136.162C113.682 136.169 113.705 136.181 113.733 136.186C113.814 136.207 113.889 136.22 113.97 136.232C113.977 136.232 113.984 136.234 113.991 136.234C114.077 136.246 114.165 136.251 114.251 136.251C114.356 136.251 114.458 136.244 114.56 136.23C114.607 136.223 114.649 136.211 114.697 136.202C114.751 136.188 114.807 136.179 114.862 136.162C114.907 136.148 114.951 136.13 114.997 136.116C115.051 136.093 115.109 136.074 115.16 136.053C115.197 136.034 115.237 136.014 115.274 135.993C115.332 135.962 115.392 135.935 115.443 135.897C115.455 135.89 115.469 135.886 115.483 135.876L123.765 130.351H131.941C135.598 130.351 138.573 133.324 138.575 136.983C138.575 136.988 138.575 136.99 138.575 136.992ZM97.2961 146.576H86.978V142.153H97.2961V146.576ZM106.143 127.31V129.593L101.361 131.506L95.8228 127.078V124.149C98.9275 125.883 102.423 126.992 106.143 127.31ZM120.886 124.151L120.881 126.959L114.091 131.49L110.563 129.726V127.31C114.284 126.992 117.784 125.883 120.886 124.151ZM86.978 101.608V93.4697L91.821 87.0167C94.5446 88.3719 100.078 90.6686 106.218 90.6686C112.766 90.6686 122.517 88.0093 126.538 86.8261L129.731 93.214V101.608C129.731 113.393 120.14 122.98 108.353 122.98C96.5687 122.982 86.978 113.396 86.978 101.608ZM91.2888 69.743C97.1845 63.0622 108.028 62.5043 117.732 62.5043C118.667 62.5043 119.591 62.509 120.495 62.5136C120.628 62.5136 120.753 62.516 120.881 62.516V72.1094C120.881 72.7184 121.123 73.3042 121.571 73.718C122.013 74.1387 122.601 74.3526 123.21 74.3177C123.414 74.3037 126.328 74.2712 128.373 76.7678C129.882 78.6088 130.635 81.4355 130.618 85.099L129.656 83.1766C129.171 82.2026 128.046 81.726 127.005 82.0608C126.877 82.1026 113.775 86.2496 106.218 86.2496C98.967 86.2496 92.4066 82.3188 92.3416 82.2793C91.3702 81.6842 90.1083 81.9283 89.4228 82.8395L86.504 86.7331C86.3227 79.2504 87.9285 73.5529 91.2888 69.743ZM131.938 125.93H125.306L125.308 121.034C130.723 116.301 134.153 109.349 134.153 101.61V93.1256C135.877 84.4318 135.085 77.9835 131.79 73.9644C129.712 71.4306 127.139 70.4659 125.304 70.1033V60.3146C125.304 59.0919 124.314 58.1016 123.096 58.1016C122.257 58.1016 121.395 58.097 120.519 58.0923C119.603 58.0877 118.671 58.083 117.732 58.083C107.061 58.083 95.0861 58.7572 87.9703 66.8187C82.8554 72.6185 81.08 81.1821 82.5557 92.9978V101.613C82.5557 109.353 85.9834 116.308 91.4004 121.041V125.932H84.768C78.6724 125.932 73.7109 130.897 73.7109 136.995V148.789C73.7109 150.01 74.7009 151 75.921 151H84.768H99.5108H140.788C142.008 151 143 150.01 143 148.789V137.006C143 137.001 143 136.999 143 136.995C142.998 130.893 138.039 125.93 131.938 125.93Z" fill="#053C7B"/>
<path d="M64.8644 136.993V146.577H4.42236V136.993C4.42236 133.334 7.39694 130.356 11.0547 130.356H20.8128C21.8748 137.032 27.6706 142.153 34.6422 142.153C41.6093 142.153 47.405 137.032 48.4694 130.356H58.2274C61.8829 130.356 64.8575 133.329 64.8598 136.988C64.8644 136.988 64.8644 136.991 64.8644 136.993ZM44.226 125.561L44.2236 128.141C44.2236 133.427 39.9268 137.728 34.6446 137.728C29.3577 137.728 25.0632 133.427 25.0632 128.141V125.561C28.0238 126.751 31.2586 127.407 34.6446 127.407C38.0281 127.407 41.263 126.751 44.226 125.561ZM13.2671 101.609V88.2193L22.9972 83.354L56.022 95.1534V101.606C56.022 113.392 46.4313 122.978 34.6469 122.978C22.8578 122.983 13.2671 113.396 13.2671 101.609ZM17.3153 65.8827L22.1955 68.2072C22.8485 68.521 23.6154 68.4862 24.2475 68.1282C24.3335 68.0794 32.9504 63.1978 41.83 63.1978C54.4929 63.1978 61.2252 73.0679 61.8643 92.5453L23.5921 78.8746C23.3505 78.7886 23.0995 78.7421 22.8485 78.7421C22.5092 78.7421 22.1722 78.8211 21.8632 78.9792L13.0765 83.3726C12.7512 72.2915 15.8187 67.5331 17.3153 65.8827ZM58.232 125.93H48.6506L48.653 123.264C55.7432 118.662 60.4444 110.674 60.4444 101.611V96.7341L63.3841 97.7871C63.6258 97.8731 63.8791 97.915 64.1277 97.915C64.5786 97.915 65.0248 97.7778 65.4036 97.5105C65.9915 97.0967 66.3401 96.4226 66.3401 95.702C66.3401 82.4288 63.7838 72.5727 58.7433 66.4057C54.6068 61.3405 48.9156 58.7742 41.83 58.7742C33.5709 58.7742 25.8347 62.3215 23.0879 63.7325L17.9079 61.2638C17.2456 60.95 16.4787 60.9825 15.8466 61.3475C14.9589 61.8612 7.24124 66.9357 8.84705 86.9384V101.611C8.84705 110.674 13.5483 118.664 20.6385 123.264V125.93H11.0571C4.96151 125.93 0 130.893 0 136.993V148.788C0 150.008 0.989977 150.998 2.21002 150.998H67.0744C68.2968 150.998 69.2868 150.008 69.2868 148.788V137.005C69.2868 137 69.2868 136.998 69.2868 136.993C69.2868 130.893 64.3276 125.93 58.232 125.93Z" fill="#053C7B"/>
<path d="M84.1704 11.6511C82.3624 9.8426 79.9571 8.84537 77.3962 8.84305C74.8306 8.84537 72.4277 9.8426 70.6198 11.6511C68.8094 13.4619 67.8125 15.8678 67.8125 18.4295C67.8125 19.6499 68.8048 20.6401 70.0248 20.6401C71.2402 20.6401 72.2349 19.6499 72.2349 18.4295V18.4248C72.2395 17.0487 72.774 15.7563 73.7454 14.7823C74.7214 13.8106 76.0158 13.2713 77.3939 13.269C78.7696 13.2713 80.0617 13.8106 81.0378 14.7823C82.0138 15.7563 82.5483 17.0534 82.5529 18.4272C82.5483 19.8079 82.0138 21.1027 81.0378 22.0767C80.071 23.0414 78.7859 23.5784 77.4195 23.5877C77.4102 23.5877 77.4009 23.5877 77.3916 23.5877C76.1715 23.5877 75.1816 24.5826 75.1816 25.803V31.7003C75.1816 32.9184 76.1715 33.9133 77.3916 33.9133C78.607 33.9133 79.6016 32.9184 79.6016 31.7003V27.7556C81.3166 27.3534 82.8899 26.4817 84.1657 25.2056C85.9737 23.3971 86.9707 20.9911 86.973 18.4295C86.9753 15.8702 85.9783 13.4619 84.1704 11.6511Z" fill="#AA4C03"/>
<path d="M77.3959 35.3892C76.1759 35.3892 75.1836 36.3794 75.1836 37.6021V40.5473C75.1836 41.7677 76.1759 42.7603 77.3959 42.7603C78.6113 42.7603 79.606 41.7677 79.606 40.5473V37.6021C79.606 36.3794 78.6113 35.3892 77.3959 35.3892Z" fill="#AA4C03"/>
</svg>
