<svg width="71" height="61" viewBox="0 0 71 61" fill="none" xmlns="http://www.w3.org/2000/svg">
<g clip-path="url(#clip0)">
<path d="M64.0451 2.39C64.6951 1.317 66.1371 0.951003 67.2621 1.571C67.6191 1.768 67.9141 2.05 68.1211 2.39H64.0451ZM61.3731 3.513V39.438H56.6621V41.684H61.0561C60.6351 42.378 59.8591 42.806 59.0181 42.807H55.4861V41.684H53.1321V55.814L48.0761 50.995C47.6161 50.557 46.8721 50.557 46.4111 50.995L41.3561 55.814V41.684H39.0001V42.807H4.85407C4.01207 42.806 3.23707 42.378 2.81607 41.684H8.38707H37.8241V39.438H9.56307V3.513C9.56307 2.273 10.6171 1.267 11.9171 1.267H62.0261C61.6041 1.948 61.3771 2.722 61.3731 3.513ZM66.0821 -0.977997H11.9181C9.31707 -0.977997 7.20907 1.034 7.20907 3.513V39.438H1.32107C0.672066 39.438 0.143066 39.941 0.143066 40.561C0.143066 43.041 2.25107 45.052 4.85307 45.052H39.0001V58.524C39.0001 59.144 39.5271 59.646 40.1781 59.646C40.4911 59.646 40.7891 59.528 41.0101 59.318L47.2421 53.376L53.4751 59.318C53.6961 59.528 53.9961 59.647 54.3071 59.647C54.4621 59.647 54.6151 59.619 54.7571 59.561C55.1971 59.387 55.4851 58.978 55.4851 58.524V45.052H59.0171C61.6191 45.052 63.7271 43.041 63.7271 40.561V4.635H69.6141C70.2651 4.635 70.7931 4.133 70.7931 3.513C70.7931 1.034 68.6841 -0.977997 66.0821 -0.977997Z" fill="#1765AB"/>
<path d="M54.4588 32.127L55.6698 34.19L53.4188 35.173C53.0458 35.337 52.7888 35.674 52.7398 36.062L52.4508 38.413L50.0158 37.954C49.6148 37.875 49.2008 38.002 48.9228 38.291L47.2408 40.029L45.5608 38.293C45.3368 38.063 45.0238 37.933 44.6958 37.933C44.6178 37.932 44.5428 37.941 44.4668 37.955L42.0328 38.414L41.7418 36.063C41.6948 35.675 41.4368 35.338 41.0638 35.174L38.8138 34.191L40.0248 32.128C40.2278 31.786 40.2318 31.37 40.0248 31.03V31.035L38.8138 28.973L41.0638 27.989C41.4368 27.826 41.6948 27.489 41.7418 27.099L42.0328 24.749L44.4668 25.208C44.8668 25.287 45.2828 25.159 45.5608 24.872L47.2408 23.13L48.9228 24.866C49.1998 25.154 49.6138 25.282 50.0158 25.203L52.4508 24.744L52.7398 27.093C52.7888 27.483 53.0458 27.82 53.4188 27.984L55.6698 28.967L54.4588 31.029C54.2578 31.371 54.2578 31.787 54.4588 32.127ZM58.3428 34.157L56.8348 31.581L58.3488 29.006C58.6678 28.466 58.4668 27.781 57.9008 27.477C57.8728 27.462 57.8428 27.449 57.8128 27.434L55.0028 26.207L54.6398 23.277C54.5628 22.662 53.9768 22.221 53.3318 22.295C53.3018 22.298 53.2708 22.303 53.2418 22.308L50.2068 22.882L48.1068 20.714C47.6358 20.259 46.8688 20.253 46.3908 20.701C46.3868 20.706 46.3818 20.71 46.3778 20.714L44.2778 22.882L41.2428 22.308C40.6038 22.188 39.9848 22.584 39.8578 23.193C39.8518 23.22 39.8478 23.25 39.8438 23.278L39.4808 26.208L36.6708 27.437C36.0788 27.696 35.8198 28.362 36.0898 28.925C36.1038 28.953 36.1188 28.982 36.1348 29.008L37.6488 31.581L36.1348 34.155C35.8168 34.695 36.0178 35.38 36.5828 35.683C36.6108 35.699 36.6408 35.713 36.6708 35.726L39.4808 36.955L39.8438 39.887C39.9208 40.503 40.5058 40.944 41.1528 40.87C41.1818 40.866 41.2128 40.862 41.2428 40.856L44.2778 40.283L46.3778 42.45C46.8188 42.906 47.5638 42.932 48.0418 42.512C48.0628 42.492 48.0848 42.472 48.1058 42.45L50.2058 40.283L53.2408 40.856C53.5628 40.919 53.8968 40.848 54.1618 40.663C54.4248 40.477 54.5958 40.197 54.6328 39.887L54.9958 36.957L57.8058 35.728C58.3978 35.47 58.6578 34.803 58.3868 34.241C58.3738 34.211 58.3588 34.183 58.3428 34.157Z" fill="#F06C00"/>
<path d="M47.242 34.948C45.292 34.948 43.711 33.441 43.711 31.58C43.711 29.72 45.292 28.212 47.242 28.212C49.193 28.212 50.775 29.72 50.775 31.58C50.775 33.441 49.193 34.948 47.242 34.948ZM47.242 25.966C43.992 25.966 41.355 28.48 41.355 31.579C41.359 34.678 43.992 37.189 47.242 37.193C50.494 37.193 53.13 34.679 53.13 31.579C53.13 28.48 50.494 25.966 47.242 25.966Z" fill="#F06C00"/>
<path d="M44.8889 5.758H26.0479V8.003H44.8889V5.758Z" fill="#1765AB"/>
<path d="M56.6619 12.494H14.2729V14.739H56.6619V12.494Z" fill="#1765AB"/>
<path d="M56.6619 16.985H14.2729V19.23H56.6619V16.985Z" fill="#1765AB"/>
<path d="M30.7582 31.58H15.4512V33.825H30.7582V31.58Z" fill="#1765AB"/>
</g>
<defs>
<clipPath id="clip0">
<rect width="70.648" height="60.625" fill="white"/>
</clipPath>
</defs>
</svg>
