<svg width="71" height="61" viewBox="0 0 71 61" fill="none" xmlns="http://www.w3.org/2000/svg">
<path d="M64.0451 3.39C64.6951 2.317 66.1371 1.951 67.2621 2.571C67.6191 2.768 67.9141 3.05 68.1211 3.39H64.0451ZM61.3731 4.513V40.438H56.6621V42.684H61.0561C60.6351 43.378 59.8591 43.806 59.0181 43.807H55.4861V42.684H53.1321V56.814L48.0761 51.995C47.6161 51.557 46.8721 51.557 46.4111 51.995L41.3561 56.814V42.684H39.0001V43.807H4.85407C4.01207 43.806 3.23707 43.378 2.81607 42.684H8.38707H37.8241V40.438H9.56307V4.513C9.56307 3.273 10.6171 2.267 11.9171 2.267H62.0261C61.6041 2.948 61.3771 3.722 61.3731 4.513ZM66.0821 0.0220032H11.9181C9.31707 0.0220032 7.20907 2.034 7.20907 4.513V40.438H1.32107C0.672066 40.438 0.143066 40.941 0.143066 41.561C0.143066 44.041 2.25107 46.052 4.85307 46.052H39.0001V59.524C39.0001 60.144 39.5271 60.646 40.1781 60.646C40.4911 60.646 40.7891 60.528 41.0101 60.318L47.2421 54.376L53.4751 60.318C53.6961 60.528 53.9961 60.647 54.3071 60.647C54.4621 60.647 54.6151 60.619 54.7571 60.561C55.1971 60.387 55.4851 59.978 55.4851 59.524V46.052H59.0171C61.6191 46.052 63.7271 44.041 63.7271 41.561V5.635H69.6141C70.2651 5.635 70.7931 5.133 70.7931 4.513C70.7931 2.034 68.6841 0.0220032 66.0821 0.0220032Z" fill="#1765AB"/>
<path d="M54.4588 33.127L55.6698 35.19L53.4188 36.173C53.0458 36.337 52.7888 36.674 52.7398 37.062L52.4508 39.413L50.0158 38.954C49.6148 38.875 49.2008 39.002 48.9228 39.291L47.2408 41.029L45.5608 39.293C45.3368 39.063 45.0238 38.933 44.6958 38.933C44.6178 38.932 44.5428 38.941 44.4668 38.955L42.0328 39.414L41.7418 37.063C41.6948 36.675 41.4368 36.338 41.0638 36.174L38.8138 35.191L40.0248 33.128C40.2278 32.786 40.2318 32.37 40.0248 32.03V32.035L38.8138 29.973L41.0638 28.989C41.4368 28.826 41.6948 28.489 41.7418 28.099L42.0328 25.749L44.4668 26.208C44.8668 26.287 45.2828 26.159 45.5608 25.872L47.2408 24.13L48.9228 25.866C49.1998 26.154 49.6138 26.282 50.0158 26.203L52.4508 25.744L52.7398 28.093C52.7888 28.483 53.0458 28.82 53.4188 28.984L55.6698 29.967L54.4588 32.029C54.2578 32.371 54.2578 32.787 54.4588 33.127ZM58.3428 35.157L56.8348 32.581L58.3488 30.006C58.6678 29.466 58.4668 28.781 57.9008 28.477C57.8728 28.462 57.8428 28.449 57.8128 28.434L55.0028 27.207L54.6398 24.277C54.5628 23.662 53.9768 23.221 53.3318 23.295C53.3018 23.298 53.2708 23.303 53.2418 23.308L50.2068 23.882L48.1068 21.714C47.6358 21.259 46.8688 21.253 46.3908 21.701C46.3868 21.706 46.3818 21.71 46.3778 21.714L44.2778 23.882L41.2428 23.308C40.6038 23.188 39.9848 23.584 39.8578 24.193C39.8518 24.22 39.8478 24.25 39.8438 24.278L39.4808 27.208L36.6708 28.437C36.0788 28.696 35.8198 29.362 36.0898 29.925C36.1038 29.953 36.1188 29.982 36.1348 30.008L37.6488 32.581L36.1348 35.155C35.8168 35.695 36.0178 36.38 36.5828 36.683C36.6108 36.699 36.6408 36.713 36.6708 36.726L39.4808 37.955L39.8438 40.887C39.9208 41.503 40.5058 41.944 41.1528 41.87C41.1818 41.866 41.2128 41.862 41.2428 41.856L44.2778 41.283L46.3778 43.45C46.8188 43.906 47.5638 43.932 48.0418 43.512C48.0628 43.492 48.0848 43.472 48.1058 43.45L50.2058 41.283L53.2408 41.856C53.5628 41.919 53.8968 41.848 54.1618 41.663C54.4248 41.477 54.5958 41.197 54.6328 40.887L54.9958 37.957L57.8058 36.728C58.3978 36.47 58.6578 35.803 58.3868 35.241C58.3738 35.211 58.3588 35.183 58.3428 35.157Z" fill="#F06C00"/>
<path d="M47.242 35.948C45.292 35.948 43.711 34.441 43.711 32.58C43.711 30.72 45.292 29.212 47.242 29.212C49.193 29.212 50.775 30.72 50.775 32.58C50.775 34.441 49.193 35.948 47.242 35.948ZM47.242 26.966C43.992 26.966 41.355 29.48 41.355 32.579C41.359 35.678 43.992 38.189 47.242 38.193C50.494 38.193 53.13 35.679 53.13 32.579C53.13 29.48 50.494 26.966 47.242 26.966Z" fill="#F06C00"/>
<path d="M44.8889 6.758H26.0479V9.003H44.8889V6.758Z" fill="#1765AB"/>
<path d="M56.6619 13.494H14.2729V15.739H56.6619V13.494Z" fill="#1765AB"/>
<path d="M56.6619 17.985H14.2729V20.23H56.6619V17.985Z" fill="#1765AB"/>
<path d="M30.7582 32.58H15.4512V34.825H30.7582V32.58Z" fill="#1765AB"/>
</svg>
