<?xml version="1.0" encoding="utf-8"?>
<!-- Generator: Adobe Illustrator 16.0.3, SVG Export Plug-In . SVG Version: 6.00 Build 0)  -->
<!DOCTYPE svg PUBLIC "-//W3C//DTD SVG 1.1//EN" "http://www.w3.org/Graphics/SVG/1.1/DTD/svg11.dtd">
<svg version="1.1" id="Camada_1" xmlns="http://www.w3.org/2000/svg" xmlns:xlink="http://www.w3.org/1999/xlink" x="0px" y="0px"
	 width="25px" height="25px" viewBox="-6.5 -6.5 25 25" enable-background="new -6.5 -6.5 25 25" xml:space="preserve">
<polygon fill="#FFFFFF" points="-3.601,18 13.344,18 4.869,9.528 "/>
<path fill="#FFFFFF" d="M6.711,2.334C6.202,1.475,5.931,0.462,5.929-0.6c0-0.976,0.271-1.884,0.708-2.694h-10.6
	c-1.024,0-1.857,0.831-1.857,1.856v17.294L7.068,2.967C6.953,2.746,6.836,2.538,6.711,2.334z M1.485,3.999
	C0.94,4.551,0.316,4.89-0.761,4.89c-1.657,0-2.998-1.365-2.998-3.049c0-1.685,1.34-3.05,2.998-3.05c0.825,0,1.547,0.245,2.109,0.786
	h0.004L0.505,0.419C0.166,0.104-0.267-0.04-0.767-0.04c-1.016,0-1.843,0.84-1.843,1.878c0,1.036,0.825,1.877,1.843,1.877
	c0.666,0,1.05-0.21,1.384-0.548c0.189-0.189,0.305-0.435,0.375-0.705h-1.717V1.387h1.535h0.225h1.169
	C2.216,1.512,2.224,1.639,2.224,1.77C2.224,2.611,2.027,3.447,1.485,3.999z M0.809,0.797L0.809,0.797
	C0.809,0.797,0.809,0.795,0.809,0.797L0.809,0.797z"/>
<path fill="#FFFFFF" d="M14.924,6.437c-0.193,0.305-0.389,0.617-0.572,0.93c-0.693,1.197-1.363,2.605-1.59,4.774
	c-0.08,0.269-0.256,0.409-0.443,0.469l3.162,3.162V5.594c-0.086,0.123-0.184,0.254-0.264,0.373L14.924,6.437z"/>
<path fill="#FFFFFF" d="M12.152-6c-3.129,0-5.67,2.421-5.67,5.4c0.002,0.975,0.237,1.867,0.7,2.646
	C7.34,2.302,7.486,2.555,7.613,2.813c0.105,0.152,0.221,0.333,0.328,0.519c0.111,0.149,0.23,0.323,0.344,0.5
	C8.746,4.449,9.172,5.073,9.57,5.657l0.213,0.334c0.225,0.356,0.461,0.729,0.676,1.098c0.723,1.246,1.42,2.717,1.664,4.992
	c0.053,0.083,0.074,0.047,0.102-0.051c0.227-2.219,0.93-3.688,1.65-4.941c0.188-0.318,0.387-0.637,0.582-0.947l0.299-0.475
	c0.412-0.605,0.836-1.223,1.301-1.851c0.109-0.167,0.227-0.339,0.354-0.511c0.09-0.157,0.209-0.339,0.328-0.521
	c0.109-0.228,0.258-0.482,0.418-0.74C17.594,1.299,17.82,0.408,17.82-0.6C17.818-3.579,15.277-6,12.152-6z M12.152,1.37
	c-1.141,0-2.068-0.883-2.068-1.972c0-1.091,0.928-1.973,2.068-1.973c1.139,0,2.063,0.882,2.063,1.973
	C14.219,0.487,13.293,1.37,12.152,1.37z"/>
<path fill="#FFFFFF" d="M9.98,7.363C9.77,7.004,9.539,6.637,9.318,6.285L9.109,5.958C9.025,5.834,8.92,5.694,8.832,5.565
	L7.049,7.349l4.469,4.466C11.26,9.848,10.637,8.497,9.98,7.363z"/>
</svg>
