<?xml version="1.0" encoding="utf-8"?>
<!-- Generator: Adobe Illustrator 16.0.3, SVG Export Plug-In . SVG Version: 6.00 Build 0)  -->
<!DOCTYPE svg PUBLIC "-//W3C//DTD SVG 1.1//EN" "http://www.w3.org/Graphics/SVG/1.1/DTD/svg11.dtd">
<svg version="1.1" id="Camada_1" xmlns="http://www.w3.org/2000/svg" xmlns:xlink="http://www.w3.org/1999/xlink" x="0px" y="0px"
	 width="61.297px" height="68.107px" viewBox="0 0 61.297 68.107" enable-background="new 0 0 61.297 68.107" xml:space="preserve">
<g>
	<g>
		<defs>
			<polygon id="SVGID_4_" points="-248.94,11.654 -248.94,74.564 -212.179,74.564 -212.179,29.902 -200.751,11.654 			"/>
		</defs>
		<clipPath id="SVGID_1_">
			<use xlink:href="#SVGID_4_"  overflow="visible"/>
		</clipPath>
		<path clip-path="url(#SVGID_1_)" fill="#FFFFFF" d="M-3.038,66.938c-0.583,0-1.108-0.108-1.572-0.325
			c-0.465-0.216-0.859-0.518-1.181-0.9c-0.321-0.386-0.567-0.842-0.739-1.376c-0.17-0.531-0.253-1.114-0.253-1.746v-0.632
			c0-0.581,0.073-1.147,0.225-1.699c0.149-0.553,0.378-1.046,0.685-1.479c0.306-0.433,0.69-0.779,1.154-1.042
			c0.463-0.262,1.008-0.393,1.633-0.393c0.561,0,1.051,0.097,1.471,0.291c0.419,0.193,0.77,0.466,1.047,0.819
			c0.278,0.354,0.486,0.778,0.625,1.277c0.139,0.498,0.209,1.052,0.209,1.66v1.145h-5.358c0,0.007,0,0.007-0.001,0
			c-0.006-0.006-0.006-0.006-0.006,0c0.007,0.41,0.058,0.805,0.158,1.188c0.1,0.38,0.252,0.713,0.456,0.998
			c0.202,0.285,0.456,0.51,0.763,0.676c0.305,0.164,0.664,0.238,1.074,0.221c0.4-0.016,0.798-0.092,1.191-0.227
			c0.396-0.132,0.764-0.345,1.102-0.636l0.504,1.094c-0.467,0.394-0.975,0.672-1.522,0.837C-1.921,66.855-2.477,66.938-3.038,66.938
			 M-3.176,58.679c-0.261,0-0.501,0.065-0.721,0.196c-0.219,0.132-0.41,0.311-0.575,0.538c-0.164,0.229-0.298,0.496-0.404,0.804
			c-0.106,0.307-0.172,0.64-0.199,0.999c0.004,0.005,0.008,0.021,0.008,0.042v0.043h3.668V60.95c0-0.324-0.04-0.625-0.113-0.901
			c-0.078-0.274-0.188-0.516-0.339-0.721c-0.149-0.205-0.336-0.364-0.559-0.479C-2.633,58.736-2.887,58.679-3.176,58.679"/>
	</g>
</g>
<path fill="#FDAE66" d="M29.514,11.351c-8.764,0-15.893,5.603-15.893,12.487c0,6.884,7.129,12.486,15.893,12.486
	c2.475,0.006,4.93-0.456,7.232-1.362l-0.844-2.108c-2.035,0.799-4.203,1.207-6.389,1.2c-7.512,0-13.622-4.584-13.622-10.216
	c0-5.633,6.11-10.217,13.622-10.217c7.511,0,13.622,4.584,13.622,10.217c-0.068,2.472-1.171,4.802-3.041,6.42l1.541,1.666
	c2.338-2.046,3.706-4.981,3.771-8.086C45.406,16.953,38.276,11.351,29.514,11.351"/>
<path fill="#649BE1" d="M54.486,65.838H13.621v-2.271h34.055c2.508,0,4.541-2.033,4.541-4.541V11.351h2.27V65.838z M4.541,61.297
	c-1.254,0-2.271-1.017-2.271-2.271v-2.27h40.865v2.27c-0.001,0.797,0.21,1.581,0.609,2.271H4.541z M9.08,6.811h6.812v3.405
	c0,0.627-0.508,1.135-1.135,1.135s-1.136-0.508-1.136-1.135V9.081h-2.27v1.135c0,1.881,1.524,3.405,3.405,3.405
	s3.405-1.524,3.405-3.405V6.811h31.783v52.216c0,1.254-1.016,2.271-2.27,2.271s-2.27-1.017-2.27-2.271v-3.405
	c0-0.627-0.51-1.135-1.135-1.135H9.08V6.811z M12.486,3.973c0-0.94,0.763-1.703,1.703-1.703s1.702,0.763,1.702,1.703V4.54h-3.405
	V3.973z M55.621,9.081h-3.404V5.676c0-0.627-0.509-1.136-1.137-1.136H18.162V3.973C18.162,1.778,16.384,0,14.189,0
	c-2.195,0-3.974,1.778-3.974,3.973V4.54H7.945c-0.627,0-1.135,0.509-1.135,1.136v48.811H1.135C0.508,54.486,0,54.994,0,55.621v3.405
	c0,2.508,2.033,4.541,4.541,4.541h6.811v3.405c0,0.627,0.508,1.135,1.135,1.135h43.135c0.628,0,1.136-0.508,1.136-1.135V10.216
	C56.757,9.589,56.249,9.081,55.621,9.081"/>
<rect x="17.027" y="39.729" fill="#649BE1" width="2.27" height="2.271"/>
<rect x="21.568" y="39.729" fill="#649BE1" width="24.973" height="2.271"/>
<rect x="12.486" y="44.27" fill="#649BE1" width="34.054" height="2.271"/>
<rect x="12.486" y="48.811" fill="#649BE1" width="29.514" height="2.271"/>
<rect x="59.027" y="48.811" fill="#649BE1" width="2.27" height="14.757"/>
<rect x="59.027" y="65.838" fill="#649BE1" width="2.27" height="2.27"/>
<rect x="2.27" y="15.892" fill="#649BE1" width="2.271" height="14.757"/>
<rect x="2.27" y="11.351" fill="#649BE1" width="2.271" height="2.27"/>
<path fill="#FDAE66" d="M22.653,27.136h2.05v-5.453h-1.769V20.33c0.516-0.099,0.951-0.218,1.309-0.356
	c0.355-0.139,0.703-0.307,1.039-0.505h1.605v7.667h1.768v1.768h-6.002V27.136z"/>
<path fill="#FDAE66" d="M33.38,29.082c-0.505,0-0.966-0.107-1.382-0.32s-0.771-0.527-1.062-0.943
	c-0.293-0.416-0.521-0.931-0.684-1.545c-0.164-0.614-0.246-1.322-0.246-2.125c0-0.802,0.082-1.505,0.246-2.109
	c0.163-0.604,0.391-1.111,0.684-1.522c0.291-0.411,0.646-0.719,1.062-0.922c0.416-0.202,0.877-0.305,1.382-0.305
	c0.506,0,0.966,0.103,1.382,0.305c0.416,0.203,0.771,0.511,1.063,0.922s0.521,0.918,0.683,1.522
	c0.164,0.604,0.246,1.308,0.246,2.109c0,0.803-0.082,1.511-0.246,2.125c-0.162,0.614-0.391,1.129-0.683,1.545
	s-0.646,0.73-1.063,0.943S33.886,29.082,33.38,29.082z M33.38,27.388c0.188,0,0.361-0.047,0.52-0.141
	c0.158-0.095,0.298-0.266,0.416-0.513c0.119-0.248,0.211-0.58,0.275-0.996s0.097-0.945,0.097-1.59c0-0.644-0.032-1.171-0.097-1.582
	s-0.156-0.732-0.275-0.966c-0.118-0.232-0.258-0.394-0.416-0.482c-0.158-0.09-0.332-0.134-0.52-0.134
	c-0.178,0-0.347,0.044-0.505,0.134c-0.159,0.089-0.298,0.25-0.416,0.482c-0.119,0.233-0.214,0.555-0.282,0.966
	c-0.07,0.411-0.104,0.938-0.104,1.582c0,0.645,0.034,1.174,0.104,1.59c0.068,0.416,0.163,0.748,0.282,0.996
	c0.118,0.247,0.257,0.418,0.416,0.513C33.033,27.341,33.202,27.388,33.38,27.388z"/>
</svg>
