<svg width="63" height="69" viewBox="0 0 63 69" fill="none" xmlns="http://www.w3.org/2000/svg">
<path d="M30.2973 11.351C21.5333 11.351 14.4043 16.954 14.4043 23.838C14.4043 30.722 21.5333 36.324 30.2973 36.324C32.7723 36.33 35.2273 35.868 37.5293 34.962L36.6853 32.854C34.6503 33.653 32.4823 34.061 30.2963 34.054C22.7843 34.054 16.6743 29.47 16.6743 23.838C16.6743 18.205 22.7843 13.621 30.2963 13.621C37.8073 13.621 43.9183 18.205 43.9183 23.838C43.8503 26.31 42.7473 28.64 40.8773 30.258L42.4183 31.924C44.7563 29.878 46.1243 26.943 46.1893 23.838C46.1893 16.953 39.0593 11.351 30.2973 11.351Z" fill="#F06C00"/>
<path d="M55.2692 65.838H14.4042V63.567H48.4592C50.9672 63.567 53.0002 61.534 53.0002 59.026V11.351H55.2702V65.838H55.2692ZM5.3242 61.297C4.0702 61.297 3.0532 60.28 3.0532 59.026V56.756H43.9182V59.026C43.9172 59.823 44.1282 60.607 44.5272 61.297H5.3242ZM9.8632 6.811H16.6752V10.216C16.6752 10.843 16.1672 11.351 15.5402 11.351C14.9132 11.351 14.4042 10.843 14.4042 10.216V9.081H12.1342V10.216C12.1342 12.097 13.6582 13.621 15.5392 13.621C17.4202 13.621 18.9442 12.097 18.9442 10.216V6.811H50.7272V59.027C50.7272 60.281 49.7112 61.298 48.4572 61.298C47.2032 61.298 46.1872 60.281 46.1872 59.027V55.622C46.1872 54.995 45.6772 54.487 45.0522 54.487H9.8632V6.811ZM13.2692 3.973C13.2692 3.033 14.0322 2.27 14.9722 2.27C15.9122 2.27 16.6742 3.033 16.6742 3.973V4.54H13.2692V3.973ZM56.4042 9.081H53.0002V5.676C53.0002 5.049 52.4912 4.54 51.8632 4.54H18.9452V3.973C18.9452 1.778 17.1672 0 14.9722 0C12.7772 0 10.9982 1.778 10.9982 3.973V4.54H8.7282C8.1012 4.54 7.5932 5.049 7.5932 5.676V54.487H1.9182C1.2912 54.486 0.783203 54.994 0.783203 55.621V59.026C0.783203 61.534 2.8162 63.567 5.3242 63.567H12.1352V66.972C12.1352 67.599 12.6432 68.107 13.2702 68.107H56.4052C57.0332 68.107 57.5412 67.599 57.5412 66.972V10.216C57.5402 9.589 57.0322 9.081 56.4042 9.081Z" fill="#1765AB"/>
<path d="M20.0801 39.729H17.8101V42H20.0801V39.729Z" fill="#1765AB"/>
<path d="M47.3241 39.729H22.3511V42H47.3241V39.729Z" fill="#1765AB"/>
<path d="M47.323 44.27H13.269V46.541H47.323V44.27Z" fill="#1765AB"/>
<path d="M42.783 48.811H13.269V51.082H42.783V48.811Z" fill="#1765AB"/>
<path d="M62.0801 48.811H59.8101V63.568H62.0801V48.811Z" fill="#1765AB"/>
<path d="M62.0801 65.838H59.8101V68.108H62.0801V65.838Z" fill="#1765AB"/>
<path d="M5.32422 15.892H3.05322V30.649H5.32422V15.892Z" fill="#1765AB"/>
<path d="M5.32422 11.351H3.05322V13.621H5.32422V11.351Z" fill="#1765AB"/>
<path d="M23.436 27.136H25.486V21.683H23.717V20.33C24.233 20.231 24.668 20.112 25.026 19.974C25.381 19.835 25.729 19.667 26.065 19.469H27.67V27.136H29.438V28.904H23.436V27.136Z" fill="#F06C00"/>
<path d="M34.374 28.791C33.869 28.791 33.408 28.684 32.992 28.471C32.576 28.258 32.221 27.944 31.93 27.528C31.637 27.112 31.409 26.597 31.246 25.983C31.082 25.369 31 24.661 31 23.858C31 23.056 31.082 22.353 31.246 21.749C31.409 21.145 31.637 20.638 31.93 20.227C32.221 19.816 32.576 19.508 32.992 19.305C33.408 19.103 33.869 19 34.374 19C34.88 19 35.34 19.103 35.756 19.305C36.172 19.508 36.527 19.816 36.819 20.227C37.111 20.638 37.34 21.145 37.502 21.749C37.666 22.353 37.748 23.057 37.748 23.858C37.748 24.661 37.666 25.369 37.502 25.983C37.34 26.597 37.111 27.112 36.819 27.528C36.527 27.944 36.173 28.258 35.756 28.471C35.339 28.684 34.88 28.791 34.374 28.791ZM34.374 27.097C34.562 27.097 34.735 27.05 34.894 26.956C35.052 26.861 35.192 26.69 35.31 26.443C35.429 26.195 35.521 25.863 35.585 25.447C35.649 25.031 35.682 24.502 35.682 23.857C35.682 23.213 35.65 22.686 35.585 22.275C35.52 21.864 35.429 21.543 35.31 21.309C35.192 21.077 35.052 20.915 34.894 20.827C34.736 20.737 34.562 20.693 34.374 20.693C34.196 20.693 34.027 20.737 33.869 20.827C33.71 20.916 33.571 21.077 33.453 21.309C33.334 21.542 33.239 21.864 33.171 22.275C33.101 22.686 33.067 23.213 33.067 23.857C33.067 24.502 33.101 25.031 33.171 25.447C33.239 25.863 33.334 26.195 33.453 26.443C33.571 26.69 33.71 26.861 33.869 26.956C34.027 27.05 34.196 27.097 34.374 27.097Z" fill="#F06C00"/>
</svg>
