<?xml version="1.0" encoding="utf-8"?>
<!-- Generator: Adobe Illustrator 16.0.3, SVG Export Plug-In . SVG Version: 6.00 Build 0)  -->
<!DOCTYPE svg PUBLIC "-//W3C//DTD SVG 1.1//EN" "http://www.w3.org/Graphics/SVG/1.1/DTD/svg11.dtd">
<svg version="1.1" id="Camada_1" xmlns="http://www.w3.org/2000/svg" xmlns:xlink="http://www.w3.org/1999/xlink" x="0px" y="0px"
	 width="16px" height="16px" viewBox="0 0 16 16" enable-background="new 0 0 16 16" xml:space="preserve">
<g>
	<path fill-rule="evenodd" clip-rule="evenodd" fill="#FFFFFF" d="M12.198,6.157c0,0.016,0.001,0.031,0,0.046
		c-0.025,0.199-0.033,0.402-0.082,0.594c-0.041,0.159-0.121,0.31-0.198,0.457c-0.158,0.305-0.37,0.571-0.625,0.801
		c-0.331,0.298-0.706,0.528-1.107,0.717c-0.349,0.165-0.713,0.29-1.084,0.39C8.691,9.275,8.276,9.357,7.853,9.396
		C7.464,9.432,7.076,9.469,6.684,9.45C6.19,9.427,5.696,9.429,5.206,9.356C4.993,9.325,4.778,9.303,4.565,9.262
		c-0.327-0.063-0.653-0.138-0.978-0.21c-0.161-0.036-0.32-0.077-0.479-0.119C2.875,8.872,2.644,8.809,2.41,8.749
		C2.336,8.73,2.317,8.751,2.342,8.821C2.41,9.011,2.479,9.201,2.55,9.39C2.598,9.52,2.647,9.648,2.697,9.777
		c0.054,0.141,0.109,0.281,0.162,0.422c0.069,0.182,0.137,0.364,0.205,0.545c0.085,0.225,0.173,0.449,0.259,0.673
		c0.068,0.18,0.137,0.359,0.206,0.538s0.136,0.359,0.204,0.539c0.069,0.184,0.136,0.369,0.206,0.554
		c0.068,0.182,0.139,0.363,0.208,0.544c0.071,0.185,0.141,0.369,0.211,0.553s0.14,0.368,0.21,0.553
		c0.063,0.167,0.124,0.336,0.193,0.501c0.011,0.025,0.062,0.052,0.091,0.048c0.165-0.024,0.329-0.056,0.492-0.088
		c0.186-0.037,0.372-0.075,0.558-0.115c0.228-0.049,0.457-0.095,0.684-0.149c0.203-0.049,0.405-0.107,0.607-0.165
		c0.172-0.049,0.344-0.1,0.514-0.154c0.158-0.051,0.314-0.107,0.471-0.163c0.188-0.067,0.38-0.124,0.563-0.204
		c0.324-0.14,0.646-0.284,0.96-0.444c0.331-0.168,0.658-0.347,0.974-0.542c0.432-0.267,0.835-0.576,1.214-0.918
		c0.47-0.422,0.882-0.892,1.219-1.429c0.238-0.38,0.431-0.781,0.595-1.197c0.056-0.143,0.081-0.299,0.146-0.437
		c0.083-0.177,0.089-0.368,0.119-0.551c0.039-0.234,0.03-0.477,0.034-0.715c0.001-0.108-0.01-0.216-0.024-0.322
		c-0.013-0.098-0.035-0.196-0.057-0.292c-0.054-0.245-0.097-0.494-0.171-0.732c-0.064-0.209-0.16-0.41-0.25-0.611
		c-0.147-0.325-0.33-0.633-0.551-0.912c-0.248-0.314-0.513-0.616-0.779-0.914c-0.101-0.113-0.189-0.246-0.346-0.298
		c-0.076-0.025-0.136,0.002-0.126,0.081c0.014,0.125,0.027,0.251,0.065,0.37c0.097,0.3,0.214,0.593,0.311,0.893
		C12.171,5.535,12.207,5.844,12.198,6.157z M6.082,4.77c0.009,0,0.017-0.001,0.025-0.001c0-0.159-0.011-0.319,0.003-0.477
		c0.016-0.181,0.043-0.363,0.085-0.54c0.048-0.196,0.128-0.382,0.235-0.555c0.113-0.184,0.24-0.354,0.413-0.481
		c0.25-0.185,0.533-0.303,0.829-0.394c0.325-0.099,0.659-0.146,0.995-0.157c0.458-0.016,0.916,0.001,1.37,0.065
		c0.319,0.044,0.638,0.088,0.958,0.116c0.108,0.01,0.222-0.025,0.331-0.048c0.046-0.01,0.082-0.054,0.051-0.1
		c-0.039-0.059-0.084-0.122-0.144-0.156c-0.109-0.064-0.23-0.111-0.348-0.163c-0.312-0.139-0.619-0.287-0.936-0.409
		c-0.313-0.121-0.637-0.215-0.956-0.32C8.542,1.001,8.079,0.906,7.611,0.838c-0.463-0.067-0.93-0.1-1.397-0.082
		C6.126,0.76,6.036,0.748,5.952,0.763c-0.271,0.046-0.541,0.1-0.809,0.157C4.794,0.993,4.464,1.12,4.152,1.29
		c-0.389,0.212-0.734,0.481-1.02,0.82c-0.237,0.278-0.434,0.583-0.6,0.91c-0.127,0.253-0.234,0.51-0.31,0.784
		C2.136,4.12,2.078,4.438,2.042,4.764c-0.064,0.57-0.051,1.14-0.007,1.71c0.015,0.176,0.044,0.352,0.07,0.527
		c0.031,0.203,0.062,0.406,0.099,0.607c0.036,0.196,0.084,0.39,0.121,0.587c0.025,0.131,0.072,0.187,0.19,0.208
		C2.797,8.452,3.08,8.5,3.363,8.55C3.659,8.603,3.954,8.658,4.25,8.71c0.328,0.058,0.657,0.115,0.984,0.172
		c0.207,0.036,0.413,0.073,0.62,0.11C6.224,9.06,6.592,9.128,6.962,9.194C7.027,9.206,7.095,9.21,7.161,9.213
		c0.081,0.002,0.108-0.036,0.083-0.112c-0.016-0.045-0.04-0.088-0.057-0.133C7.129,8.812,7.075,8.655,7.015,8.5
		C6.95,8.333,6.875,8.17,6.813,8.002c-0.08-0.216-0.157-0.434-0.224-0.654C6.504,7.076,6.421,6.803,6.356,6.525
		C6.282,6.208,6.219,5.888,6.169,5.566C6.127,5.303,6.109,5.035,6.082,4.77z M11.314,5.858c-0.023-0.11-0.053-0.275-0.094-0.438
		c-0.066-0.257-0.198-0.485-0.358-0.692c-0.419-0.542-0.956-0.925-1.61-1.137C8.938,3.491,8.615,3.42,8.283,3.465
		C8.1,3.49,7.91,3.512,7.744,3.583C7.383,3.739,7.08,3.971,6.925,4.353C6.854,4.527,6.802,4.705,6.795,4.896
		c-0.009,0.309,0.069,0.6,0.185,0.881c0.158,0.389,0.43,0.697,0.744,0.968C7.945,6.937,8.188,7.1,8.46,7.213
		c0.151,0.063,0.304,0.125,0.461,0.168c0.276,0.074,0.558,0.11,0.847,0.081c0.282-0.029,0.547-0.105,0.795-0.242
		c0.231-0.128,0.417-0.304,0.549-0.535C11.249,6.447,11.29,6.186,11.314,5.858z"/>
	<path fill-rule="evenodd" clip-rule="evenodd" d="M12.198,6.157c0.009-0.313-0.027-0.622-0.125-0.92
		c-0.097-0.3-0.214-0.593-0.311-0.893c-0.038-0.118-0.051-0.245-0.065-0.37c-0.009-0.078,0.051-0.106,0.126-0.081
		c0.157,0.052,0.246,0.185,0.346,0.298c0.267,0.298,0.531,0.6,0.779,0.914c0.221,0.279,0.404,0.587,0.551,0.912
		c0.09,0.201,0.186,0.401,0.25,0.611c0.074,0.238,0.117,0.487,0.171,0.732c0.021,0.097,0.044,0.194,0.057,0.292
		c0.014,0.106,0.025,0.214,0.024,0.322c-0.004,0.238,0.005,0.481-0.034,0.715c-0.03,0.184-0.037,0.375-0.119,0.551
		c-0.064,0.138-0.089,0.294-0.146,0.437c-0.165,0.416-0.357,0.816-0.595,1.197c-0.336,0.537-0.749,1.007-1.219,1.429
		c-0.379,0.342-0.782,0.651-1.214,0.918c-0.316,0.195-0.643,0.374-0.974,0.542c-0.314,0.16-0.637,0.304-0.96,0.444
		c-0.183,0.08-0.375,0.137-0.563,0.204c-0.157,0.055-0.313,0.111-0.471,0.163c-0.17,0.055-0.342,0.105-0.514,0.154
		c-0.202,0.058-0.404,0.116-0.607,0.165c-0.227,0.054-0.456,0.101-0.684,0.149c-0.186,0.04-0.372,0.078-0.558,0.115
		c-0.163,0.032-0.327,0.063-0.492,0.088c-0.029,0.004-0.08-0.023-0.091-0.048c-0.069-0.165-0.13-0.334-0.193-0.501
		c-0.07-0.185-0.14-0.369-0.21-0.553s-0.141-0.368-0.211-0.553c-0.069-0.181-0.14-0.362-0.208-0.544
		c-0.069-0.185-0.136-0.37-0.206-0.554c-0.067-0.18-0.135-0.359-0.204-0.539s-0.138-0.358-0.206-0.538
		c-0.086-0.224-0.173-0.449-0.259-0.673c-0.068-0.182-0.136-0.363-0.205-0.545C2.806,10.059,2.75,9.918,2.697,9.777
		C2.647,9.648,2.598,9.52,2.55,9.39c-0.07-0.189-0.14-0.379-0.208-0.569C2.317,8.751,2.336,8.73,2.41,8.749
		c0.234,0.06,0.466,0.124,0.699,0.185c0.159,0.042,0.318,0.083,0.479,0.119c0.325,0.072,0.651,0.146,0.978,0.21
		c0.212,0.041,0.427,0.063,0.641,0.094C5.696,9.429,6.19,9.427,6.684,9.45c0.392,0.019,0.78-0.019,1.168-0.054
		c0.423-0.04,0.839-0.121,1.248-0.234c0.372-0.101,0.735-0.225,1.084-0.39c0.402-0.189,0.776-0.419,1.107-0.717
		c0.255-0.23,0.467-0.496,0.625-0.801c0.077-0.147,0.157-0.298,0.198-0.457c0.049-0.192,0.057-0.395,0.082-0.594
		C12.2,6.188,12.198,6.173,12.198,6.157z"/>
	<path fill-rule="evenodd" clip-rule="evenodd" d="M6.082,4.77c0.027,0.266,0.045,0.533,0.087,0.796
		c0.05,0.322,0.113,0.643,0.188,0.959c0.064,0.277,0.148,0.55,0.232,0.823c0.067,0.22,0.145,0.438,0.224,0.654
		C6.875,8.17,6.95,8.333,7.015,8.5c0.061,0.155,0.114,0.312,0.172,0.468c0.017,0.045,0.041,0.088,0.057,0.133
		c0.025,0.077-0.001,0.114-0.083,0.112C7.095,9.21,7.027,9.206,6.962,9.194C6.592,9.128,6.224,9.06,5.854,8.992
		c-0.207-0.037-0.413-0.074-0.62-0.11C4.907,8.825,4.578,8.769,4.25,8.71C3.954,8.658,3.659,8.603,3.363,8.55
		C3.08,8.5,2.797,8.452,2.514,8.403c-0.119-0.021-0.166-0.076-0.19-0.208C2.287,7.999,2.239,7.805,2.203,7.608
		C2.166,7.407,2.135,7.204,2.104,7.001C2.078,6.826,2.049,6.65,2.034,6.474c-0.043-0.57-0.057-1.14,0.007-1.71
		c0.037-0.326,0.095-0.645,0.181-0.96C2.298,3.53,2.405,3.273,2.532,3.02c0.166-0.327,0.363-0.631,0.6-0.91
		c0.286-0.339,0.631-0.608,1.02-0.82c0.313-0.17,0.642-0.297,0.991-0.371c0.269-0.057,0.539-0.11,0.809-0.157
		C6.036,0.748,6.126,0.76,6.213,0.756c0.468-0.018,0.935,0.015,1.397,0.082c0.468,0.068,0.932,0.163,1.382,0.311
		c0.319,0.105,0.643,0.199,0.956,0.32c0.317,0.122,0.625,0.271,0.936,0.409c0.118,0.052,0.239,0.098,0.348,0.163
		c0.059,0.034,0.104,0.097,0.144,0.156c0.03,0.046-0.005,0.09-0.051,0.1c-0.109,0.022-0.223,0.058-0.331,0.048
		c-0.32-0.027-0.639-0.071-0.958-0.116c-0.454-0.064-0.912-0.081-1.37-0.065C8.332,2.176,7.998,2.222,7.673,2.321
		c-0.296,0.09-0.58,0.208-0.829,0.394c-0.173,0.127-0.3,0.298-0.413,0.481C6.323,3.369,6.243,3.555,6.195,3.751
		C6.153,3.928,6.126,4.11,6.11,4.291C6.096,4.449,6.107,4.609,6.107,4.768C6.099,4.769,6.091,4.769,6.082,4.77z"/>
	<path fill-rule="evenodd" clip-rule="evenodd" d="M11.314,5.858c-0.025,0.327-0.066,0.589-0.201,0.827
		c-0.132,0.231-0.318,0.407-0.549,0.535c-0.248,0.137-0.514,0.212-0.795,0.242c-0.29,0.03-0.571-0.006-0.847-0.081
		C8.764,7.339,8.611,7.276,8.46,7.213C8.188,7.1,7.945,6.937,7.724,6.745C7.41,6.474,7.138,6.166,6.98,5.777
		C6.865,5.496,6.786,5.205,6.795,4.896c0.006-0.191,0.059-0.369,0.129-0.543c0.155-0.382,0.458-0.614,0.819-0.77
		C7.91,3.512,8.1,3.49,8.283,3.465C8.615,3.42,8.938,3.491,9.252,3.592c0.654,0.212,1.191,0.595,1.61,1.137
		c0.16,0.207,0.292,0.435,0.358,0.692C11.261,5.583,11.291,5.749,11.314,5.858z"/>
</g>
</svg>
