<?xml version="1.0" encoding="utf-8"?>
<!-- Generator: Adobe Illustrator 16.0.3, SVG Export Plug-In . SVG Version: 6.00 Build 0)  -->
<!DOCTYPE svg PUBLIC "-//W3C//DTD SVG 1.1//EN" "http://www.w3.org/Graphics/SVG/1.1/DTD/svg11.dtd">
<svg version="1.1" id="Camada_1" xmlns="http://www.w3.org/2000/svg" xmlns:xlink="http://www.w3.org/1999/xlink" x="0px" y="0px"
	 width="16px" height="16px" viewBox="0 0 16 16" enable-background="new 0 0 16 16" xml:space="preserve">
<g>
	<path fill-rule="evenodd" clip-rule="evenodd" d="M8.017,0.1c4.358,0,7.896,3.552,7.894,7.924
		c-0.002,4.349-3.566,7.881-7.945,7.876c-4.353-0.005-7.879-3.564-7.875-7.946C0.094,3.628,3.655,0.1,8.017,0.1z M10.722,5.6
		c0.07,0.203,0.136,0.408,0.211,0.609c0.356,0.949,0.109,1.707-0.75,2.256c-0.177,0.114-0.368,0.214-0.563,0.292
		C8.38,9.256,7.11,9.211,5.831,8.957C5.536,8.898,5.243,8.832,4.875,8.752c0.574,1.408,1.119,2.741,1.662,4.072
		c1.051-0.183,2.024-0.462,2.934-0.922c0.938-0.475,1.759-1.089,2.308-2.02C12.725,8.28,12.19,6.64,10.722,5.6z M10.569,4.554
		c-0.116-0.104-0.159-0.164-0.218-0.191C9.287,3.881,8.19,3.547,7.003,3.688c-0.976,0.117-1.69,0.609-2.096,1.517
		C4.556,5.991,4.585,6.809,4.718,7.631c0.144,0.888,0.15,0.888,1.029,1.023c0.74,0.113,1.48,0.223,2.271,0.341
		C7.909,8.712,7.821,8.479,7.733,8.247c-0.273-0.717-0.516-1.44-0.51-2.222c0.006-0.863,0.402-1.365,1.261-1.456
		c0.545-0.058,1.102,0.002,1.653,0.006C10.255,4.576,10.375,4.564,10.569,4.554z M9.406,7.84c0.428,0.005,0.798-0.128,1.009-0.519
		c0.212-0.392,0.128-0.779-0.121-1.128C9.917,5.664,9.397,5.362,8.75,5.327C7.959,5.283,7.479,5.944,7.736,6.691
		C7.956,7.333,8.688,7.835,9.406,7.84z"/>
</g>
</svg>
