<svg version="1.1" id="LDI" xmlns="http://www.w3.org/2000/svg" xmlns:xlink="http://www.w3.org/1999/xlink" x="0px" y="0px"
	 width="40px" height="31px" viewBox="0 0 40 31" enable-background="new 0 0 40 31" xml:space="preserve">
<path fill="#535D64" d="M24.451,4.233c0,2.281-1.85,4.129-4.131,4.129c-2.283,0-4.131-1.848-4.131-4.129
	c0-2.282,1.849-4.132,4.131-4.132C22.602,0.102,24.451,1.951,24.451,4.233z"/>
<path fill="#535D64" d="M15.664,30.572c0.021-0.264-0.25-0.345-0.969-0.41c-5.518-0.502-9.341-2.053-9.341-3.593
	c0-1.346,3.007-2.516,7.443-3.125c0.119-0.015,0.341-0.01,0.36-0.148c0.02-0.14-0.354-0.453-0.578-0.543
	c-0.222-0.087-0.576-0.148-0.812-0.126c-6.859,0.71-11.524,2.256-11.518,4.037c0.006,1.922,5.565,3.536,13.295,4.102
	C14.143,30.81,15.631,30.961,15.664,30.572z"/>
<path fill="#535D64" d="M20.785,29.456"/>
<path fill="#535D64" d="M20.145,30.068"/>
<path fill="#535D64" d="M29.427,23.026c-0.012-0.002-0.071-0.005-0.131,0.02c-0.054,0.023-0.342,0.368-0.241,0.389
	c0.124,0.024,0.208,0.043,0.239,0.05c3.159,0.647,5.012,1.31,5.012,2.41c0,1.186-2.315,2.28-5.904,2.93
	c-0.034,0.008-0.116,0.017-0.122-0.026s0.068-0.06,0.1-0.071c1.639-0.573,2.622-1.28,2.622-2.072c0-1.137-1.523-1.979-5.172-2.687
	c-1.554-0.302-3.421-1.104-3.515-3.552c0-0.978,0.086-1.758,0.568-2.563c0.479-0.809,1.344-2.268,1.344-3.871
	c0-2.605-2.137-4.24-4.215-4.214c-2.081,0.026-4.048,1.608-4.048,4.214c0,1.639,1.324,3.388,1.597,3.929
	c0.292,0.578,0.568,1.324,0.568,2.563c0,1.988-2.622,3.234-3.851,3.553c-2.256,0.579-4.865,1.166-4.864,2.629
	c0,0.965,0.796,1.657,3.145,2.234c0.712,0.16,1.943,0.397,2.851,0.48c1.042,0.099,2.438,0.208,4.295,0.042
	c0.805-0.071,1.232-0.073,1.261,0.212c0.032,0.316-0.506,0.442-0.715,0.484c-0.918,0.185-2.01,0.254-2.007,0.474
	c0.004,0.301,0.683,0.313,1.6,0.317c8.051,0.027,19.914-1.833,19.906-4.255C39.743,24.948,35.753,23.733,29.427,23.026z"/>
</svg>
