<?xml version="1.0" encoding="utf-8"?>
<!-- Generator: Adobe Illustrator 16.0.3, SVG Export Plug-In . SVG Version: 6.00 Build 0)  -->
<!DOCTYPE svg PUBLIC "-//W3C//DTD SVG 1.1//EN" "http://www.w3.org/Graphics/SVG/1.1/DTD/svg11.dtd">
<svg version="1.1" id="Camada_1" xmlns="http://www.w3.org/2000/svg" xmlns:xlink="http://www.w3.org/1999/xlink" x="0px" y="0px"
	 width="1672.439px" height="1814.17px" viewBox="0 0 1672.439 1814.17" enable-background="new 0 0 1672.439 1814.17"
	 xml:space="preserve">
<path fill="#525C63" d="M997.45,522.131c0,85.4-69.181,154.583-154.567,154.583c-85.4,0-154.583-69.183-154.583-154.583
	c0-85.4,69.183-154.644,154.583-154.644C928.27,367.487,997.45,436.731,997.45,522.131z"/>
<path fill="#525C63" d="M668.681,1508.063c0.79-9.84-9.353-12.875-36.262-15.305c-206.455-18.77-349.498-76.836-349.498-134.539
	c0-50.354,112.491-94.148,278.493-116.926c4.435-0.607,12.755-0.426,13.484-5.586c0.729-5.225-13.241-16.947-21.624-20.289
	c-8.321-3.279-21.562-5.588-30.37-4.738c-256.626,26.545-431.194,84.43-430.951,151.123
	c0.243,71.914,208.216,132.352,497.461,153.49C611.768,1516.934,667.466,1522.641,668.681,1508.063z"/>
<path fill="#525C63" d="M860.3,1466.336"/>
<path fill="#525C63" d="M836.324,1489.234"/>
<path fill="#525C63" d="M1183.619,1225.623c-0.425-0.061-2.673-0.184-4.859,0.729c-2.064,0.912-12.816,13.729-9.05,14.516
	c4.616,0.973,7.775,1.641,8.929,1.885c118.199,24.234,187.505,49.016,187.505,90.26c0,44.34-86.616,85.34-220.851,109.635
	c-1.337,0.244-4.374,0.668-4.617-0.971c-0.243-1.641,2.552-2.248,3.767-2.674c61.286-21.439,98.095-47.924,98.095-77.564
	c0-42.578-57.035-74.104-193.518-100.586c-58.128-11.297-128.04-41.303-131.502-132.959c0-36.566,3.219-65.723,21.258-95.969
	c17.979-30.25,50.295-84.855,50.295-144.866c0-97.548-79.937-158.713-157.728-157.742c-77.869,0.972-151.486,60.193-151.486,157.742
	c0,61.349,49.564,126.825,59.77,147.052c10.933,21.623,21.258,49.564,21.258,95.908c0,74.469-98.096,121.115-144.075,133.021
	c-84.429,21.684-182.039,43.611-181.978,98.398c0,36.141,29.763,62.016,117.653,83.641c26.665,5.951,72.706,14.82,106.661,17.977
	c38.994,3.707,91.23,7.775,160.717,1.58c30.112-2.672,46.087-2.734,47.181,7.957c1.214,11.844-18.936,16.521-26.771,18.1
	c-34.319,6.865-75.197,9.477-75.076,17.736c0.182,11.238,25.571,11.723,59.889,11.846c301.195,1.031,745.082-68.639,744.778-159.262
	C1569.621,1297.6,1420.323,1252.105,1183.619,1225.623z"/>
</svg>
