<?xml version="1.0" encoding="utf-8"?>
<!-- Generator: Adobe Illustrator 16.0.3, SVG Export Plug-In . SVG Version: 6.00 Build 0)  -->
<!DOCTYPE svg PUBLIC "-//W3C//DTD SVG 1.1//EN" "http://www.w3.org/Graphics/SVG/1.1/DTD/svg11.dtd">
<svg version="1.1" id="Camada_1" xmlns="http://www.w3.org/2000/svg" xmlns:xlink="http://www.w3.org/1999/xlink" x="0px" y="0px"
	 width="25px" height="25px" viewBox="-6.5 -6.5 25 25" enable-background="new -6.5 -6.5 25 25" xml:space="preserve">
<path fill="#FFFFFF" d="M6-6C0.7-6-3.593-1.701-3.593,3.6C-3.593,10.801,6,18,6,18s9.593-7.199,9.593-14.4
	C15.593-1.701,11.302-6,6-6z M2.056,3.574C1.587,3.574,1.2,3.191,1.2,2.719c0-0.472,0.387-0.855,0.855-0.855
	c0.474,0,0.857,0.384,0.857,0.855C2.913,3.189,2.529,3.574,2.056,3.574z M9.056,5.323C9.007,5.365,7.907,6.331,6.131,6.331
	c-1.77,0-3.041-1.043-3.094-1.086C2.853,5.09,2.825,4.815,2.979,4.628C3.134,4.442,3.41,4.416,3.596,4.571
	C3.616,4.586,4.69,5.457,6.131,5.457c1.446,0,2.326-0.779,2.335-0.785c0.183-0.162,0.46-0.146,0.619,0.035
	C9.247,4.886,9.234,5.163,9.056,5.323z M10.019,3.574c-0.469,0-0.856-0.383-0.856-0.855c0-0.472,0.388-0.855,0.856-0.855
	c0.478,0,0.856,0.384,0.856,0.855C10.875,3.189,10.496,3.574,10.019,3.574z"/>
</svg>
