<svg width="308" height="212" viewBox="0 0 308 212" fill="none" xmlns="http://www.w3.org/2000/svg">
<rect width="303.601" height="203.912" fill="black" fill-opacity="0"/>
<path d="M34.539 39.7245C39.3724 39.7245 43.1318 41.1678 45.817 44.0544C48.5694 46.9411 49.9456 50.9018 49.9456 55.9366V94H40.6815V57.2457C40.6815 53.4864 39.9766 50.8347 38.5668 49.2907C37.1571 47.7466 35.076 46.9746 32.3236 46.9746C29.5041 46.9746 27.0203 47.7802 24.8721 49.3914C22.7239 51.0025 20.71 53.3185 18.8303 56.3394V94H9.56619V40.9328H17.5212L18.3268 48.7872C20.2065 45.9677 22.5225 43.7523 25.2749 42.1412C28.0944 40.53 31.1824 39.7245 34.539 39.7245ZM88.5061 39.7245C95.9577 39.7245 101.731 42.2083 105.826 47.176C109.988 52.1437 112.069 58.8904 112.069 67.4161C112.069 72.9208 111.129 77.7878 109.25 82.0171C107.37 86.1792 104.651 89.4351 101.093 91.7847C97.5352 94.0671 93.306 95.2084 88.4054 95.2084C80.9539 95.2084 75.147 92.7245 70.9849 87.7568C66.8227 82.7891 64.7417 76.0424 64.7417 67.5168C64.7417 62.012 65.6815 57.1786 67.5612 53.0164C69.4409 48.7872 72.1597 45.5313 75.7176 43.2489C79.2756 40.8993 83.5384 39.7245 88.5061 39.7245ZM88.5061 47.176C79.3091 47.176 74.7107 53.9563 74.7107 67.5168C74.7107 81.0101 79.2756 87.7568 88.4054 87.7568C97.5352 87.7568 102.1 80.9766 102.1 67.4161C102.1 53.9227 97.5688 47.176 88.5061 47.176ZM141.773 39.7245C145.398 39.7245 148.654 40.228 151.541 41.2349C154.427 42.2419 157.18 43.7523 159.798 45.7663L155.871 51.6067C153.454 50.0627 151.138 48.9214 148.923 48.183C146.774 47.4446 144.492 47.0753 142.075 47.0753C139.054 47.0753 136.671 47.7131 134.926 48.9886C133.18 50.1969 132.308 51.8752 132.308 54.0234C132.308 56.1716 133.113 57.8499 134.724 59.0582C136.403 60.2666 139.39 61.4414 143.686 62.5826C149.594 64.0595 153.991 66.0734 156.878 68.6244C159.831 71.1754 161.308 74.6662 161.308 79.0969C161.308 84.3331 159.261 88.3274 155.166 91.0798C151.138 93.8322 146.204 95.2084 140.363 95.2084C132.308 95.2084 125.628 92.8923 120.325 88.2603L125.259 82.6213C129.757 86.045 134.724 87.7568 140.162 87.7568C143.653 87.7568 146.405 87.0519 148.419 85.6422C150.5 84.1653 151.541 82.1849 151.541 79.7011C151.541 77.8885 151.171 76.4452 150.433 75.3711C149.695 74.2299 148.419 73.2565 146.607 72.4509C144.794 71.5782 142.142 70.6719 138.651 69.7321C133.012 68.2552 128.917 66.2748 126.366 63.791C123.883 61.3071 122.641 58.152 122.641 54.3255C122.641 51.5731 123.446 49.0893 125.057 46.8739C126.736 44.5915 129.018 42.8461 131.905 41.6377C134.859 40.3622 138.148 39.7245 141.773 39.7245ZM187.795 39.7245C191.42 39.7245 194.676 40.228 197.562 41.2349C200.449 42.2419 203.201 43.7523 205.819 45.7663L201.892 51.6067C199.475 50.0627 197.159 48.9214 194.944 48.183C192.796 47.4446 190.513 47.0753 188.097 47.0753C185.076 47.0753 182.693 47.7131 180.947 48.9886C179.202 50.1969 178.329 51.8752 178.329 54.0234C178.329 56.1716 179.135 57.8499 180.746 59.0582C182.424 60.2666 185.411 61.4414 189.708 62.5826C195.615 64.0595 200.012 66.0734 202.899 68.6244C205.853 71.1754 207.33 74.6662 207.33 79.0969C207.33 84.3331 205.282 88.3274 201.187 91.0798C197.159 93.8322 192.225 95.2084 186.385 95.2084C178.329 95.2084 171.65 92.8923 166.346 88.2603L171.28 82.6213C175.778 86.045 180.746 87.7568 186.183 87.7568C189.674 87.7568 192.427 87.0519 194.441 85.6422C196.522 84.1653 197.562 82.1849 197.562 79.7011C197.562 77.8885 197.193 76.4452 196.455 75.3711C195.716 74.2299 194.441 73.2565 192.628 72.4509C190.816 71.5782 188.164 70.6719 184.673 69.7321C179.034 68.2552 174.939 66.2748 172.388 63.791C169.904 61.3071 168.662 58.152 168.662 54.3255C168.662 51.5731 169.468 49.0893 171.079 46.8739C172.757 44.5915 175.04 42.8461 177.926 41.6377C180.88 40.3622 184.17 39.7245 187.795 39.7245ZM240.338 39.7245C247.789 39.7245 253.563 42.2083 257.658 47.176C261.82 52.1437 263.901 58.8904 263.901 67.4161C263.901 72.9208 262.961 77.7878 261.081 82.0171C259.202 86.1792 256.483 89.4351 252.925 91.7847C249.367 94.0671 245.138 95.2084 240.237 95.2084C232.786 95.2084 226.979 92.7245 222.817 87.7568C218.654 82.7891 216.573 76.0424 216.573 67.5168C216.573 62.012 217.513 57.1786 219.393 53.0164C221.273 48.7872 223.991 45.5313 227.549 43.2489C231.107 40.8993 235.37 39.7245 240.338 39.7245ZM240.338 47.176C231.141 47.176 226.542 53.9563 226.542 67.5168C226.542 81.0101 231.107 87.7568 240.237 87.7568C249.367 87.7568 253.932 80.9766 253.932 67.4161C253.932 53.9227 249.401 47.176 240.338 47.176Z" fill="white"/>
<g filter="url(#filter0_d)">
<path d="M56.8941 154.948C62.6841 156.124 67.3821 158.283 70.9921 161.429C74.5991 164.576 76.4041 169.255 76.4041 175.464C76.4041 185.114 72.9001 191.849 65.8941 195.666C58.8871 199.485 48.9641 201.394 36.1261 201.394H5.41211V113.788H32.7261C45.7321 113.788 55.6541 115.53 62.4951 119.012C69.3331 122.495 72.7541 128.307 72.7541 136.445C72.7541 141.649 71.2431 145.74 68.2221 148.717C65.2011 151.696 61.4251 153.773 56.8941 154.948ZM31.3421 131.536V147.647H35.7471C39.6901 147.647 42.4591 146.998 44.0551 145.696C45.6481 144.396 46.4471 142.193 46.4471 139.088C46.4471 136.488 45.5861 134.578 43.8661 133.361C42.1451 132.145 39.2291 131.536 35.1181 131.536H31.3421ZM36.3761 183.142C40.7381 183.142 44.0541 182.472 46.3201 181.128C48.5861 179.786 49.7181 177.311 49.7181 173.701C49.7181 170.347 48.6901 167.891 46.6341 166.338C44.5771 164.786 41.4931 164.01 37.3831 164.01H31.3411V183.142H36.3761ZM109.633 113.788V181.507H142.737L140.093 201.395H83.7031V113.788H109.633ZM182.387 111.27C195.477 111.27 205.567 115.32 212.658 123.416C219.748 131.515 223.295 142.863 223.295 157.464C223.295 166.948 221.699 175.171 218.512 182.135C215.322 189.101 210.664 194.471 204.539 198.246C198.413 202.022 191.028 203.91 182.387 203.91C169.296 203.91 159.205 199.819 152.115 191.638C145.023 183.457 141.479 172.066 141.479 157.464C141.479 147.983 143.072 139.779 146.262 132.857C149.45 125.934 154.107 120.606 160.234 116.872C166.357 113.138 173.742 111.27 182.387 111.27ZM182.387 129.647C177.434 129.647 173.869 131.767 171.688 136.003C169.504 140.241 168.415 147.395 168.415 157.464C168.415 167.534 169.505 174.731 171.688 179.051C173.87 183.374 177.434 185.533 182.387 185.533C187.422 185.533 191.009 183.393 193.149 179.114C195.289 174.834 196.358 167.618 196.358 157.464C196.358 147.395 195.267 140.241 193.087 136.003C190.902 131.767 187.337 129.647 182.387 129.647ZM272.51 111.27C278.804 111.27 284.573 112.32 289.818 114.416C295.061 116.515 299.656 119.284 303.601 122.724L291.014 135.815C287.909 133.549 285.098 131.913 282.58 130.906C280.062 129.899 277.209 129.395 274.02 129.395C267.894 129.395 263.195 131.724 259.923 136.381C256.65 141.038 255.013 148.109 255.013 157.59C255.013 164.724 255.517 170.324 256.525 174.394C257.531 178.465 259.105 181.338 261.244 183.016C263.385 184.696 266.217 185.534 269.741 185.534C272.845 185.534 275.824 184.822 278.678 183.394V167.409H269.867L267.475 149.913H303.6V193.842C298.984 197.032 293.697 199.506 287.74 201.269C281.781 203.031 276.035 203.912 270.496 203.912C256.146 203.912 245.531 199.991 238.65 192.143C231.769 184.297 228.33 172.74 228.33 157.465C228.33 147.817 230.218 139.509 233.994 132.543C237.769 125.578 243.014 120.292 249.727 116.683C256.439 113.076 264.033 111.27 272.51 111.27Z" fill="url(#paint0_linear)"/>
</g>
<defs>
<filter id="filter0_d" x="1.41211" y="111.27" width="306.189" height="100.642" filterUnits="userSpaceOnUse" color-interpolation-filters="sRGB">
<feFlood flood-opacity="0" result="BackgroundImageFix"/>
<feColorMatrix in="SourceAlpha" type="matrix" values="0 0 0 0 0 0 0 0 0 0 0 0 0 0 0 0 0 0 255 0"/>
<feOffset dy="4"/>
<feGaussianBlur stdDeviation="2"/>
<feColorMatrix type="matrix" values="0 0 0 0 0 0 0 0 0 0 0 0 0 0 0 0 0 0 0.25 0"/>
<feBlend mode="normal" in2="BackgroundImageFix" result="effect1_dropShadow"/>
<feBlend mode="normal" in="SourceGraphic" in2="effect1_dropShadow" result="shape"/>
</filter>
<linearGradient id="paint0_linear" x1="0.255405" y1="157.669" x2="354.5" y2="158" gradientUnits="userSpaceOnUse">
<stop stop-color="#E5803B"/>
<stop offset="0.0166" stop-color="#E5803B"/>
<stop offset="1" stop-color="#B23F1A"/>
</linearGradient>
</defs>
</svg>
