<svg width="307" height="173" viewBox="0 0 307 173" fill="none" xmlns="http://www.w3.org/2000/svg">
<rect width="298.189" height="164.187" fill="black" fill-opacity="0" transform="translate(4.41211 0.724609)"/>
<path d="M33.5392 0.724609C38.3726 0.724609 42.132 2.16793 44.8172 5.05457C47.5696 7.94121 48.9458 11.9019 48.9458 16.9368V55.0001H39.6817V18.2458C39.6817 14.4865 38.9768 11.8348 37.5671 10.2908C36.1573 8.74678 34.0762 7.97477 31.3239 7.97477C28.5044 7.97477 26.0205 8.78035 23.8723 10.3915C21.7241 12.0026 19.7102 14.3187 17.8305 17.3396V55.0001H8.56641V1.93297H16.5214L17.327 9.78731C19.2067 6.96781 21.5227 4.75248 24.2751 3.14133C27.0946 1.53018 30.1826 0.724609 33.5392 0.724609Z" fill="white"/>
<path d="M87.5063 0.724609C94.9579 0.724609 100.731 3.20846 104.826 8.17617C108.988 13.1439 111.069 19.8905 111.069 28.4162C111.069 33.921 110.13 38.788 108.25 43.0172C106.37 47.1794 103.651 50.4352 100.093 52.7848C96.5355 55.0673 92.3062 56.2085 87.4056 56.2085C79.9541 56.2085 74.1472 53.7246 69.9851 48.7569C65.823 43.7892 63.7419 37.0426 63.7419 28.5169C63.7419 23.0121 64.6817 18.1787 66.5614 14.0166C68.4411 9.78731 71.1599 6.53145 74.7178 4.249C78.2758 1.89941 82.5386 0.724609 87.5063 0.724609ZM87.5063 8.17617C78.3094 8.17617 73.7109 14.9564 73.7109 28.5169C73.7109 42.0103 78.2758 48.7569 87.4056 48.7569C96.5355 48.7569 101.1 41.9767 101.1 28.4162C101.1 14.9228 96.569 8.17617 87.5063 8.17617Z" fill="white"/>
<path d="M140.773 0.724609C144.398 0.724609 147.654 1.22809 150.541 2.23506C153.428 3.24203 156.18 4.75248 158.798 6.76641L154.871 12.6068C152.454 11.0628 150.138 9.92158 147.923 9.18313C145.775 8.44469 143.492 8.07547 141.075 8.07547C138.054 8.07547 135.671 8.71322 133.926 9.98871C132.181 11.1971 131.308 12.8753 131.308 15.0235C131.308 17.1717 132.113 18.85 133.725 20.0584C135.403 21.2667 138.39 22.4415 142.687 23.5828C148.594 25.0596 152.991 27.0736 155.878 29.6246C158.832 32.1755 160.308 35.6664 160.308 40.097C160.308 45.3333 158.261 49.3276 154.166 52.0799C150.138 54.8323 145.204 56.2085 139.364 56.2085C131.308 56.2085 124.628 53.8925 119.325 49.2604L124.259 43.6214C128.757 47.0451 133.725 48.7569 139.162 48.7569C142.653 48.7569 145.405 48.0521 147.419 46.6423C149.5 45.1654 150.541 43.1851 150.541 40.7012C150.541 38.8887 150.172 37.4453 149.433 36.3712C148.695 35.23 147.419 34.2566 145.607 33.451C143.794 32.5783 141.143 31.6721 137.652 30.7322C132.013 29.2553 127.918 27.275 125.367 24.7911C122.883 22.3073 121.641 19.1521 121.641 15.3256C121.641 12.5733 122.447 10.0894 124.058 7.87408C125.736 5.59162 128.018 3.84621 130.905 2.63785C133.859 1.36235 137.148 0.724609 140.773 0.724609Z" fill="white"/>
<path d="M186.795 0.724609C190.42 0.724609 193.676 1.22809 196.562 2.23506C199.449 3.24203 202.201 4.75248 204.82 6.76641L200.892 12.6068C198.476 11.0628 196.16 9.92158 193.944 9.18313C191.796 8.44469 189.514 8.07547 187.097 8.07547C184.076 8.07547 181.693 8.71322 179.947 9.98871C178.202 11.1971 177.329 12.8753 177.329 15.0235C177.329 17.1717 178.135 18.85 179.746 20.0584C181.424 21.2667 184.412 22.4415 188.708 23.5828C194.616 25.0596 199.013 27.0736 201.899 29.6246C204.853 32.1755 206.33 35.6664 206.33 40.097C206.33 45.3333 204.283 49.3276 200.188 52.0799C196.16 54.8323 191.225 56.2085 185.385 56.2085C177.329 56.2085 170.65 53.8925 165.346 49.2604L170.281 43.6214C174.778 47.0451 179.746 48.7569 185.184 48.7569C188.675 48.7569 191.427 48.0521 193.441 46.6423C195.522 45.1654 196.562 43.1851 196.562 40.7012C196.562 38.8887 196.193 37.4453 195.455 36.3712C194.716 35.23 193.441 34.2566 191.628 33.451C189.816 32.5783 187.164 31.6721 183.673 30.7322C178.034 29.2553 173.939 27.275 171.388 24.7911C168.904 22.3073 167.662 19.1521 167.662 15.3256C167.662 12.5733 168.468 10.0894 170.079 7.87408C171.757 5.59162 174.04 3.84621 176.927 2.63785C179.88 1.36235 183.17 0.724609 186.795 0.724609Z" fill="white"/>
<path d="M239.338 0.724609C246.79 0.724609 252.563 3.20846 256.658 8.17617C260.82 13.1439 262.901 19.8905 262.901 28.4162C262.901 33.921 261.961 38.788 260.082 43.0172C258.202 47.1794 255.483 50.4352 251.925 52.7848C248.367 55.0673 244.138 56.2085 239.237 56.2085C231.786 56.2085 225.979 53.7246 221.817 48.7569C217.655 43.7892 215.574 37.0426 215.574 28.5169C215.574 23.0121 216.513 18.1787 218.393 14.0166C220.273 9.78731 222.992 6.53145 226.55 4.249C230.108 1.89941 234.37 0.724609 239.338 0.724609ZM239.338 8.17617C230.141 8.17617 225.543 14.9564 225.543 28.5169C225.543 42.0103 230.108 48.7569 239.237 48.7569C248.367 48.7569 252.932 41.9767 252.932 28.4162C252.932 14.9228 248.401 8.17617 239.338 8.17617Z" fill="white"/>
<g filter="url(#filter0_d)">
<path d="M55.8941 115.948C61.6841 117.124 66.3821 119.283 69.9921 122.429C73.5991 125.576 75.4041 130.255 75.4041 136.464C75.4041 146.114 71.9001 152.849 64.8941 156.666C57.8871 160.485 47.9641 162.394 35.1261 162.394H4.41211V74.788H31.7261C44.7321 74.788 54.6541 76.53 61.4951 80.012C68.3331 83.495 71.7541 89.307 71.7541 97.445C71.7541 102.649 70.2431 106.74 67.2221 109.717C64.2011 112.696 60.4251 114.773 55.8941 115.948ZM30.3421 92.536V108.647H34.7471C38.6901 108.647 41.4591 107.998 43.0551 106.696C44.6481 105.396 45.4471 103.193 45.4471 100.088C45.4471 97.488 44.5861 95.578 42.8661 94.361C41.1451 93.145 38.2291 92.536 34.1181 92.536H30.3421ZM35.3761 144.142C39.7381 144.142 43.0541 143.472 45.3201 142.128C47.5861 140.786 48.7181 138.311 48.7181 134.701C48.7181 131.347 47.6901 128.891 45.6341 127.338C43.5771 125.786 40.4931 125.01 36.3831 125.01H30.3411V144.142H35.3761ZM108.633 74.788V142.507H141.737L139.093 162.395H82.7031V74.788H108.633ZM181.387 72.27C194.477 72.27 204.567 76.32 211.658 84.416C218.748 92.515 222.295 103.863 222.295 118.464C222.295 127.948 220.699 136.171 217.512 143.135C214.322 150.101 209.664 155.471 203.539 159.246C197.413 163.022 190.028 164.91 181.387 164.91C168.296 164.91 158.205 160.819 151.115 152.638C144.023 144.457 140.479 133.066 140.479 118.464C140.479 108.983 142.072 100.779 145.262 93.857C148.45 86.934 153.107 81.606 159.234 77.872C165.357 74.138 172.742 72.27 181.387 72.27ZM181.387 90.647C176.434 90.647 172.869 92.767 170.688 97.003C168.504 101.241 167.415 108.395 167.415 118.464C167.415 128.534 168.505 135.731 170.688 140.051C172.87 144.374 176.434 146.533 181.387 146.533C186.422 146.533 190.009 144.393 192.149 140.114C194.289 135.834 195.358 128.618 195.358 118.464C195.358 108.395 194.267 101.241 192.087 97.003C189.902 92.767 186.337 90.647 181.387 90.647ZM271.51 72.27C277.804 72.27 283.573 73.32 288.818 75.416C294.061 77.515 298.656 80.284 302.601 83.724L290.014 96.815C286.909 94.549 284.098 92.913 281.58 91.906C279.062 90.899 276.209 90.395 273.02 90.395C266.894 90.395 262.195 92.724 258.923 97.381C255.65 102.038 254.013 109.109 254.013 118.59C254.013 125.724 254.517 131.324 255.525 135.394C256.531 139.465 258.105 142.338 260.244 144.016C262.385 145.696 265.217 146.534 268.741 146.534C271.845 146.534 274.824 145.822 277.678 144.394V128.409H268.867L266.475 110.913H302.6V154.842C297.984 158.032 292.697 160.506 286.74 162.269C280.781 164.031 275.035 164.912 269.496 164.912C255.146 164.912 244.531 160.991 237.65 153.143C230.769 145.297 227.33 133.74 227.33 118.465C227.33 108.817 229.218 100.509 232.994 93.543C236.769 86.578 242.014 81.292 248.727 77.683C255.439 74.076 263.033 72.27 271.51 72.27Z" fill="url(#paint0_linear)"/>
</g>
<defs>
<filter id="filter0_d" x="0.412109" y="72.27" width="306.189" height="100.642" filterUnits="userSpaceOnUse" color-interpolation-filters="sRGB">
<feFlood flood-opacity="0" result="BackgroundImageFix"/>
<feColorMatrix in="SourceAlpha" type="matrix" values="0 0 0 0 0 0 0 0 0 0 0 0 0 0 0 0 0 0 255 0"/>
<feOffset dy="4"/>
<feGaussianBlur stdDeviation="2"/>
<feColorMatrix type="matrix" values="0 0 0 0 0 0 0 0 0 0 0 0 0 0 0 0 0 0 0.25 0"/>
<feBlend mode="normal" in2="BackgroundImageFix" result="effect1_dropShadow"/>
<feBlend mode="normal" in="SourceGraphic" in2="effect1_dropShadow" result="shape"/>
</filter>
<linearGradient id="paint0_linear" x1="-0.744595" y1="118.669" x2="353.5" y2="119" gradientUnits="userSpaceOnUse">
<stop stop-color="#E5803B"/>
<stop offset="0.0166" stop-color="#E5803B"/>
<stop offset="1" stop-color="#B23F1A"/>
</linearGradient>
</defs>
</svg>
