<!DOCTYPE svg PUBLIC "-//W3C//DTD SVG 1.1//EN" "http://www.w3.org/Graphics/SVG/1.1/DTD/svg11.dtd">
<svg version="1.1" id="Camada_1" xmlns="http://www.w3.org/2000/svg" xmlns:xlink="http://www.w3.org/1999/xlink" x="0px" y="0px"
	 width="71.994px" height="71.993px" viewBox="0 0 71.994 71.993" enable-background="new 0 0 71.994 71.993" xml:space="preserve">
<path fill="#FDAE66" d="M28.843,37.569h2.399v4.8h-2.399V37.569z M26.442,43.568c0,0.662,0.538,1.2,1.199,1.2h4.801
	c0.662,0,1.199-0.538,1.199-1.2v-7.199c0-0.663-0.537-1.199-1.199-1.199h-4.801c-0.661,0-1.199,0.536-1.199,1.199V43.568z"/>
<path fill="#FDAE66" d="M28.843,23.171h2.399v4.799h-2.399V23.171z M27.642,30.37h4.8c0.663,0,1.2-0.538,1.2-1.2v-7.199
	c0-0.662-0.537-1.2-1.2-1.2h-4.8c-0.662,0-1.199,0.538-1.199,1.2v7.199C26.442,29.832,26.979,30.37,27.642,30.37"/>
<path fill="#649BE1" d="M18.661,21.799l17.38-10.428l17.381,10.428c0.193,0.116,0.407,0.172,0.616,0.172
	c0.408,0,0.806-0.208,1.03-0.582c0.342-0.568,0.156-1.306-0.41-1.646L37.241,9.292v-7.72h6v2.399h-3.6
	c-0.662,0-1.201,0.538-1.201,1.2s0.539,1.2,1.201,1.2h4.8c0.661,0,1.198-0.538,1.198-1.2V0.373c0-0.663-0.537-1.2-1.198-1.2h-8.4
	c-0.662,0-1.199,0.537-1.199,1.2v8.919l-17.417,10.45c-0.566,0.341-0.752,1.078-0.41,1.646
	C17.354,21.956,18.093,22.141,18.661,21.799"/>
<path fill="#FDAE66" d="M13.243,44.769c0.662,0,1.2-0.538,1.2-1.2v-7.199c0-0.662-0.538-1.199-1.2-1.199h-4.8
	c-0.661,0-1.198,0.537-1.198,1.199v2.399c0,0.663,0.537,1.2,1.198,1.2c0.663,0,1.2-0.537,1.2-1.2v-1.199h2.4v5.999
	C12.044,44.23,12.581,44.769,13.243,44.769"/>
<path fill="#649BE1" d="M21.643,60.367V25.57c0-0.662-0.538-1.2-1.2-1.2s-1.199,0.538-1.199,1.2v34.797c0,0.662,0.537,1.2,1.199,1.2
	S21.643,61.029,21.643,60.367"/>
<path fill="#649BE1" d="M28.843,51.968h5.998v4.8c-0.662,0-1.199,0.537-1.199,1.2c0,0.662,0.537,1.2,1.199,1.2v4.799h-5.998V51.968z
	 M37.241,59.168c0.662,0,1.199-0.538,1.199-1.2s-0.537-1.2-1.199-1.2v-4.799h6v11.998h-6V59.168z M15.644,66.366h40.796
	c0.663,0,1.199-0.538,1.199-1.199c0-0.662-0.536-1.2-1.199-1.2h-10.8V51.969h1.2c0.662,0,1.2-0.538,1.2-1.2
	c0-0.663-0.538-1.2-1.2-1.2H25.242c-0.662,0-1.2,0.537-1.2,1.2c0,0.662,0.538,1.2,1.2,1.2h1.2v11.998H15.644
	c-0.662,0-1.2,0.538-1.2,1.2C14.443,65.828,14.981,66.366,15.644,66.366"/>
<path fill="#FDAE66" d="M62.438,57.967h-2.399v-4.8h2.399V57.967z M63.639,50.768h-4.8c-0.662,0-1.199,0.538-1.199,1.2v7.199
	c0,0.662,0.537,1.2,1.199,1.2h4.8c0.662,0,1.2-0.538,1.2-1.2v-7.199C64.839,51.306,64.301,50.768,63.639,50.768"/>
<path fill="#FDAE66" d="M62.438,43.568h-2.399v-4.8h2.399V43.568z M63.639,36.369h-4.8c-0.662,0-1.199,0.538-1.199,1.2v7.199
	c0,0.662,0.537,1.199,1.199,1.199h4.8c0.662,0,1.2-0.537,1.2-1.199v-7.199C64.839,36.907,64.301,36.369,63.639,36.369"/>
<path fill="#649BE1" d="M61.239,68.767H10.845c-0.664,0-1.201,0.538-1.201,1.199c0,0.662,0.537,1.2,1.201,1.2h50.395
	c0.662,0,1.2-0.538,1.2-1.2C62.439,69.305,61.901,68.767,61.239,68.767"/>
<path fill="#649BE1" d="M70.838,25.57c-0.661,0-1.199,0.538-1.199,1.2v1.199H56.439c-0.662,0-1.2,0.537-1.2,1.2
	c0,0.662,0.538,1.199,1.2,1.199h13.199v39.597c0,0.662,0.538,1.2,1.199,1.2c0.662,0,1.2-0.538,1.2-1.2V26.771
	C72.038,26.108,71.5,25.57,70.838,25.57"/>
<path fill="#FDAE66" d="M40.841,37.569h2.4v4.8h-2.4V37.569z M38.441,43.568c0,0.662,0.538,1.2,1.2,1.2h4.799
	c0.663,0,1.2-0.538,1.2-1.2v-7.199c0-0.663-0.537-1.199-1.2-1.199h-4.799c-0.662,0-1.2,0.536-1.2,1.199V43.568z"/>
<path fill="#649BE1" d="M6.044,61.567c-1.984,0-3.6-1.615-3.6-3.601c0-5.978,1.605-13.198,3.6-13.198s3.6,7.221,3.6,13.198
	C9.644,59.952,8.028,61.567,6.044,61.567 M12.044,57.967c0-0.155-0.068-15.599-6-15.599s-6,15.443-6,15.599
	c0,2.898,2.065,5.32,4.801,5.879v6.12c0,0.662,0.537,1.2,1.199,1.2s1.199-0.538,1.199-1.2v-6.12
	C9.979,63.287,12.044,60.865,12.044,57.967"/>
<path fill="#649BE1" d="M52.84,60.367V24.37c0-0.662-0.538-1.2-1.2-1.2s-1.2,0.538-1.2,1.2v35.997c0,0.662,0.538,1.2,1.2,1.2
	S52.84,61.029,52.84,60.367"/>
<path fill="#FDAE66" d="M40.841,23.171h2.4v4.799h-2.4V23.171z M39.642,30.37h4.8c0.661,0,1.198-0.538,1.198-1.2v-7.199
	c0-0.662-0.537-1.2-1.198-1.2h-4.8c-0.662,0-1.201,0.538-1.201,1.2v7.199C38.44,29.832,38.979,30.37,39.642,30.37"/>
<path fill="#649BE1" d="M1.245,41.169c0.661,0,1.199-0.538,1.199-1.2V30.37h13.199c0.662,0,1.2-0.538,1.2-1.2s-0.538-1.2-1.2-1.2
	H2.444v-1.199c0-0.663-0.538-1.2-1.199-1.2c-0.662,0-1.201,0.537-1.201,1.199v13.199C0.044,40.631,0.583,41.169,1.245,41.169"/>
</svg>
