<svg width="72" height="72" viewBox="0 0 72 72" fill="none" xmlns="http://www.w3.org/2000/svg">
<path d="M28.799 38.396H31.198V43.196H28.799V38.396ZM26.3979 44.395C26.3979 45.057 26.936 45.595 27.597 45.595H32.398C33.06 45.595 33.5969 45.057 33.5969 44.395V37.196C33.5969 36.533 33.06 35.997 32.398 35.997H27.597C26.936 35.997 26.3979 36.533 26.3979 37.196V44.395Z" fill="#F06C00"/>
<path d="M28.7989 23.998H31.1979V28.797H28.7989V23.998ZM27.5979 31.197H32.3979C33.0609 31.197 33.5979 30.659 33.5979 29.997V22.798C33.5979 22.136 33.0609 21.598 32.3979 21.598H27.5979C26.9359 21.598 26.3989 22.136 26.3989 22.798V29.997C26.3979 30.659 26.9349 31.197 27.5979 31.197Z" fill="#F06C00"/>
<path d="M18.6169 22.626L35.9969 12.198L53.3779 22.626C53.5709 22.742 53.7849 22.798 53.9939 22.798C54.4019 22.798 54.7999 22.59 55.0239 22.216C55.3659 21.648 55.1799 20.91 54.6139 20.57L37.1969 10.119V2.399H43.1969V4.798H39.5969C38.9349 4.798 38.3959 5.336 38.3959 5.998C38.3959 6.66 38.9349 7.198 39.5969 7.198H44.3969C45.0579 7.198 45.5949 6.66 45.5949 5.998V1.2C45.5949 0.537 45.0579 0 44.3969 0H35.9969C35.3349 0 34.7979 0.537 34.7979 1.2V10.119L17.3809 20.569C16.8149 20.91 16.6289 21.647 16.9709 22.215C17.3099 22.783 18.0489 22.968 18.6169 22.626Z" fill="#1765AB"/>
<path d="M13.1992 45.596C13.8612 45.596 14.3992 45.058 14.3992 44.396V37.197C14.3992 36.535 13.8612 35.998 13.1992 35.998H8.39917C7.73817 35.998 7.20117 36.535 7.20117 37.197V39.596C7.20117 40.259 7.73817 40.796 8.39917 40.796C9.06217 40.796 9.59917 40.259 9.59917 39.596V38.397H11.9992V44.396C12.0002 45.057 12.5372 45.596 13.1992 45.596Z" fill="#F06C00"/>
<path d="M21.5992 61.194V26.397C21.5992 25.735 21.0612 25.197 20.3992 25.197C19.7372 25.197 19.2002 25.735 19.2002 26.397V61.194C19.2002 61.856 19.7372 62.394 20.3992 62.394C21.0612 62.394 21.5992 61.856 21.5992 61.194Z" fill="#1765AB"/>
<path d="M28.7989 52.795H34.7969V57.595C34.1349 57.595 33.5979 58.132 33.5979 58.795C33.5979 59.457 34.1349 59.995 34.7969 59.995V64.794H28.7989V52.795ZM37.1969 59.995C37.8589 59.995 38.3959 59.457 38.3959 58.795C38.3959 58.133 37.8589 57.595 37.1969 57.595V52.796H43.1969V64.794H37.1969V59.995ZM15.5999 67.193H56.3959C57.0589 67.193 57.5949 66.655 57.5949 65.994C57.5949 65.332 57.0589 64.794 56.3959 64.794H45.5959V52.796H46.7959C47.4579 52.796 47.9959 52.258 47.9959 51.596C47.9959 50.933 47.4579 50.396 46.7959 50.396H25.1979C24.5359 50.396 23.9979 50.933 23.9979 51.596C23.9979 52.258 24.5359 52.796 25.1979 52.796H26.3979V64.794H15.5999C14.9379 64.794 14.3999 65.332 14.3999 65.994C14.3989 66.655 14.9369 67.193 15.5999 67.193Z" fill="#1765AB"/>
<path d="M62.3942 58.794H59.9952V53.994H62.3942V58.794ZM63.5952 51.595H58.7952C58.1332 51.595 57.5962 52.133 57.5962 52.795V59.994C57.5962 60.656 58.1332 61.194 58.7952 61.194H63.5952C64.2572 61.194 64.7952 60.656 64.7952 59.994V52.795C64.7952 52.133 64.2572 51.595 63.5952 51.595Z" fill="#F06C00"/>
<path d="M62.3942 44.395H59.9952V39.595H62.3942V44.395ZM63.5952 37.196H58.7952C58.1332 37.196 57.5962 37.734 57.5962 38.396V45.595C57.5962 46.257 58.1332 46.794 58.7952 46.794H63.5952C64.2572 46.794 64.7952 46.257 64.7952 45.595V38.396C64.7952 37.734 64.2572 37.196 63.5952 37.196Z" fill="#F06C00"/>
<path d="M61.1951 69.594H10.8011C10.1371 69.594 9.6001 70.132 9.6001 70.793C9.6001 71.455 10.1371 71.993 10.8011 71.993H61.1961C61.8581 71.993 62.3961 71.455 62.3961 70.793C62.3951 70.132 61.8571 69.594 61.1951 69.594Z" fill="#1765AB"/>
<path d="M70.7938 26.397C70.1328 26.397 69.5948 26.935 69.5948 27.597V28.796H56.3948C55.7328 28.796 55.1948 29.333 55.1948 29.996C55.1948 30.658 55.7328 31.195 56.3948 31.195H69.5938V70.792C69.5938 71.454 70.1318 71.992 70.7928 71.992C71.4548 71.992 71.9928 71.454 71.9928 70.792V27.598C71.9938 26.935 71.4558 26.397 70.7938 26.397Z" fill="#1765AB"/>
<path d="M40.797 38.396H43.197V43.196H40.797V38.396ZM38.397 44.395C38.397 45.057 38.935 45.595 39.597 45.595H44.396C45.059 45.595 45.596 45.057 45.596 44.395V37.196C45.596 36.533 45.059 35.997 44.396 35.997H39.597C38.935 35.997 38.397 36.533 38.397 37.196V44.395Z" fill="#F06C00"/>
<path d="M6 62.394C4.016 62.394 2.4 60.779 2.4 58.793C2.4 52.815 4.005 45.595 6 45.595C7.995 45.595 9.6 52.816 9.6 58.793C9.6 60.779 7.984 62.394 6 62.394ZM12 58.794C12 58.639 11.932 43.195 6 43.195C0.0679998 43.195 0 58.638 0 58.794C0 61.692 2.065 64.114 4.801 64.673V70.793C4.801 71.455 5.338 71.993 6 71.993C6.662 71.993 7.199 71.455 7.199 70.793V64.673C9.935 64.114 12 61.692 12 58.794Z" fill="#1765AB"/>
<path d="M52.796 61.194V25.197C52.796 24.535 52.258 23.997 51.596 23.997C50.934 23.997 50.396 24.535 50.396 25.197V61.194C50.396 61.856 50.934 62.394 51.596 62.394C52.258 62.394 52.796 61.856 52.796 61.194Z" fill="#1765AB"/>
<path d="M40.797 23.998H43.197V28.797H40.797V23.998ZM39.598 31.197H44.398C45.059 31.197 45.596 30.659 45.596 29.997V22.798C45.596 22.136 45.059 21.598 44.398 21.598H39.598C38.936 21.598 38.397 22.136 38.397 22.798V29.997C38.396 30.659 38.935 31.197 39.598 31.197Z" fill="#F06C00"/>
<path d="M1.201 41.996C1.862 41.996 2.4 41.458 2.4 40.796V31.197H15.599C16.261 31.197 16.799 30.659 16.799 29.997C16.799 29.335 16.261 28.797 15.599 28.797H2.4V27.598C2.4 26.935 1.862 26.398 1.201 26.398C0.539 26.398 0 26.935 0 27.597V40.796C0 41.458 0.539 41.996 1.201 41.996Z" fill="#1765AB"/>
</svg>
