<!DOCTYPE svg PUBLIC "-//W3C//DTD SVG 1.1//EN" "http://www.w3.org/Graphics/SVG/1.1/DTD/svg11.dtd">
<svg version="1.1" class="seadUfesExtenso" xmlns="http://www.w3.org/2000/svg" xmlns:xlink="http://www.w3.org/1999/xlink" x="0px" y="0px"
     width="246.637px" height="61.464px" viewBox="0 0 246.637 61.464" enable-background="new 0 0 246.637 61.464"
     xml:space="preserve">
	<g class="assinatura">
		<rect x="90.071" y="19.791" fill="#FFFFFF" width="0.919" height="38.559"/>
	</g>
	<g>
		<g>
			<g>
				<path fill="#FFFFFF" d="M6.786,31.306c0.276,0.242,0.621,0.488,1.03,0.732s0.867,0.467,1.373,0.664
					c0.504,0.195,1.051,0.355,1.636,0.479c0.585,0.123,1.191,0.184,1.819,0.184c1.288,0,2.289-0.227,3.001-0.68
					c0.711-0.451,1.069-1.076,1.069-1.875c0-0.479-0.12-0.887-0.357-1.222c-0.24-0.335-0.57-0.635-0.991-0.902
					c-0.421-0.267-0.916-0.508-1.484-0.727c-0.569-0.217-1.185-0.443-1.845-0.678c-1.32-0.478-2.412-0.955-3.28-1.429
					c-0.867-0.474-1.557-0.99-2.067-1.548c-0.511-0.559-0.87-1.187-1.077-1.884c-0.208-0.696-0.313-1.503-0.313-2.418
					c0-0.969,0.196-1.861,0.591-2.674c0.394-0.813,0.947-1.518,1.661-2.107c0.713-0.591,1.562-1.051,2.545-1.381
					c0.986-0.329,2.063-0.495,3.234-0.495c1.14,0,2.139,0.111,3.001,0.334c0.861,0.223,1.608,0.487,2.235,0.794
					c0.627,0.308,1.146,0.623,1.556,0.947c0.411,0.323,0.737,0.584,0.981,0.786l-2.01,3.078c-0.182-0.181-0.456-0.389-0.823-0.623
					c-0.367-0.234-0.796-0.458-1.285-0.669c-0.49-0.213-1.017-0.392-1.58-0.536c-0.565-0.145-1.124-0.215-1.678-0.215
					c-0.573,0-1.079,0.064-1.516,0.192c-0.438,0.129-0.801,0.3-1.094,0.519c-0.293,0.218-0.514,0.477-0.662,0.775
					c-0.15,0.298-0.225,0.617-0.225,0.958c0,0.416,0.093,0.773,0.28,1.07c0.185,0.299,0.468,0.57,0.846,0.816
					c0.376,0.244,0.858,0.483,1.444,0.718c0.585,0.235,1.278,0.496,2.076,0.784c1.191,0.425,2.213,0.869,3.065,1.333
					c0.851,0.464,1.552,0.992,2.099,1.583c0.549,0.591,0.953,1.262,1.214,2.012c0.261,0.751,0.39,1.622,0.39,2.613
					c0,0.895-0.195,1.745-0.589,2.547c-0.394,0.805-0.958,1.51-1.692,2.117c-0.735,0.605-1.629,1.088-2.682,1.445
					c-1.055,0.357-2.242,0.535-3.561,0.535c-1.034,0-1.989-0.092-2.866-0.279c-0.879-0.186-1.669-0.42-2.371-0.703
					c-0.703-0.281-1.317-0.59-1.842-0.926c-0.529-0.334-0.962-0.652-1.302-0.949L6.786,31.306z"/>
				<path fill="#FFFFFF" d="M38.604,26.851h-8.302v6.18h9.962v3.895H25.336V13.68h14.769v3.896h-9.803v5.38h8.302V26.851z"/>
				<path fill="#FFFFFF" d="M54.969,32.199h-6.721l-1.278,4.727h-5.013l7.024-23.245h5.27l7.025,23.245h-5.014L54.969,32.199z
					 M49.301,28.303h4.614l-2.267-8.588h-0.096L49.301,28.303z"/>
				<path fill="#FFFFFF" d="M64.148,36.925V13.68h7.392c1.585,0,2.985,0.27,4.199,0.807c1.213,0.538,2.23,1.288,3.049,2.251
					c0.819,0.964,1.437,2.113,1.852,3.448c0.414,1.336,0.623,2.796,0.623,4.382v1.485c0,1.66-0.221,3.16-0.663,4.502
					c-0.441,1.338-1.08,2.481-1.917,3.424c-0.833,0.941-1.854,1.668-3.056,2.178c-1.202,0.512-2.565,0.768-4.087,0.768H64.148z
					 M69.114,17.576v15.455h1.776c0.725,0,1.362-0.088,1.912-0.256c0.55-0.172,1.024-0.408,1.424-0.719
					c0.4-0.309,0.734-0.678,1-1.107c0.267-0.431,0.479-0.904,0.64-1.421c0.16-0.516,0.272-1.068,0.335-1.658
					c0.065-0.591,0.097-1.2,0.097-1.827v-1.515c0-1.02-0.085-1.955-0.255-2.807c-0.172-0.851-0.465-1.581-0.881-2.193
					c-0.417-0.61-0.97-1.089-1.665-1.437c-0.692-0.344-1.562-0.517-2.607-0.517H69.114z"/>
			</g>
		</g>
		<path fill="#FFFFFF" d="M27.086,5.288c-3.599-2.822-8.394-4.548-13.664-4.556C8.155,0.725,3.607,2.653,0,5.465l1.267,1.086
			C4.512,3.933,8.892,2.332,13.71,2.338c4.669,0.008,8.924,1.527,12.129,4.014L27.086,5.288z"/>
		<path fill="#FFFFFF" d="M4.735,9.522c2.345-1.825,5.466-2.935,8.89-2.929c3.317,0.005,6.345,1.055,8.658,2.786l1.282-1.093
			c-2.697-2.054-6.252-3.306-10.148-3.312C9.519,4.968,5.96,6.208,3.258,8.256"/>
		<path fill="#FFFFFF" d="M8.056,12.368c1.479-1.062,3.388-1.698,5.472-1.694c2.022,0.002,3.877,0.608,5.334,1.618l1.334-1.135
			c-1.801-1.297-4.127-2.082-6.665-2.086c-2.603-0.003-4.981,0.81-6.803,2.159L8.056,12.368z"/>
	</g>
	<g>
		<path fill="#FFFFFF" d="M38.327,42.636v11.922c0,1.02-0.176,1.914-0.528,2.684c-0.35,0.768-0.828,1.41-1.432,1.928
			c-0.605,0.52-1.313,0.91-2.126,1.17c-0.812,0.262-1.68,0.393-2.603,0.393c-0.989,0-1.895-0.137-2.72-0.412
			c-0.825-0.271-1.534-0.672-2.125-1.199c-0.592-0.525-1.055-1.174-1.385-1.941c-0.331-0.768-0.496-1.639-0.496-2.621V42.636h3.81
			v11.912c0,1.092,0.251,1.898,0.754,2.418c0.503,0.518,1.221,0.777,2.155,0.777c0.942,0,1.657-0.254,2.148-0.76
			c0.491-0.504,0.736-1.318,0.736-2.436V42.636H38.327z"/>
		<path fill="#FFFFFF" d="M51.791,53.185h-6.101v7.291H41.88v-17.84h11.197v2.99h-7.386v4.57h6.101V53.185z"/>
		<path fill="#FFFFFF" d="M65.72,52.746H59.35v4.74h7.645v2.99H55.54v-17.84h11.333v2.99H59.35v4.129h6.371V52.746z"/>
		<path fill="#FFFFFF" d="M70.241,56.164c0.212,0.186,0.475,0.375,0.791,0.563c0.314,0.188,0.666,0.357,1.054,0.51
			c0.388,0.15,0.807,0.271,1.255,0.367c0.449,0.094,0.915,0.141,1.396,0.141c0.988,0,1.755-0.174,2.303-0.52
			c0.547-0.35,0.82-0.828,0.82-1.441c0-0.367-0.092-0.68-0.274-0.938c-0.184-0.256-0.438-0.488-0.76-0.691
			c-0.323-0.205-0.703-0.391-1.14-0.559c-0.438-0.166-0.909-0.34-1.416-0.521c-1.013-0.367-1.852-0.73-2.518-1.096
			c-0.666-0.361-1.194-0.758-1.587-1.188c-0.392-0.428-0.667-0.91-0.826-1.445c-0.159-0.535-0.24-1.152-0.24-1.857
			c0-0.742,0.152-1.426,0.454-2.051c0.302-0.625,0.727-1.164,1.273-1.617c0.547-0.453,1.199-0.809,1.954-1.061
			c0.756-0.252,1.582-0.379,2.481-0.379c0.874,0,1.641,0.084,2.303,0.256c0.661,0.172,1.233,0.373,1.715,0.611
			c0.482,0.234,0.88,0.477,1.195,0.725c0.313,0.248,0.565,0.449,0.752,0.604l-1.544,2.361c-0.138-0.137-0.349-0.297-0.631-0.477
			c-0.281-0.18-0.61-0.352-0.986-0.514c-0.376-0.166-0.78-0.303-1.213-0.412c-0.433-0.109-0.862-0.166-1.286-0.166
			c-0.441,0-0.829,0.051-1.163,0.148c-0.335,0.098-0.616,0.23-0.84,0.398c-0.225,0.168-0.393,0.365-0.508,0.596
			c-0.114,0.227-0.171,0.473-0.171,0.734c0,0.32,0.071,0.594,0.214,0.82c0.144,0.23,0.359,0.439,0.65,0.627
			c0.289,0.188,0.659,0.371,1.108,0.551s0.979,0.381,1.593,0.602c0.916,0.326,1.698,0.666,2.352,1.023
			c0.654,0.355,1.19,0.76,1.611,1.213s0.731,0.971,0.931,1.547c0.201,0.576,0.3,1.244,0.3,2.006c0,0.684-0.151,1.336-0.453,1.953
			c-0.302,0.617-0.735,1.158-1.299,1.625c-0.563,0.465-1.25,0.836-2.058,1.107c-0.809,0.275-1.718,0.412-2.732,0.412
			c-0.792,0-1.525-0.07-2.198-0.215c-0.674-0.141-1.281-0.32-1.82-0.537c-0.538-0.217-1.009-0.453-1.415-0.713
			c-0.405-0.256-0.737-0.498-0.998-0.729L70.241,56.164z"/>
	</g>
	<g class="assinatura">
		<path fill="#FFFFFF" d="M102.886,30.646c-0.663-0.19-1.208-0.406-1.634-0.648c-0.427-0.242-0.765-0.507-1.014-0.798
			c-0.249-0.29-0.423-0.604-0.52-0.94c-0.098-0.337-0.146-0.697-0.146-1.083c0-0.442,0.084-0.85,0.254-1.223
			c0.17-0.372,0.401-0.691,0.695-0.959c0.292-0.268,0.635-0.475,1.028-0.624c0.393-0.149,0.816-0.225,1.269-0.225
			c0.406,0,0.771,0.032,1.095,0.093c0.323,0.063,0.621,0.15,0.894,0.267c0.273,0.115,0.528,0.253,0.764,0.412
			c0.237,0.16,0.471,0.334,0.7,0.525l-0.631,1.048c-0.194-0.175-0.404-0.33-0.632-0.467c-0.226-0.136-0.457-0.25-0.696-0.342
			c-0.239-0.092-0.479-0.162-0.718-0.208c-0.239-0.046-0.469-0.07-0.69-0.07c-0.626,0-1.087,0.161-1.379,0.482
			c-0.293,0.322-0.44,0.751-0.44,1.292c0,0.226,0.037,0.432,0.108,0.62c0.072,0.187,0.195,0.36,0.37,0.517s0.409,0.304,0.702,0.443
			s0.661,0.272,1.103,0.401c0.664,0.196,1.198,0.417,1.607,0.663c0.41,0.247,0.727,0.519,0.952,0.813
			c0.227,0.295,0.379,0.611,0.455,0.949c0.076,0.334,0.117,0.688,0.117,1.051c0,0.443-0.086,0.85-0.26,1.219
			c-0.172,0.369-0.412,0.691-0.724,0.965c-0.311,0.271-0.68,0.484-1.106,0.635c-0.426,0.15-0.894,0.227-1.403,0.227
			c-0.781,0-1.478-0.117-2.089-0.354c-0.612-0.236-1.148-0.551-1.612-0.941l0.633-1.049c0.195,0.18,0.415,0.338,0.659,0.471
			c0.244,0.135,0.5,0.248,0.767,0.34c0.268,0.094,0.537,0.162,0.807,0.209c0.27,0.045,0.525,0.068,0.767,0.068
			c0.333,0,0.628-0.045,0.882-0.135c0.255-0.092,0.47-0.215,0.64-0.375c0.172-0.158,0.303-0.346,0.391-0.563
			c0.086-0.217,0.13-0.449,0.13-0.699c0-0.238-0.024-0.453-0.076-0.641c-0.052-0.191-0.153-0.365-0.305-0.525
			c-0.153-0.16-0.363-0.306-0.637-0.443C103.686,30.906,103.329,30.773,102.886,30.646z"/>
		<path fill="#FFFFFF" d="M113.562,34.447c-0.244,0.432-0.578,0.748-0.992,0.949c-0.416,0.199-0.875,0.299-1.373,0.299
			c-0.414,0-0.785-0.072-1.113-0.211c-0.328-0.143-0.604-0.359-0.828-0.652c-0.227-0.293-0.4-0.664-0.521-1.113
			c-0.121-0.451-0.182-0.982-0.182-1.602v-4.924h1.543v4.942c0,0.441,0.029,0.811,0.088,1.109s0.146,0.539,0.264,0.723
			c0.113,0.18,0.26,0.311,0.439,0.393c0.176,0.078,0.385,0.117,0.627,0.117c0.232,0,0.443-0.033,0.635-0.104
			c0.193-0.068,0.367-0.166,0.521-0.289c0.154-0.121,0.291-0.266,0.408-0.428c0.117-0.16,0.221-0.336,0.309-0.521l-0.016-5.942
			h1.557v6.491c0.012,0.252,0.045,0.459,0.102,0.621c0.055,0.16,0.172,0.314,0.346,0.457l-0.699,0.926
			c-0.176-0.063-0.332-0.15-0.463-0.266c-0.135-0.115-0.25-0.236-0.344-0.363c-0.096-0.125-0.168-0.244-0.221-0.357
			C113.597,34.587,113.568,34.503,113.562,34.447z"/>
		<path fill="#FFFFFF" d="M124.181,31.873c0,0.57-0.07,1.088-0.205,1.561c-0.137,0.469-0.334,0.871-0.586,1.207
			c-0.254,0.332-0.568,0.592-0.941,0.777c-0.373,0.184-0.793,0.277-1.26,0.277c-0.914,0-1.617-0.328-2.105-0.986v4.031h-1.543
			V27.192h1.266l0.154,1.049c0.242-0.371,0.551-0.663,0.926-0.879c0.375-0.216,0.803-0.323,1.287-0.323
			c0.477,0,0.902,0.103,1.275,0.309c0.373,0.205,0.689,0.495,0.945,0.867s0.451,0.82,0.586,1.342
			c0.133,0.522,0.201,1.097,0.201,1.723V31.873z M122.638,31.279c0-0.431-0.041-0.833-0.119-1.203
			c-0.082-0.371-0.199-0.689-0.359-0.956c-0.158-0.268-0.357-0.477-0.598-0.628c-0.238-0.152-0.514-0.227-0.828-0.227
			c-0.195,0-0.377,0.038-0.543,0.115c-0.168,0.078-0.32,0.178-0.461,0.301c-0.137,0.124-0.262,0.264-0.369,0.421
			c-0.107,0.156-0.201,0.314-0.277,0.474v3.567c0.082,0.166,0.178,0.328,0.285,0.49s0.232,0.311,0.369,0.439
			c0.141,0.131,0.293,0.236,0.461,0.316s0.348,0.119,0.543,0.119c0.322,0,0.604-0.064,0.84-0.195
			c0.234-0.133,0.432-0.314,0.59-0.551c0.156-0.238,0.273-0.516,0.35-0.836c0.078-0.322,0.117-0.674,0.117-1.053V31.279z"/>
		<path fill="#FFFFFF" d="M129.318,35.695c-0.541,0-1.025-0.096-1.455-0.291s-0.795-0.469-1.092-0.814
			c-0.299-0.348-0.525-0.762-0.684-1.242c-0.156-0.48-0.236-1.006-0.236-1.576v-0.57c0-0.525,0.07-1.035,0.211-1.534
			c0.139-0.499,0.348-0.943,0.631-1.334c0.283-0.391,0.641-0.704,1.07-0.939c0.428-0.236,0.932-0.355,1.51-0.355
			c0.52,0,0.973,0.087,1.361,0.262c0.389,0.174,0.711,0.421,0.967,0.739c0.26,0.318,0.451,0.703,0.58,1.153s0.193,0.95,0.193,1.499
			v1.035h-4.957c0,0.004,0,0.004-0.004,0c-0.002-0.006-0.004-0.006-0.004,0c0.006,0.369,0.055,0.727,0.146,1.07
			c0.094,0.344,0.234,0.645,0.422,0.902s0.422,0.461,0.705,0.609c0.281,0.15,0.615,0.215,0.996,0.199
			c0.371-0.016,0.738-0.082,1.104-0.203s0.705-0.313,1.018-0.574l0.465,0.988c-0.43,0.354-0.9,0.604-1.408,0.754
			C130.353,35.621,129.838,35.695,129.318,35.695z M129.191,28.241c-0.242,0-0.463,0.059-0.668,0.177
			c-0.201,0.119-0.381,0.28-0.531,0.486c-0.152,0.205-0.277,0.446-0.375,0.724c-0.098,0.277-0.158,0.579-0.186,0.901
			c0.006,0.006,0.01,0.02,0.01,0.04s0,0.032,0,0.038h3.393v-0.316c0-0.292-0.035-0.563-0.104-0.813
			c-0.072-0.25-0.176-0.467-0.313-0.652c-0.141-0.185-0.313-0.329-0.518-0.432C129.695,28.293,129.459,28.241,129.191,28.241z"/>
		<path fill="#FFFFFF" d="M138.211,28.527c-0.123-0.011-0.244-0.021-0.357-0.032c-0.117-0.01-0.25-0.016-0.398-0.016
			c-0.369,0-0.676,0.099-0.918,0.293c-0.24,0.195-0.426,0.465-0.555,0.809v5.951h-1.541v-8.34h1.318l0.17,1.242
			c0.195-0.432,0.457-0.773,0.785-1.022s0.701-0.374,1.119-0.374c0.104,0,0.207,0.009,0.313,0.026
			c0.104,0.019,0.193,0.041,0.266,0.067L138.211,28.527z"/>
		<path fill="#FFFFFF" d="M141.502,25.034h-1.541v-1.527h1.541V25.034z M141.502,35.533h-1.541v-8.34h1.541V35.533z"/>
		<path fill="#FFFFFF" d="M145.373,27.192l0.154,1.242c0.252-0.438,0.578-0.779,0.977-1.026c0.396-0.246,0.846-0.369,1.342-0.369
			c0.406,0,0.77,0.065,1.088,0.196c0.32,0.131,0.59,0.332,0.809,0.601c0.223,0.271,0.391,0.61,0.506,1.022
			c0.117,0.411,0.174,0.896,0.174,1.457v5.218h-1.541v-5.195c0-0.354-0.039-0.663-0.119-0.925c-0.08-0.263-0.188-0.479-0.324-0.648
			c-0.135-0.169-0.295-0.295-0.471-0.377c-0.178-0.083-0.365-0.123-0.566-0.123c-0.314,0-0.629,0.098-0.947,0.293
			c-0.32,0.194-0.598,0.477-0.834,0.848v6.127h-1.541v-8.34H145.373z"/>
		<path fill="#FFFFFF" d="M154.732,25.149v2.043h1.672v1.126h-1.672v5.009c0,0.412,0.074,0.705,0.225,0.875
			c0.148,0.174,0.361,0.258,0.639,0.258c0.109,0,0.227-0.016,0.357-0.049c0.133-0.033,0.252-0.07,0.367-0.111l0.176,1.057
			c-0.07,0.041-0.162,0.08-0.273,0.123c-0.109,0.041-0.227,0.076-0.354,0.107c-0.127,0.029-0.252,0.057-0.383,0.078
			c-0.127,0.021-0.244,0.029-0.354,0.029c-0.303,0-0.572-0.045-0.814-0.133c-0.238-0.092-0.441-0.232-0.607-0.422
			c-0.168-0.191-0.295-0.434-0.385-0.729c-0.09-0.297-0.137-0.648-0.137-1.061v-5.033h-1.201v-1.126h1.201v-2.043H154.732z"/>
		<path fill="#FFFFFF" d="M161.22,35.695c-0.543,0-1.027-0.096-1.455-0.291c-0.432-0.195-0.795-0.469-1.094-0.814
			c-0.297-0.348-0.525-0.762-0.682-1.242c-0.158-0.48-0.236-1.006-0.236-1.576v-0.57c0-0.525,0.068-1.035,0.209-1.534
			c0.137-0.499,0.35-0.943,0.633-1.334c0.281-0.391,0.639-0.704,1.068-0.939c0.428-0.236,0.932-0.355,1.508-0.355
			c0.521,0,0.975,0.087,1.363,0.262c0.391,0.174,0.711,0.421,0.969,0.739c0.258,0.318,0.451,0.703,0.578,1.153
			c0.129,0.45,0.193,0.95,0.193,1.499v1.035h-4.957c0,0.004,0,0.004-0.004,0c-0.002-0.006-0.002-0.006-0.002,0
			c0.004,0.369,0.053,0.727,0.145,1.07c0.094,0.344,0.234,0.645,0.422,0.902s0.422,0.461,0.705,0.609
			c0.283,0.15,0.615,0.215,0.996,0.199c0.371-0.016,0.738-0.082,1.104-0.203s0.705-0.313,1.018-0.574l0.469,0.988
			c-0.434,0.354-0.904,0.604-1.412,0.754C162.254,35.621,161.738,35.695,161.22,35.695z M161.092,28.241
			c-0.242,0-0.463,0.059-0.668,0.177c-0.201,0.119-0.379,0.28-0.529,0.486c-0.154,0.205-0.277,0.446-0.375,0.724
			c-0.098,0.277-0.16,0.579-0.186,0.901c0.004,0.006,0.008,0.02,0.008,0.04s0,0.032,0,0.038h3.393v-0.316
			c0-0.292-0.035-0.563-0.104-0.813c-0.07-0.25-0.174-0.467-0.313-0.652c-0.141-0.185-0.313-0.329-0.518-0.432
			C161.595,28.293,161.359,28.241,161.092,28.241z"/>
		<path fill="#FFFFFF" d="M167.636,27.192l0.154,1.242c0.252-0.438,0.576-0.779,0.975-1.026c0.4-0.246,0.848-0.369,1.346-0.369
			c0.406,0,0.77,0.065,1.088,0.196c0.318,0.131,0.588,0.332,0.809,0.601c0.223,0.271,0.389,0.61,0.506,1.022
			c0.115,0.411,0.174,0.896,0.174,1.457v5.218h-1.543v-5.195c0-0.354-0.039-0.663-0.119-0.925c-0.08-0.263-0.189-0.479-0.322-0.648
			c-0.139-0.169-0.295-0.295-0.471-0.377c-0.178-0.083-0.367-0.123-0.566-0.123c-0.314,0-0.631,0.098-0.949,0.293
			c-0.318,0.194-0.596,0.477-0.834,0.848v6.127h-1.541v-8.34H167.636z"/>
		<path fill="#FFFFFF" d="M174.775,31.494c0-0.656,0.063-1.259,0.186-1.807c0.125-0.548,0.313-1.018,0.563-1.411
			c0.25-0.394,0.57-0.698,0.953-0.914c0.383-0.216,0.832-0.323,1.352-0.323c0.443,0,0.834,0.09,1.172,0.27
			c0.34,0.181,0.633,0.437,0.879,0.771v-4.564h1.543v10.168c0,0.279,0.037,0.492,0.115,0.648c0.076,0.152,0.188,0.295,0.332,0.424
			l-0.695,0.932c-0.061-0.014-0.146-0.055-0.254-0.115c-0.107-0.063-0.219-0.146-0.334-0.252c-0.117-0.104-0.223-0.229-0.32-0.377
			c-0.1-0.145-0.168-0.311-0.209-0.496c-0.121,0.191-0.258,0.361-0.404,0.516c-0.146,0.156-0.313,0.285-0.496,0.395
			c-0.186,0.107-0.391,0.191-0.619,0.248c-0.225,0.061-0.482,0.09-0.771,0.09c-0.477,0-0.9-0.092-1.27-0.27
			c-0.369-0.18-0.684-0.443-0.938-0.789c-0.254-0.348-0.449-0.77-0.582-1.27c-0.135-0.498-0.201-1.068-0.201-1.711V31.494z
			 M176.318,31.656c0,0.441,0.037,0.84,0.115,1.191s0.191,0.652,0.348,0.896c0.152,0.248,0.348,0.436,0.586,0.568
			c0.236,0.131,0.516,0.195,0.84,0.195c0.201,0,0.383-0.039,0.547-0.115s0.316-0.178,0.455-0.305
			c0.139-0.125,0.262-0.271,0.373-0.436c0.111-0.162,0.211-0.336,0.297-0.518v-3.56c-0.086-0.169-0.188-0.332-0.301-0.49
			c-0.113-0.156-0.236-0.297-0.373-0.42c-0.135-0.124-0.287-0.221-0.451-0.293c-0.164-0.072-0.34-0.107-0.531-0.107
			c-0.324,0-0.605,0.081-0.846,0.242c-0.238,0.162-0.438,0.387-0.592,0.674c-0.158,0.288-0.273,0.629-0.352,1.022
			c-0.078,0.394-0.115,0.824-0.115,1.291V31.656z"/>
		<path fill="#FFFFFF" d="M187.054,35.695c-0.543,0-1.027-0.096-1.457-0.291s-0.795-0.469-1.092-0.814
			c-0.297-0.348-0.525-0.762-0.682-1.242c-0.158-0.48-0.236-1.006-0.236-1.576v-0.57c0-0.525,0.068-1.035,0.209-1.534
			c0.137-0.499,0.35-0.943,0.633-1.334c0.281-0.391,0.637-0.704,1.068-0.939c0.43-0.236,0.932-0.355,1.508-0.355
			c0.521,0,0.977,0.087,1.365,0.262c0.387,0.174,0.709,0.421,0.967,0.739c0.258,0.318,0.451,0.703,0.578,1.153
			c0.129,0.45,0.193,0.95,0.193,1.499v1.035h-4.957c0,0.004,0,0.004-0.002,0c-0.004-0.006-0.006-0.006-0.006,0
			c0.006,0.369,0.055,0.727,0.146,1.07s0.234,0.645,0.422,0.902s0.422,0.461,0.705,0.609c0.283,0.15,0.615,0.215,0.996,0.199
			c0.371-0.016,0.738-0.082,1.104-0.203c0.363-0.121,0.705-0.313,1.018-0.574l0.467,0.988c-0.432,0.354-0.902,0.604-1.41,0.754
			C188.086,35.621,187.572,35.695,187.054,35.695z M189.578,25.982h-1.258l-1.426-1.249l-1.418,1.249h-1.234l2.113-2.537h1.086
			L189.578,25.982z M186.926,28.241c-0.242,0-0.463,0.059-0.668,0.177c-0.201,0.119-0.379,0.28-0.529,0.486
			c-0.154,0.205-0.279,0.446-0.375,0.724c-0.098,0.277-0.16,0.579-0.188,0.901c0.006,0.006,0.01,0.02,0.01,0.04s0,0.032,0,0.038
			h3.393v-0.316c0-0.292-0.035-0.563-0.105-0.813c-0.068-0.25-0.172-0.467-0.313-0.652c-0.139-0.185-0.311-0.329-0.516-0.432
			C187.429,28.293,187.193,28.241,186.926,28.241z"/>
		<path fill="#FFFFFF" d="M193.47,27.192l0.154,1.242c0.252-0.438,0.576-0.779,0.975-1.026c0.398-0.246,0.846-0.369,1.346-0.369
			c0.406,0,0.77,0.065,1.088,0.196c0.318,0.131,0.588,0.332,0.809,0.601c0.221,0.271,0.391,0.61,0.506,1.022
			c0.113,0.411,0.174,0.896,0.174,1.457v5.218h-1.543v-5.195c0-0.354-0.041-0.663-0.119-0.925c-0.08-0.263-0.189-0.479-0.324-0.648
			c-0.137-0.169-0.293-0.295-0.469-0.377c-0.178-0.083-0.367-0.123-0.568-0.123c-0.313,0-0.629,0.098-0.947,0.293
			c-0.318,0.194-0.598,0.477-0.834,0.848v6.127h-1.539v-8.34H193.47z"/>
		<path fill="#FFFFFF" d="M204.156,34.507c0.379,0,0.734-0.068,1.059-0.207c0.328-0.139,0.598-0.322,0.814-0.557l0.547,0.957
			c-0.129,0.135-0.273,0.26-0.439,0.383c-0.164,0.119-0.352,0.225-0.559,0.316c-0.207,0.09-0.438,0.162-0.686,0.213
			c-0.25,0.055-0.521,0.082-0.814,0.082c-0.57,0-1.07-0.1-1.506-0.299c-0.434-0.201-0.797-0.479-1.086-0.834
			c-0.291-0.355-0.512-0.771-0.66-1.252c-0.15-0.48-0.225-1.004-0.225-1.57v-0.748c0-0.559,0.074-1.081,0.225-1.563
			c0.148-0.484,0.369-0.902,0.66-1.257c0.289-0.355,0.652-0.632,1.086-0.833c0.436-0.201,0.936-0.3,1.506-0.3
			c0.293,0,0.564,0.025,0.814,0.077c0.248,0.051,0.479,0.121,0.686,0.209c0.207,0.086,0.395,0.188,0.559,0.304
			c0.166,0.116,0.314,0.24,0.447,0.374l-0.555,1.002c-0.217-0.231-0.486-0.419-0.814-0.563c-0.324-0.144-0.68-0.216-1.059-0.216
			c-0.336,0-0.627,0.074-0.875,0.223c-0.25,0.149-0.455,0.351-0.621,0.606c-0.164,0.254-0.291,0.555-0.379,0.902
			c-0.086,0.346-0.131,0.715-0.137,1.106v0.484c0,0.408,0.039,0.791,0.123,1.15c0.082,0.359,0.205,0.674,0.369,0.941
			c0.166,0.266,0.375,0.477,0.629,0.633C203.519,34.429,203.816,34.507,204.156,34.507z"/>
		<path fill="#FFFFFF" d="M209.838,25.034h-1.541v-1.527h1.541V25.034z M209.838,35.533h-1.541v-8.34h1.541V35.533z"/>
		<path fill="#FFFFFF" d="M217.709,35.687c-0.113-0.035-0.23-0.096-0.352-0.182c-0.119-0.084-0.234-0.184-0.344-0.295
			c-0.107-0.113-0.199-0.238-0.275-0.371c-0.078-0.133-0.131-0.271-0.154-0.408c-0.129,0.189-0.283,0.363-0.467,0.52
			c-0.184,0.158-0.381,0.291-0.594,0.4c-0.213,0.111-0.439,0.197-0.674,0.254c-0.238,0.061-0.477,0.09-0.719,0.09
			c-0.395,0-0.746-0.059-1.051-0.174c-0.307-0.113-0.564-0.279-0.771-0.492s-0.365-0.475-0.475-0.777
			c-0.107-0.307-0.162-0.65-0.162-1.029c0-0.402,0.078-0.762,0.232-1.08c0.152-0.32,0.375-0.59,0.666-0.811
			c0.291-0.22,0.641-0.39,1.053-0.507c0.41-0.119,0.877-0.178,1.395-0.178h1.402v-0.82c0-0.5-0.119-0.893-0.365-1.18
			c-0.244-0.285-0.623-0.426-1.137-0.421c-0.24,0-0.473,0.025-0.695,0.073c-0.219,0.05-0.426,0.112-0.623,0.189
			c-0.195,0.077-0.373,0.163-0.535,0.258s-0.305,0.191-0.428,0.288l-0.516-0.962c0.098-0.082,0.234-0.181,0.418-0.298
			c0.182-0.118,0.404-0.231,0.664-0.342c0.26-0.109,0.551-0.203,0.879-0.279c0.326-0.077,0.688-0.115,1.084-0.115
			c0.41,0,0.787,0.062,1.133,0.185c0.344,0.124,0.639,0.305,0.885,0.543c0.248,0.239,0.441,0.533,0.574,0.883
			c0.137,0.35,0.205,0.748,0.205,1.195v3.839c0,0.227,0.033,0.428,0.096,0.605c0.064,0.176,0.182,0.332,0.352,0.467L217.709,35.687z
			 M214.416,34.46c0.221,0,0.438-0.035,0.648-0.105c0.211-0.074,0.404-0.17,0.584-0.289c0.176-0.121,0.332-0.262,0.465-0.422
			c0.133-0.158,0.236-0.326,0.307-0.502v-1.471h-1.41c-0.287,0-0.543,0.039-0.768,0.119c-0.221,0.08-0.41,0.191-0.561,0.332
			c-0.152,0.141-0.268,0.307-0.348,0.496c-0.078,0.191-0.119,0.395-0.119,0.609c0,0.371,0.1,0.668,0.301,0.895
			C213.715,34.349,214.015,34.46,214.416,34.46z"/>
		<path fill="#FFFFFF" d="M223.72,31.494c0-0.656,0.064-1.259,0.188-1.807c0.121-0.548,0.309-1.018,0.563-1.411
			c0.25-0.394,0.568-0.698,0.951-0.914c0.383-0.216,0.834-0.323,1.352-0.323c0.445,0,0.836,0.09,1.174,0.27
			c0.338,0.181,0.631,0.437,0.879,0.771v-4.564h1.541v10.168c0,0.279,0.039,0.492,0.115,0.648c0.076,0.152,0.189,0.295,0.332,0.424
			l-0.693,0.932c-0.063-0.014-0.146-0.055-0.254-0.115c-0.107-0.063-0.221-0.146-0.336-0.252c-0.115-0.104-0.223-0.229-0.32-0.377
			c-0.096-0.145-0.168-0.311-0.207-0.496c-0.125,0.191-0.258,0.361-0.406,0.516c-0.146,0.156-0.313,0.285-0.498,0.395
			c-0.184,0.107-0.391,0.191-0.615,0.248c-0.227,0.061-0.484,0.09-0.771,0.09c-0.479,0-0.902-0.092-1.273-0.27
			c-0.369-0.18-0.68-0.443-0.936-0.789c-0.254-0.348-0.447-0.77-0.582-1.27c-0.133-0.498-0.201-1.068-0.201-1.711V31.494z
			 M225.263,31.656c0,0.441,0.039,0.84,0.115,1.191s0.193,0.652,0.346,0.896c0.156,0.248,0.352,0.436,0.588,0.568
			c0.236,0.131,0.518,0.195,0.84,0.195c0.199,0,0.383-0.039,0.549-0.115c0.164-0.076,0.314-0.178,0.453-0.305
			c0.139-0.125,0.264-0.271,0.375-0.436c0.111-0.162,0.209-0.336,0.297-0.518v-3.56c-0.088-0.169-0.188-0.332-0.301-0.49
			c-0.113-0.156-0.238-0.297-0.373-0.42c-0.137-0.124-0.287-0.221-0.451-0.293c-0.166-0.072-0.344-0.107-0.533-0.107
			c-0.322,0-0.604,0.081-0.844,0.242c-0.238,0.162-0.438,0.387-0.594,0.674c-0.156,0.288-0.275,0.629-0.352,1.022
			c-0.076,0.394-0.115,0.824-0.115,1.291V31.656z"/>
		<path fill="#FFFFFF" d="M236,35.695c-0.541,0-1.027-0.096-1.453-0.291c-0.432-0.195-0.795-0.469-1.096-0.814
			c-0.299-0.348-0.523-0.762-0.684-1.242c-0.154-0.48-0.232-1.006-0.232-1.576v-0.57c0-0.525,0.068-1.035,0.207-1.534
			c0.139-0.499,0.35-0.943,0.635-1.334c0.281-0.391,0.637-0.704,1.068-0.939c0.428-0.236,0.932-0.355,1.51-0.355
			c0.518,0,0.971,0.087,1.359,0.262c0.389,0.174,0.713,0.421,0.969,0.739c0.258,0.318,0.451,0.703,0.58,1.153
			s0.193,0.95,0.193,1.499v1.035h-4.959c0,0.004,0,0.004-0.004,0c-0.002-0.006-0.004-0.006-0.004,0
			c0.006,0.369,0.057,0.727,0.148,1.07s0.232,0.645,0.42,0.902s0.424,0.461,0.705,0.609c0.283,0.15,0.615,0.215,0.996,0.199
			c0.371-0.016,0.74-0.082,1.105-0.203c0.363-0.121,0.703-0.313,1.018-0.574l0.465,0.988c-0.432,0.354-0.902,0.604-1.408,0.754
			C237.031,35.621,236.519,35.695,236,35.695z M235.873,28.241c-0.242,0-0.467,0.059-0.668,0.177
			c-0.203,0.119-0.379,0.28-0.533,0.486c-0.15,0.205-0.275,0.446-0.373,0.724c-0.098,0.277-0.158,0.579-0.186,0.901
			c0.006,0.006,0.01,0.02,0.01,0.04s0,0.032,0,0.038h3.391v-0.316c0-0.292-0.033-0.563-0.105-0.813
			c-0.068-0.25-0.172-0.467-0.311-0.652c-0.139-0.185-0.311-0.329-0.518-0.432C236.375,28.293,236.138,28.241,235.873,28.241z"/>
		<path fill="#FFFFFF" d="M106.148,49.275h-4.58v4.018h5.304v1.188h-6.846V43.255h6.778v1.201h-5.236v3.633h4.58V49.275z"/>
		<path fill="#FFFFFF" d="M108.429,50.439c0-0.656,0.063-1.26,0.184-1.807c0.125-0.547,0.313-1.018,0.566-1.412
			c0.25-0.393,0.568-0.697,0.951-0.912c0.381-0.217,0.834-0.326,1.352-0.326c0.443,0,0.834,0.092,1.172,0.271
			c0.34,0.18,0.633,0.438,0.881,0.771V42.46h1.539v10.168c0,0.277,0.039,0.494,0.115,0.646c0.078,0.156,0.189,0.297,0.334,0.426
			l-0.695,0.934c-0.061-0.016-0.145-0.055-0.254-0.117c-0.107-0.061-0.221-0.143-0.336-0.248c-0.115-0.107-0.221-0.234-0.318-0.379
			c-0.098-0.148-0.168-0.313-0.209-0.498c-0.123,0.191-0.258,0.361-0.404,0.518c-0.146,0.152-0.313,0.285-0.498,0.393
			s-0.393,0.191-0.617,0.25s-0.482,0.09-0.77,0.09c-0.479,0-0.904-0.09-1.273-0.27c-0.371-0.18-0.682-0.443-0.936-0.791
			c-0.256-0.346-0.449-0.77-0.584-1.268c-0.131-0.498-0.199-1.068-0.199-1.713V50.439z M109.972,50.601
			c0,0.443,0.039,0.84,0.115,1.191s0.191,0.652,0.346,0.9c0.156,0.244,0.352,0.434,0.586,0.564c0.238,0.131,0.518,0.195,0.84,0.195
			c0.201,0,0.385-0.037,0.549-0.115c0.164-0.074,0.316-0.176,0.455-0.303s0.264-0.271,0.373-0.436
			c0.111-0.166,0.211-0.338,0.299-0.516v-3.563c-0.088-0.172-0.189-0.334-0.303-0.49c-0.113-0.158-0.238-0.297-0.373-0.42
			c-0.137-0.125-0.287-0.221-0.451-0.293s-0.342-0.109-0.533-0.109c-0.322,0-0.604,0.082-0.844,0.246
			c-0.236,0.16-0.436,0.385-0.594,0.674c-0.156,0.287-0.273,0.627-0.35,1.02c-0.076,0.395-0.115,0.824-0.115,1.291V50.601z"/>
		<path fill="#FFFFFF" d="M122.668,53.392c-0.246,0.432-0.576,0.748-0.994,0.949c-0.416,0.199-0.873,0.301-1.371,0.301
			c-0.416,0-0.787-0.07-1.115-0.213c-0.324-0.141-0.604-0.359-0.828-0.65c-0.227-0.293-0.4-0.664-0.521-1.115
			c-0.119-0.447-0.18-0.982-0.18-1.6V46.14h1.541v4.939c0,0.443,0.031,0.813,0.09,1.111c0.057,0.297,0.146,0.537,0.262,0.719
			c0.115,0.184,0.264,0.314,0.439,0.395c0.178,0.078,0.389,0.119,0.629,0.119c0.23,0,0.441-0.035,0.633-0.104
			c0.195-0.07,0.369-0.166,0.523-0.289c0.154-0.125,0.289-0.266,0.408-0.43c0.117-0.16,0.221-0.334,0.307-0.518l-0.014-5.943h1.557
			v6.488c0.01,0.254,0.045,0.459,0.1,0.621c0.057,0.162,0.172,0.314,0.348,0.459l-0.701,0.926c-0.174-0.061-0.33-0.15-0.463-0.266
			c-0.133-0.117-0.248-0.238-0.344-0.361c-0.094-0.127-0.168-0.248-0.217-0.361C122.703,53.535,122.674,53.451,122.668,53.392z"/>
		<path fill="#FFFFFF" d="M129.754,53.453c0.381,0,0.732-0.068,1.061-0.207c0.326-0.139,0.596-0.324,0.813-0.553l0.547,0.953
			c-0.127,0.135-0.275,0.264-0.439,0.381c-0.162,0.121-0.35,0.229-0.557,0.318c-0.211,0.088-0.438,0.16-0.688,0.215
			s-0.52,0.082-0.814,0.082c-0.568,0-1.072-0.102-1.506-0.301c-0.434-0.201-0.797-0.479-1.088-0.832
			c-0.289-0.355-0.51-0.773-0.658-1.254s-0.225-1.002-0.225-1.568v-0.748c0-0.561,0.076-1.082,0.225-1.566
			c0.148-0.482,0.369-0.9,0.658-1.256c0.291-0.354,0.654-0.631,1.088-0.832s0.938-0.303,1.506-0.303
			c0.295,0,0.564,0.027,0.814,0.078c0.25,0.053,0.477,0.121,0.688,0.209c0.207,0.086,0.395,0.189,0.557,0.305
			c0.164,0.117,0.314,0.24,0.447,0.373l-0.555,1.002c-0.217-0.229-0.486-0.418-0.813-0.563c-0.328-0.143-0.68-0.215-1.061-0.215
			c-0.336,0-0.627,0.074-0.875,0.223c-0.248,0.15-0.455,0.354-0.619,0.605c-0.166,0.254-0.291,0.555-0.379,0.9
			c-0.088,0.35-0.133,0.719-0.139,1.109v0.486c0,0.404,0.041,0.787,0.123,1.148c0.082,0.359,0.207,0.67,0.371,0.939
			c0.164,0.268,0.373,0.479,0.627,0.637C129.119,53.375,129.414,53.453,129.754,53.453z"/>
		<path fill="#FFFFFF" d="M139.176,54.634c-0.113-0.037-0.232-0.098-0.352-0.182c-0.121-0.084-0.236-0.184-0.344-0.297
			s-0.201-0.234-0.277-0.371c-0.076-0.135-0.129-0.268-0.152-0.408c-0.131,0.191-0.285,0.363-0.469,0.521
			c-0.184,0.156-0.381,0.291-0.594,0.402c-0.213,0.107-0.438,0.193-0.674,0.252s-0.475,0.09-0.719,0.09
			c-0.393,0-0.744-0.059-1.051-0.174c-0.305-0.115-0.563-0.279-0.77-0.492c-0.209-0.217-0.367-0.475-0.475-0.781
			c-0.109-0.307-0.164-0.648-0.164-1.029c0-0.4,0.078-0.76,0.232-1.08c0.154-0.316,0.377-0.586,0.668-0.809
			c0.289-0.221,0.641-0.391,1.051-0.508s0.877-0.178,1.396-0.178h1.402v-0.818c0-0.502-0.121-0.895-0.365-1.182
			c-0.244-0.285-0.623-0.426-1.137-0.42c-0.242,0-0.475,0.023-0.695,0.072s-0.428,0.113-0.625,0.189
			c-0.193,0.076-0.373,0.164-0.533,0.258c-0.164,0.096-0.305,0.191-0.43,0.289l-0.516-0.961c0.098-0.082,0.236-0.182,0.418-0.301
			c0.184-0.115,0.404-0.23,0.664-0.34s0.553-0.203,0.879-0.279s0.688-0.117,1.084-0.117c0.41,0,0.787,0.064,1.133,0.188
			c0.346,0.125,0.641,0.303,0.887,0.543c0.246,0.238,0.439,0.533,0.574,0.883c0.137,0.35,0.203,0.746,0.203,1.195v3.838
			c0,0.229,0.033,0.43,0.098,0.607c0.064,0.176,0.18,0.332,0.35,0.465L139.176,54.634z M135.881,53.408
			c0.223,0,0.439-0.037,0.65-0.107c0.209-0.072,0.404-0.168,0.58-0.289c0.18-0.123,0.334-0.262,0.469-0.42
			c0.133-0.16,0.234-0.326,0.307-0.5v-1.475h-1.41c-0.289,0-0.543,0.039-0.768,0.121c-0.223,0.078-0.41,0.189-0.563,0.33
			c-0.15,0.141-0.268,0.307-0.346,0.496c-0.08,0.189-0.121,0.395-0.121,0.609c0,0.371,0.1,0.67,0.301,0.896
			C135.181,53.294,135.482,53.408,135.881,53.408z"/>
		<path fill="#FFFFFF" d="M145.056,53.447c0.381,0,0.734-0.07,1.061-0.205c0.326-0.139,0.596-0.322,0.814-0.549l0.545,0.953
			c-0.24,0.254-0.545,0.473-0.916,0.662c-0.371,0.186-0.818,0.295-1.35,0.326l-0.162,0.547c0.154,0.025,0.299,0.068,0.428,0.131
			c0.131,0.061,0.244,0.146,0.34,0.254c0.096,0.109,0.172,0.24,0.227,0.393c0.059,0.154,0.084,0.342,0.084,0.557
			c0,0.33-0.063,0.609-0.189,0.844c-0.123,0.234-0.297,0.428-0.52,0.578c-0.221,0.152-0.482,0.266-0.785,0.336
			c-0.305,0.072-0.633,0.107-0.986,0.107l-0.047-0.855c0.154,0,0.307-0.018,0.459-0.051s0.285-0.084,0.404-0.154
			s0.215-0.16,0.289-0.266c0.074-0.109,0.111-0.24,0.111-0.389c0-0.238-0.076-0.436-0.23-0.594c-0.154-0.156-0.434-0.25-0.84-0.281
			l0.332-1.242c-0.434-0.092-0.813-0.254-1.137-0.486c-0.328-0.229-0.602-0.514-0.822-0.85c-0.221-0.338-0.387-0.721-0.498-1.15
			c-0.109-0.428-0.166-0.889-0.166-1.375v-0.748c0-0.561,0.074-1.082,0.225-1.566c0.148-0.482,0.369-0.9,0.658-1.256
			c0.291-0.354,0.654-0.631,1.088-0.832s0.938-0.303,1.508-0.303c0.293,0,0.564,0.027,0.813,0.078
			c0.248,0.053,0.479,0.121,0.688,0.209c0.207,0.086,0.395,0.189,0.557,0.305c0.166,0.117,0.314,0.24,0.447,0.373l-0.553,1.002
			c-0.219-0.229-0.488-0.418-0.814-0.563c-0.326-0.143-0.68-0.215-1.061-0.215c-0.334,0-0.627,0.074-0.875,0.223
			s-0.455,0.352-0.619,0.605c-0.166,0.252-0.291,0.555-0.379,0.9c-0.088,0.348-0.133,0.715-0.139,1.105v0.484
			c0,0.404,0.043,0.787,0.123,1.148c0.082,0.359,0.205,0.672,0.371,0.938c0.164,0.268,0.373,0.48,0.627,0.637
			C144.42,53.367,144.717,53.447,145.056,53.447z"/>
		<path fill="#FFFFFF" d="M154.492,54.634c-0.111-0.037-0.23-0.098-0.35-0.182c-0.123-0.084-0.236-0.184-0.342-0.297
			c-0.109-0.113-0.201-0.234-0.279-0.371c-0.078-0.135-0.129-0.268-0.154-0.408c-0.127,0.191-0.283,0.363-0.467,0.521
			c-0.182,0.156-0.381,0.291-0.594,0.402c-0.213,0.107-0.438,0.193-0.674,0.252s-0.475,0.09-0.717,0.09
			c-0.396,0-0.746-0.059-1.053-0.174s-0.563-0.279-0.771-0.492c-0.209-0.217-0.365-0.475-0.475-0.781
			c-0.107-0.307-0.16-0.648-0.16-1.029c0-0.4,0.076-0.76,0.232-1.08c0.152-0.316,0.375-0.586,0.666-0.809
			c0.289-0.221,0.641-0.391,1.051-0.508c0.412-0.117,0.877-0.178,1.396-0.178h1.402v-0.818c0-0.502-0.121-0.895-0.365-1.182
			c-0.246-0.285-0.625-0.426-1.137-0.42c-0.242,0-0.475,0.023-0.695,0.072s-0.428,0.113-0.623,0.189s-0.373,0.164-0.537,0.258
			c-0.162,0.096-0.303,0.191-0.428,0.289l-0.518-0.961c0.098-0.082,0.24-0.182,0.422-0.301c0.182-0.115,0.404-0.23,0.664-0.34
			c0.258-0.109,0.551-0.203,0.877-0.279s0.688-0.117,1.084-0.117c0.41,0,0.789,0.064,1.133,0.188
			c0.346,0.125,0.641,0.303,0.887,0.543c0.246,0.238,0.438,0.533,0.574,0.883c0.135,0.35,0.205,0.746,0.205,1.195v3.838
			c0,0.229,0.031,0.43,0.096,0.607c0.064,0.176,0.182,0.332,0.35,0.465L154.492,54.634z M154.609,42.746
			c0,0.258-0.047,0.492-0.139,0.705c-0.094,0.215-0.215,0.398-0.365,0.549c-0.154,0.15-0.326,0.27-0.521,0.354
			s-0.4,0.127-0.611,0.127c-0.277,0-0.51-0.033-0.699-0.096c-0.191-0.064-0.359-0.137-0.51-0.217
			c-0.148-0.08-0.291-0.15-0.428-0.213c-0.137-0.066-0.291-0.098-0.467-0.098c-0.199,0-0.375,0.063-0.523,0.189
			c-0.148,0.123-0.225,0.305-0.225,0.543l-0.85-0.148c0-0.252,0.047-0.486,0.137-0.703c0.09-0.219,0.211-0.406,0.363-0.561
			c0.152-0.16,0.326-0.281,0.523-0.371c0.199-0.092,0.404-0.139,0.621-0.139c0.262,0,0.486,0.033,0.67,0.098
			c0.186,0.064,0.354,0.137,0.506,0.217c0.152,0.078,0.299,0.15,0.439,0.215c0.143,0.064,0.305,0.096,0.49,0.096
			c0.09,0,0.184-0.014,0.271-0.045c0.092-0.031,0.17-0.076,0.24-0.139c0.07-0.061,0.125-0.137,0.17-0.229
			c0.043-0.09,0.064-0.197,0.064-0.32L154.609,42.746z M151.201,53.408c0.221,0,0.436-0.037,0.646-0.107
			c0.211-0.072,0.406-0.168,0.582-0.289c0.178-0.123,0.334-0.262,0.467-0.42c0.135-0.16,0.236-0.326,0.309-0.5v-1.475h-1.41
			c-0.287,0-0.543,0.039-0.768,0.121c-0.225,0.078-0.412,0.189-0.563,0.33c-0.152,0.141-0.266,0.307-0.348,0.496
			c-0.08,0.189-0.117,0.395-0.117,0.609c0,0.371,0.1,0.67,0.301,0.896C150.498,53.294,150.799,53.408,151.201,53.408z"/>
		<path fill="#FFFFFF" d="M156.822,50.009c0-0.576,0.078-1.109,0.236-1.6c0.162-0.492,0.391-0.918,0.691-1.277
			s0.666-0.641,1.096-0.844c0.428-0.203,0.914-0.307,1.459-0.307s1.033,0.104,1.467,0.307c0.43,0.203,0.797,0.484,1.098,0.844
			s0.533,0.785,0.693,1.277c0.162,0.49,0.242,1.023,0.242,1.6v0.615c0,0.586-0.08,1.123-0.242,1.615
			c-0.16,0.49-0.393,0.914-0.693,1.27c-0.301,0.354-0.666,0.631-1.094,0.832c-0.432,0.199-0.916,0.301-1.453,0.301
			c-0.551,0-1.043-0.102-1.473-0.301c-0.434-0.201-0.799-0.48-1.1-0.836c-0.301-0.357-0.529-0.783-0.691-1.273
			c-0.158-0.49-0.236-1.027-0.236-1.607V50.009z M158.363,50.625c0,0.406,0.039,0.783,0.117,1.129
			c0.082,0.348,0.201,0.648,0.365,0.898c0.16,0.252,0.365,0.449,0.611,0.592c0.248,0.139,0.537,0.209,0.865,0.209
			c0.324,0,0.605-0.072,0.846-0.213c0.244-0.146,0.443-0.344,0.607-0.596c0.162-0.25,0.283-0.551,0.365-0.898
			c0.082-0.346,0.125-0.721,0.125-1.121v-0.615c0-0.402-0.043-0.773-0.125-1.115s-0.205-0.641-0.369-0.895
			c-0.164-0.252-0.369-0.453-0.613-0.598c-0.244-0.143-0.529-0.217-0.854-0.217c-0.332,0-0.621,0.076-0.863,0.221
			c-0.24,0.148-0.443,0.348-0.604,0.602c-0.164,0.254-0.281,0.555-0.359,0.898c-0.078,0.346-0.115,0.713-0.115,1.104V50.625z"/>
		<path fill="#FFFFFF" d="M174.892,54.634c-0.113-0.037-0.23-0.098-0.352-0.182c-0.119-0.084-0.234-0.184-0.344-0.297
			c-0.107-0.113-0.199-0.234-0.277-0.371c-0.076-0.135-0.129-0.268-0.154-0.408c-0.127,0.191-0.285,0.363-0.467,0.521
			c-0.184,0.156-0.381,0.291-0.592,0.402c-0.215,0.107-0.439,0.193-0.676,0.252s-0.475,0.09-0.717,0.09
			c-0.396,0-0.746-0.059-1.053-0.174c-0.305-0.115-0.563-0.279-0.771-0.492c-0.207-0.217-0.365-0.475-0.475-0.781
			c-0.105-0.307-0.16-0.648-0.16-1.029c0-0.4,0.076-0.76,0.232-1.08c0.152-0.316,0.375-0.586,0.666-0.809
			c0.291-0.221,0.641-0.391,1.053-0.508c0.41-0.117,0.875-0.178,1.395-0.178h1.402v-0.818c0-0.502-0.123-0.895-0.365-1.182
			c-0.244-0.285-0.623-0.426-1.137-0.42c-0.24,0-0.475,0.023-0.695,0.072c-0.219,0.049-0.428,0.113-0.623,0.189
			s-0.375,0.164-0.535,0.258c-0.164,0.096-0.305,0.191-0.43,0.289l-0.518-0.961c0.098-0.082,0.24-0.182,0.422-0.301
			c0.182-0.115,0.402-0.23,0.662-0.34s0.553-0.203,0.879-0.279s0.688-0.117,1.082-0.117c0.412,0,0.789,0.064,1.135,0.188
			c0.346,0.125,0.641,0.303,0.887,0.543c0.248,0.238,0.439,0.533,0.574,0.883c0.137,0.35,0.205,0.746,0.205,1.195v3.838
			c0,0.229,0.031,0.43,0.096,0.607c0.064,0.176,0.182,0.332,0.35,0.465L174.892,54.634z M171.599,53.408
			c0.221,0,0.438-0.037,0.648-0.107c0.209-0.072,0.404-0.168,0.58-0.289c0.178-0.123,0.334-0.262,0.467-0.42
			c0.135-0.16,0.236-0.326,0.309-0.5v-1.475h-1.41c-0.287,0-0.543,0.039-0.768,0.121c-0.225,0.078-0.412,0.189-0.563,0.33
			s-0.266,0.307-0.346,0.496s-0.121,0.395-0.121,0.609c0,0.371,0.102,0.67,0.303,0.896
			C170.898,53.294,171.199,53.408,171.599,53.408z"/>
		<path fill="#FFFFFF" d="M181.552,54.48V43.255h2.656c0.707,0,1.371,0.092,1.99,0.277c0.615,0.186,1.152,0.484,1.613,0.895
			c0.457,0.41,0.816,0.947,1.078,1.607s0.395,1.463,0.395,2.408v0.855c0,0.799-0.109,1.514-0.328,2.156
			c-0.219,0.639-0.531,1.182-0.939,1.629c-0.404,0.449-0.898,0.793-1.477,1.035c-0.578,0.24-1.227,0.361-1.949,0.361H181.552z
			 M183.094,44.457v8.836h1.467c0.512,0,0.969-0.092,1.361-0.273c0.396-0.184,0.73-0.445,1-0.791
			c0.27-0.344,0.475-0.764,0.613-1.256s0.207-1.051,0.207-1.674v-0.871c0-0.605-0.068-1.152-0.207-1.645s-0.342-0.91-0.609-1.252
			c-0.268-0.346-0.602-0.611-0.998-0.795c-0.398-0.188-0.855-0.279-1.367-0.279H183.094z"/>
		<path fill="#FFFFFF" d="M193.025,43.978h-1.543v-1.525h1.543V43.978z M193.025,54.48h-1.543v-8.34h1.543V54.48z"/>
		<path fill="#FFFFFF" d="M199.328,52.392c0-0.131-0.016-0.26-0.049-0.383c-0.033-0.127-0.1-0.248-0.203-0.361
			c-0.104-0.117-0.252-0.229-0.451-0.336c-0.197-0.109-0.461-0.215-0.791-0.318c-0.463-0.137-0.859-0.287-1.186-0.441
			c-0.33-0.156-0.6-0.336-0.811-0.535c-0.211-0.201-0.365-0.43-0.463-0.688c-0.098-0.256-0.146-0.557-0.146-0.902
			c0-0.35,0.064-0.672,0.189-0.971s0.305-0.557,0.539-0.773c0.232-0.221,0.52-0.389,0.857-0.514
			c0.334-0.123,0.717-0.188,1.145-0.188c0.363,0,0.689,0.033,0.98,0.098s0.553,0.146,0.779,0.244c0.23,0.098,0.426,0.199,0.59,0.311
			s0.307,0.217,0.426,0.313l-0.418,1.064c-0.184-0.129-0.365-0.244-0.543-0.348c-0.178-0.102-0.355-0.189-0.533-0.258
			c-0.176-0.068-0.357-0.123-0.543-0.158c-0.186-0.037-0.379-0.055-0.586-0.055c-0.262,0-0.48,0.031-0.658,0.09
			c-0.178,0.061-0.318,0.139-0.42,0.234c-0.104,0.098-0.176,0.211-0.219,0.336c-0.045,0.127-0.066,0.26-0.066,0.396
			c0,0.113,0.01,0.223,0.035,0.328c0.023,0.105,0.08,0.211,0.176,0.314c0.096,0.1,0.238,0.199,0.428,0.299
			c0.191,0.098,0.455,0.195,0.793,0.291c0.943,0.285,1.623,0.645,2.045,1.076c0.42,0.434,0.631,0.943,0.631,1.525
			c0,0.398-0.066,0.758-0.199,1.074s-0.32,0.582-0.564,0.801c-0.24,0.219-0.533,0.387-0.877,0.506
			c-0.346,0.119-0.727,0.178-1.141,0.178c-0.607,0-1.164-0.088-1.674-0.262c-0.508-0.176-0.951-0.408-1.326-0.703l0.432-1.078
			c0.4,0.262,0.801,0.467,1.199,0.613s0.822,0.219,1.277,0.219c0.25,0,0.463-0.027,0.639-0.084c0.174-0.059,0.313-0.135,0.416-0.232
			c0.102-0.098,0.178-0.211,0.223-0.334C199.306,52.654,199.328,52.523,199.328,52.392z"/>
		<path fill="#FFFFFF" d="M204.664,44.095v2.045h1.674v1.123h-1.674v5.012c0,0.412,0.074,0.703,0.225,0.875
			c0.148,0.172,0.361,0.258,0.639,0.258c0.109,0,0.229-0.018,0.359-0.049c0.131-0.033,0.254-0.072,0.365-0.113l0.18,1.057
			c-0.074,0.041-0.166,0.084-0.277,0.123c-0.107,0.041-0.227,0.076-0.354,0.107c-0.125,0.031-0.252,0.059-0.381,0.078
			c-0.127,0.02-0.246,0.031-0.354,0.031c-0.305,0-0.574-0.047-0.816-0.137c-0.236-0.09-0.439-0.229-0.607-0.418
			c-0.166-0.189-0.295-0.436-0.385-0.729c-0.09-0.297-0.137-0.65-0.137-1.061v-5.035h-1.201V46.14h1.201v-2.045H204.664z"/>
		<path fill="#FFFFFF" d="M213.429,54.634c-0.111-0.037-0.23-0.098-0.35-0.182c-0.121-0.084-0.236-0.184-0.344-0.297
			s-0.201-0.234-0.277-0.371c-0.078-0.135-0.129-0.268-0.154-0.408c-0.129,0.191-0.283,0.363-0.465,0.521
			c-0.184,0.156-0.381,0.291-0.596,0.402c-0.213,0.107-0.439,0.193-0.674,0.252c-0.236,0.059-0.477,0.09-0.717,0.09
			c-0.395,0-0.748-0.059-1.051-0.174c-0.309-0.115-0.564-0.279-0.771-0.492c-0.209-0.217-0.367-0.475-0.475-0.781
			c-0.109-0.307-0.164-0.648-0.164-1.029c0-0.4,0.08-0.76,0.234-1.08c0.152-0.316,0.375-0.586,0.664-0.809
			c0.291-0.221,0.641-0.391,1.053-0.508s0.877-0.178,1.395-0.178h1.404v-0.818c0-0.502-0.121-0.895-0.367-1.182
			c-0.242-0.285-0.623-0.426-1.137-0.42c-0.24,0-0.473,0.023-0.691,0.072c-0.223,0.049-0.432,0.113-0.627,0.189
			s-0.373,0.164-0.533,0.258c-0.164,0.096-0.307,0.191-0.43,0.289l-0.516-0.961c0.098-0.082,0.236-0.182,0.418-0.301
			c0.182-0.115,0.404-0.23,0.662-0.34c0.264-0.109,0.553-0.203,0.881-0.279s0.688-0.117,1.084-0.117c0.41,0,0.787,0.064,1.133,0.188
			c0.344,0.125,0.639,0.303,0.887,0.543c0.246,0.238,0.438,0.533,0.572,0.883c0.139,0.35,0.205,0.746,0.205,1.195v3.838
			c0,0.229,0.033,0.43,0.098,0.607c0.063,0.176,0.18,0.332,0.35,0.465L213.429,54.634z M213.56,44.935h-1.256l-1.426-1.25
			l-1.418,1.25h-1.234l2.111-2.535h1.088L213.56,44.935z M210.138,53.408c0.221,0,0.438-0.037,0.646-0.107
			c0.211-0.072,0.404-0.168,0.584-0.289c0.176-0.123,0.332-0.262,0.465-0.42c0.133-0.16,0.236-0.326,0.309-0.5v-1.475h-1.41
			c-0.289,0-0.543,0.039-0.768,0.121c-0.223,0.078-0.41,0.189-0.564,0.33c-0.15,0.141-0.266,0.307-0.346,0.496
			c-0.078,0.189-0.119,0.395-0.119,0.609c0,0.371,0.1,0.67,0.301,0.896C209.437,53.294,209.738,53.408,210.138,53.408z"/>
		<path fill="#FFFFFF" d="M217.502,46.14l0.152,1.238c0.254-0.436,0.576-0.777,0.975-1.025c0.4-0.246,0.848-0.371,1.346-0.371
			c0.406,0,0.77,0.066,1.088,0.199c0.318,0.131,0.588,0.332,0.811,0.602c0.221,0.27,0.389,0.609,0.504,1.021
			s0.174,0.896,0.174,1.457v5.219h-1.543v-5.197c0-0.354-0.041-0.662-0.119-0.924c-0.08-0.262-0.188-0.479-0.322-0.648
			c-0.139-0.17-0.293-0.295-0.471-0.377s-0.365-0.125-0.566-0.125c-0.314,0-0.633,0.098-0.949,0.293
			c-0.318,0.195-0.596,0.479-0.834,0.848v6.131h-1.541v-8.34H217.502z"/>
		<path fill="#FFFFFF" d="M228.185,53.453c0.379,0,0.734-0.068,1.059-0.207c0.328-0.139,0.6-0.324,0.814-0.553l0.549,0.953
			c-0.131,0.135-0.275,0.264-0.439,0.381c-0.166,0.121-0.352,0.229-0.559,0.318c-0.209,0.088-0.438,0.16-0.688,0.215
			s-0.521,0.082-0.814,0.082c-0.57,0-1.07-0.102-1.506-0.301c-0.434-0.201-0.797-0.479-1.086-0.832
			c-0.291-0.355-0.512-0.773-0.658-1.254c-0.15-0.48-0.227-1.002-0.227-1.568v-0.748c0-0.561,0.076-1.082,0.227-1.566
			c0.146-0.482,0.367-0.9,0.658-1.256c0.289-0.354,0.652-0.631,1.086-0.832c0.436-0.201,0.936-0.303,1.506-0.303
			c0.293,0,0.564,0.027,0.814,0.078c0.25,0.053,0.479,0.121,0.688,0.209c0.207,0.086,0.393,0.189,0.559,0.305
			c0.164,0.117,0.313,0.24,0.447,0.373l-0.557,1.002c-0.215-0.229-0.486-0.418-0.814-0.563c-0.324-0.143-0.68-0.215-1.059-0.215
			c-0.334,0-0.625,0.074-0.875,0.223c-0.25,0.15-0.457,0.354-0.621,0.605c-0.164,0.254-0.289,0.555-0.377,0.9
			c-0.088,0.35-0.133,0.719-0.139,1.109v0.486c0,0.404,0.041,0.787,0.123,1.148c0.082,0.359,0.205,0.67,0.369,0.939
			c0.166,0.268,0.375,0.479,0.629,0.637C227.549,53.375,227.847,53.453,228.185,53.453z"/>
		<path fill="#FFFFFF" d="M233.867,43.978h-1.541v-1.525h1.541V43.978z M233.867,54.48h-1.541v-8.34h1.541V54.48z"/>
		<path fill="#FFFFFF" d="M241.738,54.634c-0.113-0.037-0.23-0.098-0.352-0.182c-0.119-0.084-0.234-0.184-0.342-0.297
			s-0.201-0.234-0.277-0.371c-0.076-0.135-0.129-0.268-0.152-0.408c-0.131,0.191-0.285,0.363-0.467,0.521
			c-0.186,0.156-0.381,0.291-0.596,0.402c-0.213,0.107-0.438,0.193-0.674,0.252c-0.238,0.059-0.477,0.09-0.719,0.09
			c-0.395,0-0.746-0.059-1.051-0.174s-0.564-0.279-0.77-0.492c-0.209-0.217-0.369-0.475-0.475-0.781
			c-0.109-0.307-0.164-0.648-0.164-1.029c0-0.4,0.078-0.76,0.232-1.08c0.154-0.316,0.377-0.586,0.666-0.809
			c0.291-0.221,0.643-0.391,1.053-0.508s0.877-0.178,1.396-0.178h1.4v-0.818c0-0.502-0.119-0.895-0.365-1.182
			c-0.242-0.285-0.621-0.426-1.137-0.42c-0.24,0-0.473,0.023-0.693,0.072s-0.43,0.113-0.625,0.189s-0.373,0.164-0.533,0.258
			c-0.166,0.096-0.307,0.191-0.43,0.289l-0.516-0.961c0.098-0.082,0.236-0.182,0.418-0.301c0.184-0.115,0.404-0.23,0.664-0.34
			s0.551-0.203,0.879-0.279c0.326-0.076,0.688-0.117,1.084-0.117c0.41,0,0.787,0.064,1.133,0.188
			c0.344,0.125,0.641,0.303,0.885,0.543c0.25,0.238,0.439,0.533,0.576,0.883s0.203,0.746,0.203,1.195v3.838
			c0,0.229,0.033,0.43,0.098,0.607c0.064,0.176,0.18,0.332,0.35,0.465L241.738,54.634z M238.445,53.408
			c0.223,0,0.438-0.037,0.65-0.107c0.209-0.072,0.402-0.168,0.58-0.289c0.178-0.123,0.334-0.262,0.469-0.42
			c0.131-0.16,0.234-0.326,0.305-0.5v-1.475h-1.408c-0.289,0-0.543,0.039-0.768,0.121c-0.225,0.078-0.41,0.189-0.564,0.33
			c-0.15,0.141-0.266,0.307-0.346,0.496c-0.078,0.189-0.119,0.395-0.119,0.609c0,0.371,0.1,0.67,0.301,0.896
			C237.746,53.294,238.045,53.408,238.445,53.408z"/>
	</g>

</svg>
