<?xml version="1.0" encoding="utf-8"?>
<!-- Generator: Adobe Illustrator 16.0.3, SVG Export Plug-In . SVG Version: 6.00 Build 0)  -->
<!DOCTYPE svg PUBLIC "-//W3C//DTD SVG 1.1//EN" "http://www.w3.org/Graphics/SVG/1.1/DTD/svg11.dtd">
<svg version="1.1" id="Camada_1" xmlns="http://www.w3.org/2000/svg" xmlns:xlink="http://www.w3.org/1999/xlink" x="0px" y="0px"
	 width="350.527px" height="100.729px" viewBox="0 0 350.527 100.729" enable-background="new 0 0 350.527 100.729"
	 xml:space="preserve">
<g>
	<path fill="#FFFFFF" d="M171.18,50.707c-0.969-0.279-1.779-0.583-2.439-0.913c-0.66-0.33-1.192-0.698-1.597-1.108
		c-0.405-0.408-0.697-0.859-0.874-1.355c-0.175-0.495-0.265-1.053-0.265-1.676c0-0.645,0.126-1.241,0.379-1.789
		c0.25-0.548,0.6-1.018,1.043-1.413c0.447-0.392,0.983-0.7,1.604-0.922c0.624-0.22,1.306-0.331,2.049-0.331
		c0.682,0,1.282,0.045,1.799,0.135c0.517,0.09,0.983,0.219,1.4,0.389c0.415,0.167,0.799,0.369,1.148,0.601
		c0.347,0.233,0.691,0.487,1.029,0.765l-0.922,1.53c-0.286-0.255-0.606-0.481-0.963-0.681c-0.354-0.198-0.724-0.365-1.107-0.5
		c-0.381-0.135-0.77-0.236-1.16-0.304c-0.389-0.067-0.757-0.101-1.102-0.101c-0.974,0-1.711,0.235-2.214,0.702
		c-0.502,0.47-0.755,1.097-0.755,1.885c0,0.352,0.068,0.667,0.208,0.945c0.139,0.277,0.354,0.528,0.648,0.753
		c0.293,0.225,0.67,0.434,1.131,0.624c0.461,0.192,1.015,0.381,1.661,0.568c0.971,0.285,1.77,0.592,2.4,0.922
		c0.629,0.33,1.134,0.697,1.502,1.102c0.372,0.405,0.634,0.858,0.784,1.362c0.15,0.503,0.226,1.061,0.226,1.676
		c0,0.645-0.141,1.241-0.417,1.788c-0.279,0.549-0.665,1.017-1.155,1.413c-0.49,0.394-1.065,0.701-1.726,0.922
		c-0.658,0.221-1.374,0.332-2.146,0.332c-0.653,0-1.257-0.045-1.813-0.135c-0.553-0.09-1.065-0.217-1.534-0.383
		c-0.469-0.164-0.901-0.363-1.294-0.596s-0.76-0.492-1.097-0.777l0.925-1.528c0.284,0.262,0.617,0.489,0.998,0.685
		c0.384,0.196,0.787,0.362,1.211,0.496c0.422,0.135,0.852,0.237,1.282,0.305c0.432,0.067,0.837,0.101,1.221,0.101
		c0.517,0,0.979-0.06,1.384-0.181c0.405-0.119,0.75-0.291,1.037-0.517c0.284-0.226,0.502-0.498,0.65-0.815
		c0.15-0.317,0.226-0.676,0.226-1.073c0-0.353-0.056-0.667-0.163-0.945c-0.109-0.276-0.293-0.528-0.551-0.754
		c-0.26-0.224-0.604-0.435-1.037-0.63C172.365,51.087,171.824,50.895,171.18,50.707z"/>
	<path fill="#FFFFFF" d="M184.533,58.052c-0.789,0-1.496-0.143-2.122-0.427s-1.16-0.682-1.595-1.187
		c-0.435-0.508-0.767-1.109-0.995-1.813c-0.231-0.699-0.345-1.467-0.345-2.3v-0.832c0-0.765,0.102-1.511,0.306-2.238
		c0.202-0.728,0.51-1.376,0.92-1.946c0.415-0.57,0.935-1.028,1.561-1.372c0.628-0.346,1.361-0.517,2.201-0.517
		c0.757,0,1.423,0.126,1.988,0.382c0.568,0.254,1.039,0.614,1.415,1.08c0.374,0.465,0.655,1.026,0.842,1.682
		c0.189,0.655,0.284,1.386,0.284,2.187v1.506h-7.233c0,0.008-0.002,0.008-0.007,0c-0.002-0.006-0.005-0.006-0.005,0
		c0.007,0.541,0.08,1.062,0.213,1.564c0.136,0.501,0.34,0.939,0.614,1.314s0.617,0.672,1.029,0.891
		c0.415,0.216,0.898,0.314,1.454,0.292c0.542-0.022,1.078-0.122,1.612-0.299c0.532-0.175,1.027-0.454,1.486-0.837l0.68,1.438
		c-0.631,0.519-1.316,0.886-2.056,1.104C186.041,57.943,185.291,58.052,184.533,58.052z M184.349,47.175
		c-0.354,0-0.677,0.086-0.976,0.258c-0.293,0.172-0.553,0.409-0.774,0.709c-0.224,0.3-0.403,0.653-0.546,1.058
		c-0.141,0.404-0.23,0.842-0.27,1.315c0.007,0.007,0.012,0.027,0.012,0.056c0,0.03,0,0.048,0,0.056h4.949v-0.461
		c0-0.427-0.051-0.823-0.153-1.187c-0.1-0.362-0.252-0.68-0.454-0.95c-0.204-0.27-0.454-0.48-0.755-0.631
		C185.082,47.25,184.737,47.175,184.349,47.175z"/>
	<path fill="#FFFFFF" d="M196.796,56.32c0.554,0,1.071-0.101,1.546-0.304c0.476-0.201,0.872-0.473,1.187-0.812l0.799,1.396
		c-0.188,0.197-0.4,0.382-0.642,0.56c-0.239,0.175-0.512,0.329-0.815,0.458c-0.304,0.135-0.639,0.238-1,0.316
		c-0.367,0.08-0.762,0.119-1.189,0.119c-0.831,0-1.563-0.147-2.199-0.439c-0.631-0.292-1.163-0.695-1.585-1.213
		c-0.425-0.52-0.746-1.126-0.961-1.828c-0.219-0.701-0.328-1.466-0.328-2.29v-1.091c0-0.818,0.109-1.578,0.328-2.284
		c0.216-0.705,0.537-1.316,0.961-1.833c0.422-0.518,0.954-0.922,1.585-1.215c0.636-0.292,1.369-0.438,2.199-0.438
		c0.427,0,0.823,0.037,1.189,0.112c0.361,0.074,0.696,0.176,1,0.303c0.303,0.127,0.576,0.276,0.815,0.443
		c0.24,0.17,0.457,0.352,0.653,0.546l-0.811,1.462c-0.315-0.337-0.711-0.611-1.188-0.821s-0.993-0.315-1.546-0.315
		c-0.488,0-0.913,0.108-1.279,0.326c-0.361,0.218-0.663,0.512-0.903,0.884c-0.24,0.37-0.425,0.809-0.551,1.315
		c-0.129,0.507-0.197,1.045-0.204,1.615V52c0,0.595,0.061,1.152,0.18,1.677c0.122,0.523,0.301,0.982,0.542,1.373
		c0.24,0.39,0.546,0.699,0.915,0.926C195.869,56.205,196.301,56.32,196.796,56.32z"/>
	<path fill="#FFFFFF" d="M208.603,47.59l-1.102-0.067c-0.541,0-0.988,0.143-1.34,0.428c-0.353,0.285-0.625,0.679-0.812,1.182v8.684
		h-2.25V45.645h1.925l0.248,1.811c0.284-0.63,0.668-1.125,1.148-1.491c0.479-0.363,1.021-0.544,1.629-0.544
		c0.15,0,0.303,0.013,0.456,0.039c0.153,0.027,0.284,0.058,0.389,0.096L208.603,47.59z"/>
	<path fill="#FFFFFF" d="M215.307,58.052c-0.789,0-1.498-0.143-2.122-0.427c-0.629-0.284-1.16-0.682-1.597-1.187
		c-0.435-0.508-0.767-1.109-0.995-1.813c-0.229-0.699-0.346-1.467-0.346-2.3v-0.832c0-0.765,0.103-1.511,0.307-2.238
		c0.204-0.728,0.51-1.376,0.922-1.946c0.413-0.57,0.932-1.028,1.561-1.372c0.627-0.346,1.359-0.517,2.203-0.517
		c0.756,0,1.42,0.126,1.987,0.382c0.568,0.254,1.037,0.614,1.413,1.08c0.376,0.465,0.658,1.026,0.846,1.682
		c0.187,0.655,0.281,1.386,0.281,2.187v1.506h-7.232c0,0.008,0,0.008-0.006,0c-0.002-0.006-0.007-0.006-0.007,0
		c0.011,0.541,0.08,1.062,0.216,1.564c0.137,0.501,0.34,0.939,0.612,1.314c0.276,0.375,0.619,0.672,1.032,0.891
		c0.413,0.216,0.896,0.314,1.453,0.292c0.541-0.022,1.078-0.122,1.609-0.299c0.534-0.175,1.029-0.454,1.486-0.837l0.68,1.438
		c-0.629,0.519-1.316,0.886-2.054,1.104C216.816,57.943,216.066,58.052,215.307,58.052z M215.121,47.175
		c-0.353,0-0.678,0.086-0.974,0.258c-0.294,0.172-0.556,0.409-0.774,0.709c-0.223,0.3-0.404,0.653-0.545,1.058
		c-0.144,0.404-0.233,0.842-0.272,1.315c0.01,0.007,0.013,0.027,0.013,0.056c0,0.03,0,0.048,0,0.056h4.949v-0.461
		c0-0.427-0.049-0.823-0.152-1.187c-0.1-0.362-0.252-0.68-0.455-0.95c-0.201-0.27-0.453-0.48-0.752-0.631
		C215.857,47.25,215.511,47.175,215.121,47.175z"/>
	<path fill="#FFFFFF" d="M225.599,42.664v2.98h2.441v1.643h-2.441v7.312c0,0.601,0.109,1.027,0.328,1.277
		c0.216,0.252,0.527,0.377,0.932,0.377c0.158,0,0.334-0.022,0.524-0.074c0.188-0.047,0.369-0.102,0.534-0.162l0.26,1.541
		c-0.107,0.062-0.238,0.121-0.4,0.181c-0.16,0.062-0.332,0.112-0.517,0.158c-0.185,0.045-0.369,0.083-0.558,0.112
		c-0.188,0.03-0.359,0.045-0.518,0.045c-0.441,0-0.837-0.066-1.186-0.196c-0.352-0.132-0.646-0.336-0.891-0.614
		c-0.242-0.277-0.429-0.631-0.563-1.063c-0.129-0.431-0.197-0.946-0.197-1.547v-7.346h-1.755v-1.644h1.755v-2.98H225.599z"/>
	<path fill="#FFFFFF" d="M238.588,58.04c-0.165-0.052-0.337-0.14-0.513-0.265c-0.176-0.121-0.342-0.267-0.5-0.433
		s-0.293-0.345-0.404-0.541c-0.112-0.194-0.188-0.394-0.227-0.596c-0.187,0.277-0.414,0.532-0.68,0.76
		c-0.268,0.229-0.557,0.424-0.865,0.584c-0.312,0.162-0.642,0.285-0.986,0.373c-0.346,0.086-0.692,0.129-1.047,0.129
		c-0.576,0-1.086-0.084-1.533-0.256c-0.447-0.166-0.823-0.406-1.127-0.718c-0.303-0.312-0.533-0.688-0.691-1.136
		c-0.154-0.445-0.234-0.947-0.234-1.502c0-0.585,0.111-1.109,0.336-1.574s0.549-0.859,0.975-1.182
		c0.422-0.322,0.936-0.57,1.536-0.742c0.6-0.172,1.276-0.258,2.034-0.258h2.045v-1.197c0-0.729-0.176-1.303-0.531-1.721
		c-0.355-0.417-0.91-0.622-1.66-0.615c-0.352,0-0.689,0.036-1.012,0.107c-0.323,0.071-0.626,0.162-0.913,0.275
		c-0.284,0.112-0.544,0.238-0.782,0.377c-0.234,0.139-0.441,0.278-0.624,0.421l-0.755-1.405c0.145-0.118,0.35-0.264,0.614-0.435
		c0.267-0.173,0.59-0.338,0.969-0.498c0.378-0.161,0.806-0.296,1.282-0.409c0.476-0.111,1.005-0.167,1.583-0.167
		c0.6,0,1.147,0.09,1.649,0.269c0.502,0.181,0.936,0.445,1.297,0.793c0.358,0.35,0.638,0.778,0.836,1.288
		c0.199,0.51,0.297,1.092,0.297,1.744v5.601c0,0.33,0.049,0.626,0.141,0.883c0.096,0.26,0.266,0.486,0.512,0.682L238.588,58.04z
		 M233.785,56.253c0.319,0,0.636-0.052,0.943-0.158c0.309-0.104,0.59-0.244,0.85-0.42c0.26-0.177,0.485-0.381,0.68-0.615
		c0.193-0.231,0.345-0.475,0.449-0.73v-2.148h-2.057c-0.42,0-0.793,0.059-1.121,0.174c-0.324,0.117-0.6,0.277-0.82,0.484
		c-0.221,0.205-0.391,0.447-0.506,0.726c-0.115,0.276-0.174,0.573-0.174,0.889c0,0.539,0.146,0.976,0.439,1.306
		C232.76,56.087,233.197,56.253,233.785,56.253z"/>
	<path fill="#FFFFFF" d="M248.359,47.59l-1.104-0.067c-0.539,0-0.983,0.143-1.335,0.428c-0.354,0.285-0.624,0.679-0.811,1.182v8.684
		h-2.25V45.645h1.922l0.248,1.811c0.283-0.63,0.666-1.125,1.147-1.491c0.478-0.363,1.024-0.544,1.631-0.544
		c0.151,0,0.302,0.013,0.454,0.039c0.154,0.027,0.284,0.058,0.389,0.096L248.359,47.59z"/>
	<path fill="#FFFFFF" d="M253.38,42.494h-2.25v-2.227h2.25V42.494z M253.38,57.816h-2.25V45.645h2.25V57.816z"/>
	<path fill="#FFFFFF" d="M265.063,58.04c-0.165-0.052-0.337-0.14-0.512-0.265c-0.177-0.121-0.343-0.267-0.5-0.433
		c-0.158-0.166-0.292-0.345-0.405-0.541c-0.111-0.194-0.188-0.394-0.226-0.596c-0.187,0.277-0.415,0.532-0.681,0.76
		c-0.267,0.229-0.556,0.424-0.865,0.584c-0.312,0.162-0.641,0.285-0.986,0.373c-0.346,0.086-0.691,0.129-1.043,0.129
		c-0.578,0-1.09-0.084-1.537-0.256c-0.447-0.166-0.82-0.406-1.124-0.718c-0.306-0.312-0.534-0.688-0.692-1.136
		c-0.157-0.445-0.237-0.947-0.237-1.502c0-0.585,0.112-1.109,0.337-1.574c0.227-0.465,0.549-0.859,0.975-1.182
		c0.424-0.322,0.937-0.57,1.535-0.742c0.6-0.172,1.277-0.258,2.034-0.258h2.046v-1.197c0-0.729-0.177-1.303-0.531-1.721
		c-0.356-0.417-0.91-0.622-1.66-0.615c-0.353,0-0.689,0.036-1.013,0.107c-0.319,0.071-0.626,0.162-0.913,0.275
		c-0.283,0.112-0.544,0.238-0.779,0.377c-0.237,0.139-0.443,0.278-0.623,0.421l-0.756-1.405c0.142-0.118,0.348-0.264,0.615-0.435
		c0.264-0.173,0.586-0.338,0.965-0.498c0.379-0.161,0.807-0.296,1.282-0.409c0.476-0.111,1.005-0.167,1.583-0.167
		c0.6,0,1.148,0.09,1.65,0.269c0.502,0.181,0.938,0.445,1.296,0.793c0.358,0.35,0.638,0.778,0.837,1.288
		c0.197,0.51,0.298,1.092,0.298,1.744v5.601c0,0.33,0.046,0.626,0.14,0.883c0.095,0.26,0.265,0.486,0.512,0.682L265.063,58.04z
		 M260.26,56.253c0.323,0,0.636-0.052,0.944-0.158c0.308-0.104,0.59-0.244,0.85-0.42c0.26-0.177,0.484-0.381,0.68-0.615
		c0.196-0.231,0.344-0.475,0.449-0.73v-2.148h-2.057c-0.42,0-0.793,0.059-1.118,0.174c-0.328,0.117-0.601,0.277-0.823,0.484
		c-0.221,0.205-0.389,0.447-0.505,0.726c-0.117,0.276-0.175,0.573-0.175,0.889c0,0.539,0.148,0.976,0.439,1.306
		C259.238,56.087,259.675,56.253,260.26,56.253z"/>
	<path fill="#FFFFFF" d="M273.758,51.921c0-0.959,0.09-1.84,0.269-2.636c0.18-0.801,0.457-1.485,0.823-2.061
		c0.369-0.572,0.83-1.017,1.388-1.332c0.56-0.315,1.217-0.472,1.975-0.472c0.646,0,1.216,0.13,1.709,0.393
		c0.498,0.263,0.925,0.637,1.283,1.125v-6.659h2.25v14.836c0,0.405,0.059,0.722,0.17,0.947c0.111,0.223,0.273,0.43,0.48,0.618
		l-1.012,1.359c-0.09-0.021-0.211-0.078-0.369-0.167c-0.158-0.091-0.32-0.211-0.49-0.366c-0.166-0.152-0.324-0.336-0.466-0.55
		c-0.144-0.215-0.243-0.457-0.304-0.727c-0.18,0.278-0.376,0.528-0.59,0.753c-0.213,0.225-0.456,0.417-0.729,0.574
		c-0.27,0.158-0.568,0.279-0.9,0.367c-0.327,0.084-0.703,0.127-1.123,0.127c-0.697,0-1.315-0.131-1.854-0.395
		c-0.539-0.261-0.996-0.646-1.367-1.152c-0.371-0.507-0.656-1.123-0.853-1.852c-0.194-0.727-0.291-1.559-0.291-2.496V51.921
		L273.758,51.921z M276.008,52.158c0,0.644,0.056,1.226,0.17,1.739c0.112,0.514,0.278,0.949,0.505,1.309
		c0.227,0.362,0.51,0.637,0.854,0.828c0.346,0.189,0.756,0.287,1.229,0.287c0.292,0,0.557-0.057,0.796-0.167
		c0.24-0.113,0.464-0.26,0.665-0.447c0.204-0.182,0.387-0.393,0.547-0.634c0.162-0.24,0.303-0.491,0.432-0.755v-5.197
		c-0.129-0.248-0.271-0.484-0.438-0.714c-0.165-0.229-0.35-0.433-0.546-0.613c-0.198-0.181-0.42-0.323-0.66-0.428
		c-0.239-0.105-0.497-0.158-0.774-0.158c-0.471,0-0.881,0.119-1.232,0.354c-0.348,0.238-0.636,0.565-0.863,0.985
		c-0.23,0.42-0.4,0.917-0.513,1.49c-0.114,0.574-0.17,1.202-0.17,1.884V52.158z"/>
	<path fill="#FFFFFF" d="M291.896,58.052c-0.789,0-1.498-0.143-2.125-0.427c-0.629-0.284-1.16-0.682-1.596-1.187
		c-0.434-0.508-0.766-1.109-0.996-1.813c-0.232-0.699-0.344-1.467-0.344-2.3v-0.832c0-0.765,0.102-1.511,0.305-2.238
		c0.201-0.728,0.51-1.376,0.924-1.946c0.414-0.57,0.932-1.028,1.559-1.372c0.627-0.346,1.363-0.517,2.205-0.517
		c0.758,0,1.42,0.126,1.988,0.382c0.564,0.254,1.039,0.614,1.412,1.08c0.377,0.465,0.656,1.026,0.846,1.682
		c0.186,0.655,0.281,1.386,0.281,2.187v1.506h-7.236c0,0.008,0,0.008-0.002,0c-0.008-0.006-0.008-0.006-0.008,0
		c0.01,0.541,0.078,1.062,0.213,1.564c0.137,0.501,0.34,0.939,0.617,1.314c0.271,0.375,0.617,0.672,1.029,0.891
		c0.412,0.216,0.898,0.314,1.451,0.292c0.541-0.022,1.078-0.122,1.609-0.299c0.535-0.175,1.031-0.454,1.488-0.837l0.68,1.438
		c-0.631,0.519-1.316,0.886-2.057,1.104C293.402,57.943,292.652,58.052,291.896,58.052z M291.708,47.175
		c-0.352,0-0.678,0.086-0.973,0.258c-0.297,0.172-0.555,0.409-0.777,0.709c-0.221,0.3-0.402,0.653-0.547,1.058
		c-0.143,0.404-0.232,0.842-0.27,1.315c0.008,0.007,0.012,0.027,0.012,0.056c0,0.03,0,0.048,0,0.056h4.953v-0.461
		c0-0.427-0.055-0.823-0.152-1.187c-0.104-0.362-0.254-0.68-0.457-0.95c-0.201-0.27-0.453-0.48-0.756-0.631
		C292.441,47.25,292.099,47.175,291.708,47.175z"/>
	<path fill="#FFFFFF" d="M175.455,77.869h-6.682v5.86h7.741v1.732h-9.991v-16.38h9.889v1.755h-7.639v5.299h6.682V77.869z"/>
	<path fill="#FFFFFF" d="M181.535,73.29l0.226,1.811c0.366-0.637,0.84-1.135,1.422-1.495c0.58-0.359,1.235-0.539,1.963-0.539
		c0.592,0,1.122,0.095,1.585,0.287c0.466,0.19,0.859,0.483,1.182,0.878c0.323,0.391,0.565,0.889,0.738,1.488
		c0.165,0.601,0.252,1.31,0.252,2.125v7.617h-2.25V77.88c0-0.518-0.059-0.968-0.177-1.351c-0.114-0.382-0.272-0.697-0.471-0.944
		c-0.196-0.248-0.427-0.432-0.685-0.551c-0.26-0.122-0.536-0.182-0.828-0.182c-0.456,0-0.92,0.143-1.383,0.43
		c-0.466,0.284-0.869,0.697-1.216,1.236v8.943h-2.25V73.29H181.535z"/>
	<path fill="#FFFFFF" d="M198.821,82.413c0-0.188-0.034-0.369-0.102-0.546c-0.068-0.175-0.191-0.349-0.371-0.519
		c-0.18-0.168-0.425-0.332-0.738-0.489c-0.309-0.157-0.704-0.312-1.185-0.461c-0.675-0.201-1.267-0.413-1.772-0.634
		c-0.507-0.221-0.927-0.477-1.265-0.766c-0.337-0.289-0.592-0.625-0.76-1.007c-0.17-0.382-0.252-0.836-0.252-1.36
		c0-0.511,0.099-0.982,0.303-1.416c0.202-0.437,0.488-0.813,0.859-1.131s0.818-0.568,1.34-0.748c0.52-0.181,1.095-0.271,1.726-0.271
		c0.563,0,1.07,0.046,1.524,0.138c0.454,0.096,0.857,0.215,1.209,0.355c0.352,0.143,0.654,0.296,0.904,0.455
		c0.252,0.164,0.465,0.313,0.637,0.457l-0.607,1.553c-0.548-0.383-1.109-0.676-1.682-0.885c-0.575-0.205-1.16-0.31-1.76-0.31
		c-0.384,0-0.714,0.046-0.998,0.13c-0.279,0.086-0.512,0.2-0.697,0.344c-0.182,0.143-0.318,0.307-0.405,0.488
		c-0.085,0.187-0.129,0.379-0.129,0.58c0,0.165,0.029,0.325,0.085,0.479c0.056,0.154,0.17,0.305,0.337,0.449
		c0.17,0.147,0.405,0.293,0.711,0.439c0.303,0.145,0.704,0.29,1.199,0.434c1.374,0.412,2.408,0.922,3.101,1.529
		c0.691,0.607,1.037,1.362,1.037,2.262c0,0.584-0.109,1.107-0.324,1.567c-0.215,0.462-0.512,0.853-0.893,1.171
		c-0.381,0.319-0.835,0.564-1.359,0.737c-0.527,0.172-1.1,0.258-1.723,0.258c-0.944,0-1.811-0.127-2.605-0.382
		c-0.789-0.256-1.458-0.596-2.007-1.023l0.631-1.574c0.578,0.381,1.197,0.68,1.862,0.895c0.663,0.212,1.325,0.32,1.985,0.32
		c0.367,0,0.687-0.043,0.961-0.125s0.5-0.194,0.682-0.336c0.18-0.143,0.313-0.306,0.403-0.489
		C198.775,82.798,198.821,82.608,198.821,82.413z"/>
	<path fill="#FFFFFF" d="M206.632,70.142h-2.25v-2.229h2.25V70.142z M206.632,85.462h-2.25V73.29h2.25V85.462z"/>
	<path fill="#FFFFFF" d="M212.5,73.29l0.226,1.811c0.367-0.637,0.843-1.135,1.423-1.495c0.583-0.359,1.235-0.539,1.963-0.539
		c0.592,0,1.123,0.095,1.586,0.287c0.465,0.19,0.858,0.483,1.182,0.878c0.322,0.391,0.568,0.889,0.736,1.488
		c0.17,0.601,0.254,1.31,0.254,2.125v7.617h-2.25V77.88c0-0.518-0.058-0.968-0.174-1.351c-0.117-0.382-0.274-0.697-0.472-0.944
		c-0.202-0.248-0.427-0.432-0.688-0.551c-0.258-0.122-0.531-0.182-0.826-0.182c-0.456,0-0.916,0.143-1.383,0.43
		c-0.463,0.284-0.869,0.697-1.213,1.236v8.943h-2.25V73.29H212.5z"/>
	<path fill="#FFFFFF" d="M223.126,78.938c0-0.841,0.117-1.618,0.347-2.335c0.233-0.715,0.567-1.336,1.007-1.862
		c0.439-0.524,0.971-0.935,1.598-1.229c0.625-0.297,1.336-0.444,2.131-0.444c0.796,0,1.507,0.147,2.138,0.444
		c0.631,0.295,1.163,0.705,1.604,1.229c0.437,0.526,0.773,1.147,1.012,1.862c0.232,0.717,0.352,1.494,0.352,2.335v0.899
		c0,0.855-0.119,1.641-0.352,2.357c-0.238,0.716-0.575,1.333-1.012,1.85c-0.441,0.518-0.974,0.922-1.601,1.215
		c-0.626,0.293-1.333,0.438-2.119,0.438c-0.804,0-1.521-0.146-2.147-0.438c-0.631-0.293-1.166-0.699-1.604-1.221
		s-0.774-1.14-1.007-1.857c-0.23-0.715-0.348-1.498-0.348-2.344v-0.899H223.126z M225.376,79.837c0,0.594,0.059,1.143,0.172,1.647
		c0.119,0.507,0.294,0.944,0.529,1.312c0.234,0.368,0.533,0.654,0.896,0.861c0.358,0.206,0.778,0.309,1.261,0.309
		c0.471,0,0.883-0.104,1.234-0.313c0.354-0.211,0.648-0.5,0.883-0.867c0.236-0.369,0.415-0.806,0.534-1.312
		c0.122-0.506,0.183-1.051,0.183-1.637v-0.898c0-0.585-0.062-1.126-0.183-1.625c-0.119-0.499-0.298-0.936-0.539-1.305
		c-0.24-0.375-0.539-0.664-0.894-0.873c-0.358-0.211-0.771-0.315-1.244-0.315c-0.485,0-0.905,0.108-1.26,0.319
		c-0.353,0.216-0.646,0.508-0.885,0.877c-0.234,0.373-0.41,0.81-0.521,1.312s-0.168,1.039-0.168,1.609v0.899H225.376z"/>
	<path fill="#FFFFFF" d="M249.46,85.688c-0.165-0.052-0.336-0.14-0.512-0.267c-0.178-0.121-0.342-0.267-0.5-0.432
		s-0.295-0.346-0.406-0.54c-0.113-0.196-0.186-0.394-0.225-0.596c-0.188,0.276-0.414,0.532-0.681,0.759
		c-0.267,0.229-0.556,0.425-0.866,0.585c-0.311,0.163-0.639,0.285-0.982,0.373c-0.346,0.085-0.694,0.128-1.049,0.128
		c-0.578,0-1.086-0.083-1.533-0.253c-0.447-0.167-0.82-0.408-1.125-0.72s-0.535-0.689-0.693-1.137
		c-0.154-0.445-0.232-0.945-0.232-1.502c0-0.582,0.111-1.108,0.336-1.572c0.225-0.467,0.549-0.859,0.972-1.183
		c0.425-0.323,0.935-0.569,1.536-0.743c0.6-0.172,1.279-0.259,2.037-0.259h2.045v-1.196c0-0.729-0.176-1.304-0.533-1.721
		s-0.911-0.624-1.661-0.615c-0.353,0-0.688,0.035-1.013,0.108c-0.322,0.069-0.625,0.163-0.909,0.274
		c-0.284,0.11-0.546,0.238-0.782,0.377c-0.238,0.14-0.447,0.277-0.626,0.421l-0.752-1.406c0.144-0.119,0.347-0.263,0.614-0.435
		c0.265-0.172,0.587-0.338,0.966-0.498c0.378-0.16,0.806-0.297,1.282-0.408c0.478-0.112,1.005-0.167,1.58-0.167
		c0.602,0,1.152,0.09,1.654,0.271c0.502,0.18,0.932,0.443,1.295,0.791c0.358,0.35,0.637,0.778,0.836,1.288
		c0.199,0.511,0.299,1.093,0.299,1.744v5.603c0,0.33,0.045,0.625,0.141,0.883c0.092,0.26,0.266,0.484,0.512,0.681L249.46,85.688z
		 M244.658,83.898c0.322,0,0.638-0.052,0.946-0.156c0.306-0.106,0.591-0.246,0.847-0.422c0.26-0.177,0.486-0.381,0.683-0.614
		c0.194-0.232,0.345-0.476,0.448-0.73v-2.148h-2.057c-0.421,0-0.795,0.059-1.119,0.173c-0.328,0.118-0.601,0.278-0.824,0.484
		c-0.221,0.207-0.387,0.448-0.504,0.726c-0.117,0.276-0.174,0.573-0.174,0.889c0,0.539,0.146,0.976,0.438,1.306
		C243.632,83.734,244.072,83.898,244.658,83.898z"/>
	<path fill="#FFFFFF" d="M259.17,85.462v-16.38h3.872c1.037,0,2.005,0.136,2.904,0.406c0.903,0.269,1.686,0.705,2.354,1.306
		c0.667,0.6,1.192,1.381,1.575,2.344c0.382,0.966,0.576,2.137,0.576,3.517v1.249c0,1.163-0.16,2.21-0.479,3.145
		c-0.32,0.933-0.773,1.727-1.372,2.379c-0.592,0.653-1.31,1.156-2.153,1.508c-0.845,0.352-1.793,0.529-2.845,0.529h-4.434V85.462z
		 M261.42,70.839V83.73h2.136c0.75,0,1.413-0.132,1.99-0.401c0.578-0.264,1.063-0.648,1.457-1.15
		c0.393-0.502,0.693-1.113,0.896-1.834s0.303-1.535,0.303-2.441v-1.271c0-0.886-0.1-1.686-0.303-2.4
		c-0.201-0.717-0.5-1.328-0.889-1.83c-0.391-0.502-0.876-0.889-1.459-1.158c-0.58-0.27-1.245-0.404-1.995-0.404H261.42z"/>
	<path fill="#FFFFFF" d="M276.126,70.142h-2.25v-2.229h2.25V70.142z M276.126,85.462h-2.25V73.29h2.25V85.462z"/>
	<path fill="#FFFFFF" d="M286.111,82.413c0-0.188-0.033-0.369-0.102-0.546c-0.068-0.175-0.191-0.349-0.371-0.519
		c-0.18-0.168-0.426-0.332-0.734-0.489c-0.314-0.157-0.709-0.312-1.188-0.461c-0.676-0.201-1.266-0.413-1.771-0.634
		s-0.928-0.477-1.266-0.766c-0.337-0.289-0.59-0.625-0.76-1.007c-0.168-0.382-0.252-0.836-0.252-1.36
		c0-0.511,0.099-0.982,0.301-1.416c0.204-0.437,0.49-0.813,0.861-1.131s0.818-0.568,1.338-0.748c0.523-0.181,1.1-0.271,1.729-0.271
		c0.563,0,1.07,0.046,1.523,0.138c0.453,0.096,0.854,0.215,1.209,0.355c0.352,0.143,0.654,0.296,0.908,0.455
		c0.25,0.164,0.461,0.313,0.633,0.457l-0.605,1.553c-0.547-0.383-1.109-0.676-1.684-0.885c-0.572-0.205-1.16-0.31-1.76-0.31
		c-0.383,0-0.715,0.046-0.994,0.13c-0.284,0.086-0.516,0.2-0.697,0.344c-0.188,0.143-0.32,0.307-0.404,0.488
		c-0.091,0.187-0.132,0.379-0.132,0.58c0,0.165,0.026,0.325,0.085,0.479c0.057,0.154,0.167,0.305,0.337,0.449
		c0.171,0.147,0.405,0.293,0.712,0.439c0.303,0.145,0.703,0.29,1.199,0.434c1.373,0.412,2.406,0.922,3.1,1.529
		c0.689,0.607,1.033,1.362,1.033,2.262c0,0.584-0.107,1.107-0.322,1.567c-0.211,0.462-0.514,0.853-0.891,1.171
		c-0.379,0.319-0.834,0.564-1.359,0.737c-0.527,0.173-1.1,0.258-1.723,0.258c-0.945,0-1.814-0.127-2.604-0.382
		c-0.793-0.256-1.463-0.596-2.01-1.023l0.629-1.574c0.578,0.381,1.201,0.68,1.863,0.895c0.666,0.212,1.324,0.32,1.982,0.32
		c0.369,0,0.693-0.043,0.965-0.125c0.273-0.082,0.5-0.194,0.68-0.336c0.18-0.143,0.314-0.306,0.406-0.489
		C286.066,82.798,286.111,82.608,286.111,82.413z"/>
	<path fill="#FFFFFF" d="M294.25,70.308v2.982h2.441v1.643h-2.441v7.311c0,0.602,0.111,1.027,0.328,1.278
		c0.219,0.251,0.529,0.376,0.932,0.376c0.158,0,0.332-0.023,0.525-0.074c0.191-0.046,0.369-0.102,0.533-0.163l0.26,1.542
		c-0.104,0.061-0.24,0.12-0.4,0.182c-0.162,0.059-0.336,0.112-0.518,0.155c-0.184,0.046-0.371,0.083-0.555,0.113
		c-0.189,0.03-0.361,0.045-0.521,0.045c-0.439,0-0.838-0.065-1.188-0.196c-0.348-0.131-0.646-0.335-0.889-0.613
		c-0.244-0.277-0.432-0.631-0.561-1.063c-0.133-0.431-0.199-0.946-0.199-1.546v-7.346h-1.752v-1.642h1.752V70.31h2.252V70.308z"/>
	<path fill="#FFFFFF" d="M307.242,85.688c-0.168-0.052-0.338-0.14-0.516-0.267c-0.178-0.121-0.344-0.267-0.5-0.432
		c-0.158-0.165-0.291-0.346-0.404-0.54c-0.113-0.196-0.189-0.394-0.225-0.596c-0.188,0.276-0.414,0.532-0.686,0.759
		c-0.264,0.229-0.553,0.425-0.863,0.585c-0.311,0.163-0.639,0.285-0.984,0.373c-0.344,0.085-0.691,0.128-1.045,0.128
		c-0.576,0-1.09-0.083-1.535-0.253c-0.447-0.167-0.82-0.408-1.127-0.72c-0.303-0.312-0.531-0.689-0.689-1.137
		c-0.158-0.445-0.238-0.945-0.238-1.502c0-0.582,0.111-1.108,0.34-1.572c0.225-0.467,0.551-0.859,0.973-1.183
		c0.424-0.323,0.938-0.569,1.537-0.743c0.598-0.173,1.275-0.259,2.033-0.259h2.049v-1.196c0-0.729-0.178-1.304-0.537-1.721
		c-0.354-0.417-0.904-0.624-1.654-0.615c-0.354,0-0.691,0.035-1.014,0.108c-0.322,0.069-0.627,0.163-0.912,0.274
		s-0.545,0.238-0.781,0.377c-0.234,0.14-0.443,0.277-0.623,0.421l-0.756-1.406c0.143-0.119,0.348-0.263,0.611-0.435
		c0.27-0.172,0.59-0.338,0.969-0.498c0.379-0.161,0.807-0.297,1.281-0.408c0.479-0.112,1.006-0.167,1.584-0.167
		c0.6,0,1.148,0.09,1.652,0.271c0.502,0.18,0.936,0.443,1.293,0.791c0.361,0.35,0.639,0.778,0.838,1.288
		c0.199,0.511,0.299,1.093,0.299,1.744v5.603c0,0.33,0.047,0.625,0.139,0.883c0.098,0.26,0.266,0.484,0.514,0.681L307.242,85.688z
		 M307.431,71.534h-1.834l-2.082-1.822l-2.07,1.822h-1.799l3.08-3.699h1.588L307.431,71.534z M302.435,83.898
		c0.322,0,0.639-0.052,0.943-0.156c0.309-0.106,0.59-0.246,0.85-0.422c0.258-0.177,0.484-0.381,0.684-0.614
		c0.193-0.232,0.342-0.476,0.449-0.73v-2.148H303.3c-0.42,0-0.793,0.059-1.117,0.173c-0.328,0.118-0.602,0.278-0.824,0.484
		c-0.217,0.207-0.391,0.448-0.504,0.726c-0.117,0.276-0.176,0.573-0.176,0.889c0,0.539,0.148,0.976,0.439,1.306
		C301.414,83.734,301.849,83.898,302.435,83.898z"/>
	<path fill="#FFFFFF" d="M313.396,73.29l0.225,1.811c0.369-0.637,0.844-1.135,1.424-1.495c0.58-0.359,1.236-0.539,1.965-0.539
		c0.592,0,1.121,0.095,1.584,0.287c0.467,0.19,0.859,0.483,1.184,0.878c0.322,0.391,0.566,0.889,0.736,1.488
		c0.168,0.601,0.252,1.31,0.252,2.125v7.617h-2.248V77.88c0-0.518-0.059-0.968-0.176-1.351c-0.115-0.382-0.273-0.697-0.473-0.944
		c-0.197-0.248-0.428-0.432-0.686-0.551c-0.26-0.122-0.533-0.182-0.828-0.182c-0.455,0-0.92,0.143-1.385,0.43
		c-0.465,0.284-0.869,0.697-1.215,1.236v8.943h-2.25V73.29H313.396z"/>
	<path fill="#FFFFFF" d="M329.242,83.966c0.555,0,1.07-0.101,1.547-0.305c0.477-0.201,0.871-0.471,1.188-0.808l0.799,1.394
		c-0.189,0.195-0.404,0.381-0.643,0.559c-0.24,0.176-0.512,0.33-0.814,0.457c-0.307,0.135-0.639,0.238-1.002,0.316
		c-0.365,0.08-0.758,0.119-1.186,0.119c-0.834,0-1.568-0.146-2.203-0.439c-0.633-0.291-1.158-0.696-1.586-1.213
		c-0.424-0.518-0.74-1.127-0.959-1.828c-0.217-0.703-0.328-1.467-0.328-2.291v-1.092c0-0.818,0.111-1.578,0.328-2.283
		c0.219-0.705,0.535-1.316,0.959-1.834c0.428-0.517,0.953-0.922,1.586-1.215c0.635-0.291,1.369-0.438,2.203-0.438
		c0.428,0,0.82,0.037,1.186,0.111c0.365,0.076,0.695,0.177,1.002,0.304c0.303,0.129,0.574,0.276,0.814,0.444
		c0.238,0.17,0.457,0.352,0.65,0.545l-0.809,1.463c-0.314-0.336-0.711-0.61-1.188-0.821c-0.477-0.21-0.99-0.315-1.547-0.315
		c-0.486,0-0.914,0.109-1.275,0.328c-0.363,0.217-0.666,0.51-0.904,0.883c-0.24,0.369-0.426,0.811-0.555,1.314
		c-0.127,0.507-0.193,1.045-0.201,1.615v0.709c0,0.592,0.061,1.15,0.18,1.675c0.121,0.524,0.301,0.983,0.541,1.373
		c0.238,0.39,0.545,0.7,0.916,0.929C328.312,83.853,328.746,83.966,329.242,83.966z"/>
	<path fill="#FFFFFF" d="M337.818,70.142h-2.248v-2.229h2.248V70.142z M337.818,85.462h-2.248V73.29h2.248V85.462z"/>
	<path fill="#FFFFFF" d="M349.5,85.688c-0.164-0.052-0.334-0.14-0.51-0.267c-0.176-0.121-0.344-0.267-0.502-0.432
		s-0.293-0.346-0.404-0.54c-0.113-0.196-0.188-0.394-0.227-0.596c-0.188,0.276-0.416,0.532-0.682,0.759
		c-0.266,0.229-0.553,0.425-0.861,0.585c-0.314,0.163-0.643,0.285-0.986,0.373c-0.346,0.085-0.695,0.128-1.047,0.128
		c-0.578,0-1.09-0.083-1.535-0.253c-0.447-0.167-0.818-0.408-1.125-0.72c-0.303-0.312-0.533-0.689-0.691-1.137
		c-0.156-0.445-0.234-0.945-0.234-1.502c0-0.582,0.111-1.108,0.338-1.572c0.223-0.467,0.545-0.859,0.971-1.183
		c0.422-0.323,0.938-0.569,1.535-0.743c0.6-0.173,1.279-0.259,2.037-0.259h2.047v-1.196c0-0.729-0.18-1.304-0.535-1.721
		s-0.908-0.624-1.656-0.615c-0.354,0-0.691,0.035-1.016,0.108c-0.318,0.069-0.623,0.163-0.908,0.274s-0.545,0.238-0.783,0.377
		c-0.234,0.14-0.443,0.277-0.623,0.421l-0.752-1.406c0.141-0.119,0.344-0.263,0.609-0.435s0.588-0.338,0.967-0.498
		s0.807-0.297,1.283-0.408c0.479-0.112,1.004-0.167,1.582-0.167c0.6,0,1.152,0.09,1.652,0.271c0.502,0.18,0.934,0.443,1.293,0.791
		c0.359,0.35,0.641,0.778,0.84,1.288c0.197,0.511,0.299,1.093,0.299,1.744v5.603c0,0.33,0.045,0.625,0.141,0.883
		c0.092,0.26,0.264,0.484,0.512,0.681L349.5,85.688z M344.699,83.898c0.322,0,0.637-0.052,0.943-0.156
		c0.307-0.106,0.59-0.246,0.85-0.422c0.258-0.177,0.486-0.381,0.68-0.614c0.197-0.232,0.346-0.476,0.449-0.73v-2.148h-2.059
		c-0.42,0-0.791,0.059-1.115,0.173c-0.328,0.118-0.604,0.278-0.824,0.484c-0.223,0.207-0.391,0.448-0.504,0.726
		c-0.119,0.276-0.176,0.573-0.176,0.889c0,0.539,0.145,0.976,0.438,1.306C343.671,83.734,344.115,83.898,344.699,83.898z"/>
</g>
<g>
	<rect x="151.212" y="31.995" fill="#FFFFFF" width="1.544" height="64.733"/>
</g>
<g>
	<g>
		<g>
			<path fill="#FFFFFF" d="M11.394,51.326c0.464,0.41,1.041,0.822,1.729,1.231c0.688,0.412,1.456,0.783,2.305,1.113
				c0.847,0.33,1.765,0.6,2.746,0.805c0.983,0.205,2.001,0.308,3.055,0.308c2.163,0,3.842-0.379,5.039-1.139
				c1.196-0.759,1.796-1.81,1.796-3.149c0-0.804-0.201-1.488-0.603-2.05c-0.402-0.563-0.956-1.068-1.662-1.515
				c-0.706-0.446-1.537-0.853-2.492-1.22c-0.955-0.366-1.987-0.745-3.096-1.139c-2.216-0.804-4.051-1.604-5.507-2.398
				c-1.456-0.796-2.613-1.663-3.472-2.6c-0.857-0.938-1.461-1.992-1.809-3.163C9.075,35.24,8.9,33.886,8.9,32.349
				c0-1.626,0.33-3.123,0.992-4.489c0.661-1.367,1.591-2.547,2.788-3.538c1.196-0.992,2.62-1.764,4.273-2.318
				c1.653-0.553,3.462-0.831,5.428-0.831c1.913,0,3.592,0.187,5.038,0.561c1.448,0.373,2.699,0.819,3.754,1.334
				c1.054,0.516,1.925,1.045,2.612,1.588c0.688,0.542,1.237,0.982,1.647,1.32l-3.375,5.167c-0.306-0.304-0.765-0.653-1.382-1.046
				c-0.615-0.393-1.336-0.767-2.156-1.125c-0.822-0.357-1.708-0.657-2.653-0.898c-0.947-0.242-1.887-0.362-2.815-0.362
				c-0.964,0-1.813,0.107-2.545,0.322c-0.734,0.214-1.346,0.505-1.836,0.871c-0.493,0.367-0.863,0.8-1.112,1.301
				c-0.252,0.501-0.377,1.037-0.377,1.609c0,0.698,0.157,1.296,0.471,1.797c0.312,0.501,0.785,0.957,1.42,1.368
				c0.634,0.412,1.442,0.813,2.426,1.207c0.981,0.395,2.145,0.832,3.484,1.315c2.001,0.716,3.715,1.462,5.145,2.239
				c1.431,0.779,2.605,1.664,3.524,2.656c0.921,0.992,1.6,2.119,2.038,3.379c0.438,1.262,0.655,2.723,0.655,4.386
				c0,1.502-0.329,2.929-0.991,4.278c-0.66,1.35-1.607,2.533-2.84,3.555c-1.233,1.018-2.733,1.828-4.502,2.426
				c-1.771,0.601-3.764,0.899-5.978,0.899c-1.734,0-3.338-0.156-4.812-0.47c-1.475-0.313-2.8-0.705-3.979-1.178
				c-1.181-0.476-2.212-0.992-3.095-1.556c-0.886-0.563-1.614-1.096-2.185-1.596L11.394,51.326z"/>
			<path fill="#FFFFFF" d="M64.809,43.848H50.872v10.374h16.726v6.539H42.537V21.738H67.33v6.539H50.872v9.032H64.81L64.809,43.848
				L64.809,43.848z"/>
			<path fill="#FFFFFF" d="M92.283,52.827H81l-2.145,7.934h-8.416l11.793-39.022h8.845l11.793,39.022h-8.416L92.283,52.827z
				 M82.767,46.286h7.746l-3.806-14.418h-0.161L82.767,46.286z"/>
			<path fill="#FFFFFF" d="M107.692,60.761V21.738h12.411c2.661,0,5.011,0.45,7.048,1.353c2.038,0.903,3.744,2.162,5.119,3.779
				c1.376,1.617,2.412,3.547,3.11,5.789c0.695,2.243,1.044,4.694,1.044,7.356v2.493c0,2.787-0.37,5.306-1.113,7.559
				c-0.739,2.25-1.812,4.167-3.216,5.748c-1.401,1.582-3.113,2.802-5.132,3.66c-2.019,0.856-4.306,1.285-6.86,1.285H107.692z
				 M116.028,28.277v25.944h2.982c1.217,0,2.288-0.144,3.209-0.428c0.924-0.287,1.72-0.688,2.392-1.205
				c0.671-0.519,1.231-1.14,1.68-1.862c0.446-0.723,0.804-1.518,1.073-2.383c0.268-0.865,0.457-1.793,0.563-2.784
				c0.109-0.991,0.161-2.013,0.161-3.066v-2.543c0-1.713-0.143-3.284-0.428-4.712c-0.288-1.428-0.781-2.655-1.479-3.682
				c-0.699-1.026-1.629-1.83-2.795-2.41c-1.162-0.579-2.623-0.87-4.377-0.87H116.028L116.028,28.277z"/>
		</g>
	</g>
	<path fill="#FFFFFF" d="M45.471,7.649C39.431,2.912,31.379,0.013,22.534,0C13.69-0.01,6.055,3.226,0,7.945L2.128,9.77
		c5.449-4.396,12.801-7.084,20.889-7.072c7.839,0.014,14.981,2.563,20.362,6.738L45.471,7.649z"/>
	<path fill="#FFFFFF" d="M7.95,14.756c3.938-3.061,9.176-4.926,14.925-4.916c5.568,0.008,10.651,1.772,14.535,4.676l2.152-1.834
		c-4.528-3.45-10.496-5.55-17.037-5.56C15.982,7.113,10.007,9.194,5.47,12.631"/>
	<path fill="#FFFFFF" d="M13.526,19.535c2.483-1.782,5.688-2.852,9.186-2.846c3.396,0.004,6.51,1.022,8.955,2.717l2.241-1.907
		c-3.023-2.178-6.928-3.496-11.19-3.502c-4.368-0.006-8.361,1.36-11.42,3.625L13.526,19.535z"/>
</g>
<g>
	<path fill="#FFFFFF" d="M64.346,70.351v20.013c0,1.715-0.295,3.215-0.885,4.504c-0.589,1.289-1.392,2.368-2.406,3.239
		c-1.016,0.871-2.204,1.525-3.568,1.964c-1.364,0.438-2.821,0.657-4.37,0.657c-1.659,0-3.181-0.229-4.566-0.688
		c-1.385-0.458-2.574-1.13-3.568-2.016c-0.994-0.884-1.769-1.97-2.324-3.259s-0.832-2.756-0.832-4.401V70.351h6.396v19.996
		c0,1.836,0.422,3.188,1.267,4.06c0.845,0.869,2.051,1.306,3.618,1.306c1.58,0,2.781-0.425,3.606-1.274
		c0.824-0.851,1.236-2.212,1.236-4.089V70.351H64.346z"/>
	<path fill="#FFFFFF" d="M86.948,88.06H76.706v12.236H70.31V70.351h18.798v5.02H76.706v7.671h10.242V88.06z"/>
	<path fill="#FFFFFF" d="M110.333,87.319H99.638v7.959h12.834v5.02H93.243V70.351h19.024v5.02H99.638v6.932h10.695V87.319z"/>
	<path fill="#FFFFFF" d="M117.923,93.058c0.355,0.314,0.798,0.631,1.326,0.945c0.527,0.314,1.117,0.601,1.77,0.854
		c0.65,0.253,1.354,0.459,2.107,0.616c0.754,0.158,1.535,0.236,2.344,0.236c1.658,0,2.948-0.291,3.867-0.873
		c0.918-0.584,1.378-1.39,1.378-2.418c0-0.617-0.155-1.142-0.462-1.574c-0.309-0.431-0.734-0.817-1.275-1.16
		c-0.543-0.344-1.18-0.654-1.913-0.938c-0.734-0.279-1.526-0.572-2.376-0.873c-1.7-0.617-3.109-1.23-4.227-1.842
		c-1.117-0.609-2.006-1.273-2.663-1.994c-0.658-0.72-1.12-1.529-1.388-2.428c-0.268-0.896-0.401-1.936-0.401-3.115
		c0-1.247,0.253-2.396,0.761-3.445c0.508-1.049,1.221-1.953,2.139-2.715c0.919-0.76,2.012-1.354,3.28-1.779
		c1.269-0.424,2.656-0.637,4.165-0.637c1.467,0,2.756,0.144,3.867,0.43c1.109,0.287,2.069,0.629,2.879,1.025
		c0.809,0.395,1.478,0.801,2.006,1.219c0.526,0.416,0.949,0.754,1.264,1.013l-2.591,3.965c-0.233-0.231-0.587-0.5-1.06-0.802
		c-0.473-0.303-1.025-0.59-1.656-0.864c-0.63-0.272-1.309-0.504-2.035-0.688c-0.727-0.185-1.447-0.277-2.159-0.277
		c-0.741,0-1.392,0.083-1.954,0.248c-0.563,0.164-1.032,0.387-1.409,0.668s-0.661,0.613-0.854,0.998
		c-0.192,0.385-0.288,0.797-0.288,1.236c0,0.534,0.119,0.993,0.36,1.379c0.239,0.383,0.604,0.733,1.091,1.049
		c0.485,0.315,1.106,0.625,1.859,0.926c0.755,0.303,1.646,0.639,2.675,1.01c1.536,0.549,2.852,1.121,3.948,1.719
		c1.098,0.598,1.998,1.275,2.705,2.037s1.227,1.627,1.563,2.594c0.336,0.969,0.505,2.09,0.505,3.367
		c0,1.151-0.255,2.246-0.761,3.281c-0.508,1.036-1.234,1.945-2.182,2.729c-0.945,0.781-2.097,1.402-3.454,1.861
		c-1.358,0.46-2.886,0.689-4.587,0.689c-1.33,0-2.561-0.119-3.691-0.359c-1.13-0.24-2.149-0.542-3.055-0.904
		c-0.904-0.362-1.695-0.762-2.375-1.192c-0.679-0.433-1.238-0.841-1.676-1.226L117.923,93.058z"/>
</g>
</svg>
