<?xml version="1.0" encoding="utf-8"?>
<!-- Generator: Adobe Illustrator 16.0.3, SVG Export Plug-In . SVG Version: 6.00 Build 0)  -->
<!DOCTYPE svg PUBLIC "-//W3C//DTD SVG 1.1//EN" "http://www.w3.org/Graphics/SVG/1.1/DTD/svg11.dtd">
<svg version="1.1" class="seadUfes" xmlns="http://www.w3.org/2000/svg" xmlns:xlink="http://www.w3.org/1999/xlink" x="0px" y="0px"
     width="82.637px" height="61.464px" viewBox="0 0 82.637 61.464" enable-background="new 0 0 82.637 61.464" xml:space="preserve">
<g>
	<g>
		<g>
			<path fill="#FFFFFF" d="M7.402,31.204c0.276,0.245,0.62,0.489,1.03,0.733c0.409,0.245,0.866,0.466,1.373,0.663
				c0.505,0.196,1.051,0.356,1.636,0.479c0.585,0.121,1.191,0.183,1.818,0.183c1.289,0,2.289-0.226,3.003-0.679
				c0.712-0.453,1.069-1.078,1.069-1.875c0-0.479-0.12-0.886-0.358-1.221c-0.239-0.335-0.569-0.636-0.99-0.902
				s-0.916-0.508-1.484-0.727c-0.568-0.218-1.184-0.444-1.844-0.678c-1.32-0.479-2.413-0.956-3.28-1.429
				c-0.867-0.474-1.557-0.99-2.067-1.548c-0.511-0.559-0.87-1.187-1.077-1.884c-0.208-0.697-0.313-1.503-0.313-2.419
				c0-0.968,0.196-1.86,0.591-2.673c0.395-0.814,0.947-1.518,1.661-2.108c0.712-0.591,1.562-1.051,2.545-1.38
				c0.985-0.33,2.063-0.495,3.233-0.495c1.14,0,2.14,0.111,3.001,0.334c0.862,0.222,1.607,0.488,2.236,0.794
				c0.627,0.308,1.146,0.623,1.556,0.946c0.41,0.323,0.737,0.585,0.981,0.786l-2.011,3.078c-0.182-0.181-0.456-0.389-0.822-0.623
				s-0.797-0.457-1.284-0.67c-0.49-0.213-1.019-0.392-1.581-0.535c-0.564-0.144-1.124-0.215-1.677-0.215
				c-0.574,0-1.08,0.063-1.517,0.191s-0.802,0.301-1.094,0.519c-0.293,0.219-0.514,0.477-0.662,0.775
				c-0.15,0.298-0.225,0.618-0.225,0.958c0,0.416,0.093,0.772,0.279,1.07c0.187,0.298,0.469,0.57,0.847,0.815
				c0.377,0.246,0.857,0.484,1.444,0.719c0.584,0.235,1.277,0.496,2.075,0.784c1.192,0.426,2.213,0.871,3.064,1.333
				c0.853,0.464,1.552,0.991,2.1,1.582c0.548,0.591,0.953,1.262,1.214,2.013c0.26,0.752,0.391,1.622,0.391,2.612
				c0,0.895-0.196,1.746-0.592,2.548c-0.393,0.804-0.957,1.509-1.69,2.117c-0.734,0.605-1.628,1.09-2.683,1.445
				c-1.055,0.357-2.241,0.535-3.561,0.535c-1.033,0-1.988-0.094-2.866-0.279c-0.878-0.187-1.668-0.42-2.37-0.703
				c-0.704-0.282-1.316-0.59-1.843-0.926c-0.528-0.336-0.961-0.652-1.302-0.951L7.402,31.204z"/>
			<path fill="#FFFFFF" d="M39.219,26.75h-8.303v6.179h9.963v3.895H25.953V13.58h14.769v3.895h-9.804v5.38h8.303L39.219,26.75
				L39.219,26.75z"/>
			<path fill="#FFFFFF" d="M55.584,32.098h-6.721l-1.277,4.726h-5.013l7.024-23.243h5.269l7.024,23.243h-5.014L55.584,32.098z
				 M49.916,28.202h4.614l-2.267-8.588h-0.097L49.916,28.202z"/>
			<path fill="#FFFFFF" d="M64.763,36.824V13.58h7.393c1.585,0,2.984,0.268,4.198,0.806c1.214,0.538,2.229,1.288,3.049,2.251
				c0.82,0.963,1.437,2.113,1.853,3.448c0.414,1.336,0.622,2.796,0.622,4.381v1.485c0,1.66-0.221,3.161-0.663,4.502
				c-0.439,1.339-1.08,2.482-1.916,3.423c-0.834,0.942-1.854,1.67-3.057,2.181c-1.203,0.51-2.563,0.767-4.086,0.767H64.763
				L64.763,36.824z M69.728,17.475v15.454h1.775c0.726,0,1.363-0.086,1.912-0.256c0.55-0.172,1.024-0.409,1.425-0.719
				c0.4-0.309,0.733-0.679,1.001-1.107c0.267-0.431,0.479-0.904,0.64-1.42c0.159-0.515,0.271-1.068,0.335-1.658
				c0.064-0.59,0.096-1.199,0.096-1.826v-1.515c0-1.021-0.085-1.956-0.255-2.807c-0.171-0.85-0.465-1.581-0.881-2.193
				c-0.417-0.611-0.97-1.09-1.665-1.436c-0.692-0.345-1.563-0.518-2.607-0.518L69.728,17.475L69.728,17.475z"/>
		</g>
	</g>
	<path fill="#FFFFFF" d="M27.7,5.188c-3.598-2.821-8.394-4.548-13.662-4.556C8.77,0.625,4.222,2.553,0.616,5.364l1.267,1.087
		c3.246-2.619,7.625-4.219,12.443-4.212c4.669,0.008,8.923,1.526,12.128,4.014L27.7,5.188z"/>
	<path fill="#FFFFFF" d="M5.351,9.421c2.346-1.823,5.465-2.935,8.89-2.929c3.317,0.005,6.345,1.056,8.658,2.786l1.282-1.092
		c-2.697-2.055-6.252-3.306-10.148-3.312C10.135,4.868,6.576,6.107,3.874,8.155"/>
	<path fill="#FFFFFF" d="M8.672,12.268c1.479-1.062,3.389-1.699,5.473-1.695c2.022,0.002,3.877,0.608,5.334,1.618l1.335-1.136
		c-1.801-1.297-4.127-2.083-6.666-2.086c-2.603-0.003-4.98,0.81-6.802,2.159L8.672,12.268z"/>
</g>
<g>
	<path fill="#FFFFFF" d="M38.943,42.537v11.92c0,1.021-0.176,1.916-0.527,2.684c-0.351,0.768-0.829,1.41-1.433,1.93
		c-0.605,0.52-1.313,0.908-2.125,1.17c-0.813,0.262-1.68,0.391-2.604,0.391c-0.987,0-1.895-0.137-2.72-0.408
		c-0.825-0.273-1.533-0.674-2.125-1.201c-0.592-0.525-1.054-1.174-1.384-1.941c-0.33-0.767-0.496-1.642-0.496-2.621V42.537h3.81
		v11.909c0,1.095,0.251,1.899,0.756,2.419c0.503,0.518,1.222,0.777,2.154,0.777c0.941,0,1.656-0.253,2.148-0.76
		c0.491-0.506,0.735-1.315,0.735-2.434V42.537H38.943z"/>
	<path fill="#FFFFFF" d="M52.406,53.085h-6.101v7.287h-3.811V42.537h11.197v2.989h-7.387v4.569h6.101V53.085z"/>
	<path fill="#FFFFFF" d="M66.335,52.644h-6.37v4.74h7.646v2.99H56.156V42.537h11.331v2.989h-7.522v4.13h6.37V52.644z"/>
	<path fill="#FFFFFF" d="M70.856,56.062c0.211,0.188,0.476,0.376,0.79,0.563c0.313,0.188,0.666,0.358,1.054,0.51
		c0.387,0.15,0.807,0.273,1.255,0.367c0.449,0.094,0.915,0.141,1.396,0.141c0.987,0,1.756-0.174,2.304-0.52
		c0.546-0.35,0.82-0.828,0.82-1.44c0-0.368-0.093-0.681-0.275-0.938c-0.184-0.257-0.438-0.486-0.76-0.691
		c-0.323-0.204-0.703-0.389-1.14-0.559c-0.438-0.166-0.908-0.341-1.416-0.521c-1.013-0.367-1.852-0.731-2.518-1.097
		c-0.666-0.362-1.195-0.758-1.586-1.188c-0.392-0.429-0.667-0.911-0.827-1.446c-0.16-0.533-0.239-1.154-0.239-1.855
		c0-0.742,0.15-1.426,0.453-2.053c0.304-0.623,0.728-1.162,1.274-1.617c0.547-0.451,1.198-0.805,1.953-1.059
		c0.756-0.252,1.583-0.38,2.48-0.38c0.874,0,1.643,0.087,2.304,0.257c0.66,0.17,1.231,0.373,1.715,0.61
		c0.481,0.233,0.88,0.478,1.194,0.726c0.313,0.248,0.565,0.449,0.753,0.604l-1.543,2.36c-0.139-0.137-0.35-0.297-0.631-0.478
		s-0.609-0.353-0.985-0.515c-0.375-0.162-0.78-0.301-1.212-0.41c-0.435-0.109-0.862-0.164-1.286-0.164
		c-0.441,0-0.829,0.049-1.164,0.146s-0.615,0.23-0.839,0.397c-0.226,0.168-0.395,0.364-0.509,0.595
		c-0.113,0.229-0.172,0.475-0.172,0.736c0,0.316,0.071,0.591,0.214,0.82c0.144,0.229,0.36,0.438,0.65,0.625
		c0.289,0.188,0.659,0.373,1.107,0.552c0.449,0.181,0.979,0.381,1.593,0.603c0.915,0.326,1.699,0.668,2.352,1.023
		c0.654,0.355,1.19,0.76,1.611,1.213c0.421,0.454,0.73,0.971,0.931,1.545c0.2,0.578,0.302,1.246,0.302,2.006
		c0,0.688-0.152,1.34-0.453,1.954c-0.304,0.617-0.735,1.159-1.301,1.626c-0.563,0.465-1.249,0.835-2.058,1.107
		c-0.809,0.275-1.719,0.41-2.732,0.41c-0.792,0-1.525-0.069-2.198-0.213c-0.673-0.143-1.28-0.322-1.82-0.539
		c-0.539-0.215-1.01-0.453-1.415-0.709c-0.404-0.258-0.737-0.502-0.999-0.73L70.856,56.062z"/>
</g>
</svg>
