<!DOCTYPE svg PUBLIC "-//W3C//DTD SVG 1.1//EN" "http://www.w3.org/Graphics/SVG/1.1/DTD/svg11.dtd">
<svg version="1.1" class="seadUfesExtenso" xmlns="http://www.w3.org/2000/svg" xmlns:xlink="http://www.w3.org/1999/xlink" x="0px" y="0px"
     width="210.273px" height="61.464px" viewBox="0 0 210.273 61.464" enable-background="new 0 0 210.273 61.464"
     xml:space="preserve">
<g class="assinatura">
	<path fill="#FFFFFF" d="M102.579,30.835c-0.577-0.166-1.06-0.347-1.453-0.544c-0.393-0.196-0.71-0.416-0.951-0.66
		c-0.241-0.243-0.416-0.512-0.521-0.807c-0.104-0.295-0.158-0.627-0.158-0.999c0-0.384,0.075-0.739,0.226-1.065
		c0.148-0.327,0.357-0.606,0.621-0.842c0.266-0.233,0.585-0.417,0.956-0.549c0.372-0.131,0.778-0.197,1.22-0.197
		c0.406,0,0.764,0.027,1.072,0.08c0.308,0.054,0.585,0.131,0.834,0.232c0.247,0.1,0.476,0.22,0.684,0.358
		c0.207,0.139,0.411,0.29,0.613,0.456l-0.549,0.912c-0.17-0.152-0.361-0.287-0.574-0.406c-0.211-0.118-0.431-0.218-0.659-0.298
		c-0.227-0.081-0.459-0.141-0.691-0.181c-0.231-0.04-0.451-0.06-0.656-0.06c-0.58,0-1.019,0.14-1.319,0.418
		c-0.299,0.28-0.449,0.653-0.449,1.123c0,0.209,0.041,0.397,0.124,0.563c0.083,0.166,0.211,0.315,0.386,0.449
		c0.174,0.134,0.399,0.259,0.673,0.372c0.275,0.115,0.605,0.227,0.99,0.338c0.578,0.17,1.054,0.353,1.429,0.549
		c0.375,0.197,0.675,0.415,0.895,0.657c0.221,0.241,0.377,0.51,0.467,0.811c0.089,0.3,0.135,0.632,0.135,0.998
		c0,0.385-0.084,0.739-0.249,1.065c-0.166,0.327-0.396,0.605-0.688,0.842c-0.292,0.234-0.634,0.417-1.028,0.549
		c-0.392,0.132-0.818,0.198-1.278,0.198c-0.389,0-0.749-0.027-1.08-0.081c-0.33-0.054-0.635-0.129-0.914-0.228
		c-0.279-0.099-0.537-0.217-0.771-0.355s-0.453-0.293-0.653-0.463l0.551-0.91c0.169,0.156,0.368,0.291,0.595,0.408
		c0.229,0.117,0.469,0.216,0.721,0.295c0.251,0.081,0.507,0.142,0.764,0.183c0.257,0.039,0.499,0.061,0.727,0.061
		c0.308,0,0.583-0.036,0.825-0.108c0.241-0.071,0.446-0.174,0.618-0.309c0.169-0.135,0.299-0.296,0.387-0.485
		c0.089-0.188,0.135-0.402,0.135-0.639c0-0.211-0.033-0.397-0.097-0.563c-0.065-0.164-0.174-0.314-0.328-0.449
		c-0.155-0.133-0.36-0.259-0.618-0.375C103.285,31.062,102.963,30.947,102.579,30.835z"/>
	<path fill="#FFFFFF" d="M110.533,35.21c-0.47,0-0.891-0.085-1.264-0.254s-0.691-0.406-0.95-0.707
		c-0.259-0.303-0.457-0.66-0.592-1.08c-0.139-0.416-0.206-0.874-0.206-1.37v-0.495c0-0.456,0.061-0.9,0.182-1.333
		c0.121-0.434,0.305-0.82,0.548-1.159c0.248-0.339,0.558-0.612,0.93-0.817c0.375-0.206,0.812-0.308,1.312-0.308
		c0.451,0,0.848,0.075,1.185,0.228c0.338,0.151,0.619,0.366,0.843,0.644c0.223,0.277,0.39,0.611,0.501,1.002
		c0.113,0.39,0.17,0.825,0.17,1.303v0.897h-4.309c0,0.005-0.001,0.005-0.005,0c-0.001-0.004-0.002-0.004-0.002,0
		c0.004,0.321,0.047,0.632,0.126,0.932c0.081,0.298,0.203,0.559,0.366,0.782s0.367,0.4,0.613,0.53
		c0.247,0.129,0.534,0.188,0.866,0.174c0.322-0.013,0.642-0.071,0.96-0.178c0.316-0.104,0.611-0.27,0.885-0.498l0.405,0.855
		c-0.376,0.31-0.784,0.528-1.225,0.659C111.431,35.146,110.984,35.21,110.533,35.21z M110.423,28.731
		c-0.211,0-0.403,0.051-0.581,0.153c-0.175,0.103-0.329,0.244-0.461,0.422c-0.134,0.179-0.24,0.389-0.325,0.63
		c-0.085,0.241-0.138,0.501-0.161,0.783c0.004,0.004,0.007,0.016,0.007,0.033c0,0.018,0,0.029,0,0.034h2.947v-0.275
		c0-0.254-0.029-0.49-0.091-0.707c-0.059-0.215-0.149-0.405-0.27-0.566c-0.121-0.161-0.271-0.286-0.45-0.376
		C110.86,28.776,110.655,28.731,110.423,28.731z"/>
	<path fill="#FFFFFF" d="M117.837,34.179c0.33,0,0.638-0.061,0.921-0.182c0.284-0.119,0.52-0.281,0.707-0.483l0.477,0.831
		c-0.112,0.118-0.239,0.229-0.383,0.334c-0.143,0.104-0.306,0.196-0.485,0.272c-0.182,0.08-0.381,0.142-0.596,0.188
		c-0.219,0.048-0.454,0.071-0.709,0.071c-0.494,0-0.93-0.088-1.31-0.262c-0.376-0.174-0.692-0.414-0.943-0.723
		c-0.254-0.31-0.445-0.671-0.573-1.089c-0.13-0.417-0.195-0.873-0.195-1.363v-0.65c0-0.487,0.065-0.94,0.195-1.36
		c0.129-0.42,0.32-0.784,0.573-1.092c0.251-0.308,0.567-0.549,0.943-0.724c0.38-0.174,0.815-0.261,1.31-0.261
		c0.255,0,0.49,0.022,0.709,0.067c0.215,0.044,0.414,0.104,0.596,0.18c0.18,0.076,0.343,0.165,0.485,0.264
		c0.143,0.101,0.272,0.209,0.389,0.325l-0.483,0.871c-0.187-0.201-0.424-0.364-0.707-0.489c-0.284-0.125-0.592-0.188-0.921-0.188
		c-0.291,0-0.544,0.064-0.763,0.194c-0.215,0.13-0.395,0.305-0.537,0.527c-0.144,0.22-0.253,0.481-0.328,0.783
		c-0.077,0.302-0.118,0.623-0.121,0.962v0.422c0,0.354,0.036,0.687,0.106,0.998c0.073,0.313,0.18,0.585,0.323,0.818
		c0.143,0.232,0.325,0.417,0.545,0.552C117.286,34.109,117.542,34.179,117.837,34.179z"/>
	<path fill="#FFFFFF" d="M124.871,28.979l-0.657-0.04c-0.321,0-0.588,0.085-0.798,0.255c-0.21,0.17-0.372,0.405-0.483,0.704v5.173
		h-1.34v-7.25h1.146l0.147,1.079c0.169-0.375,0.398-0.67,0.684-0.888c0.285-0.217,0.608-0.324,0.971-0.324
		c0.089,0,0.18,0.008,0.271,0.023c0.091,0.016,0.169,0.035,0.231,0.058L124.871,28.979z"/>
	<path fill="#FFFFFF" d="M128.864,35.21c-0.47,0-0.893-0.085-1.264-0.254c-0.375-0.169-0.691-0.406-0.951-0.707
		c-0.259-0.303-0.457-0.66-0.593-1.08c-0.137-0.416-0.207-0.874-0.207-1.37v-0.495c0-0.456,0.062-0.9,0.184-1.333
		c0.122-0.434,0.304-0.82,0.549-1.159c0.246-0.339,0.555-0.612,0.93-0.817c0.374-0.206,0.81-0.308,1.313-0.308
		c0.45,0,0.846,0.075,1.184,0.228c0.339,0.151,0.617,0.366,0.842,0.644c0.224,0.277,0.392,0.611,0.504,1.002
		c0.111,0.39,0.167,0.825,0.167,1.303v0.897h-4.308c0,0.005,0,0.005-0.004,0c-0.001-0.004-0.004-0.004-0.004,0
		c0.007,0.321,0.048,0.632,0.129,0.932c0.082,0.298,0.203,0.559,0.364,0.782c0.165,0.224,0.369,0.4,0.615,0.53
		c0.246,0.129,0.533,0.188,0.865,0.174c0.322-0.013,0.642-0.071,0.958-0.178c0.318-0.104,0.613-0.27,0.886-0.498l0.405,0.855
		c-0.375,0.31-0.785,0.528-1.225,0.659C129.762,35.146,129.316,35.21,128.864,35.21z M128.752,28.731
		c-0.21,0-0.403,0.051-0.58,0.153c-0.175,0.103-0.331,0.244-0.461,0.422c-0.133,0.179-0.24,0.389-0.324,0.63
		c-0.086,0.241-0.14,0.501-0.162,0.783c0.006,0.004,0.007,0.016,0.007,0.033c0,0.018,0,0.029,0,0.034h2.948v-0.275
		c0-0.254-0.028-0.49-0.09-0.707c-0.06-0.215-0.15-0.405-0.271-0.566c-0.119-0.161-0.27-0.286-0.448-0.376
		C129.191,28.776,128.986,28.731,128.752,28.731z"/>
	<path fill="#FFFFFF" d="M134.995,26.044v1.775h1.453v0.979h-1.453v4.355c0,0.358,0.063,0.612,0.195,0.761
		c0.128,0.15,0.313,0.225,0.555,0.225c0.094,0,0.199-0.014,0.313-0.044c0.111-0.028,0.22-0.061,0.317-0.097l0.155,0.918
		c-0.064,0.036-0.142,0.072-0.238,0.107c-0.096,0.037-0.197,0.067-0.308,0.095c-0.111,0.026-0.221,0.05-0.333,0.066
		c-0.111,0.018-0.214,0.026-0.309,0.026c-0.263,0-0.498-0.039-0.706-0.116c-0.21-0.078-0.385-0.2-0.531-0.365
		c-0.144-0.166-0.256-0.376-0.335-0.634c-0.077-0.257-0.117-0.563-0.117-0.922v-4.375h-1.046v-0.979h1.046v-1.775H134.995z"/>
	<path fill="#FFFFFF" d="M142.731,35.203c-0.098-0.031-0.201-0.084-0.306-0.158c-0.104-0.071-0.204-0.158-0.298-0.258
		c-0.094-0.099-0.174-0.206-0.24-0.322c-0.066-0.115-0.112-0.234-0.136-0.355c-0.111,0.166-0.246,0.317-0.404,0.453
		c-0.16,0.137-0.332,0.253-0.516,0.348c-0.186,0.097-0.383,0.17-0.588,0.223c-0.205,0.052-0.412,0.077-0.623,0.077
		c-0.344,0-0.647-0.051-0.913-0.153c-0.266-0.099-0.49-0.241-0.672-0.428c-0.181-0.186-0.317-0.409-0.411-0.677
		c-0.092-0.265-0.14-0.563-0.14-0.895c0-0.348,0.066-0.66,0.2-0.938c0.134-0.276,0.327-0.512,0.581-0.704
		c0.251-0.191,0.558-0.339,0.915-0.441c0.357-0.103,0.76-0.154,1.211-0.154h1.219v-0.713c0-0.434-0.105-0.776-0.316-1.025
		c-0.212-0.248-0.542-0.371-0.989-0.366c-0.209,0-0.41,0.021-0.603,0.063c-0.192,0.042-0.373,0.097-0.544,0.164
		c-0.169,0.067-0.323,0.142-0.466,0.225c-0.139,0.083-0.263,0.166-0.372,0.25l-0.449-0.836c0.087-0.07,0.208-0.157,0.365-0.259
		c0.16-0.103,0.352-0.201,0.577-0.297s0.481-0.176,0.765-0.243c0.283-0.066,0.599-0.1,0.942-0.1c0.357,0,0.683,0.054,0.982,0.16
		c0.299,0.107,0.558,0.265,0.772,0.472c0.213,0.208,0.38,0.463,0.498,0.767s0.177,0.65,0.177,1.039v3.336
		c0,0.196,0.029,0.373,0.084,0.526c0.057,0.155,0.158,0.29,0.305,0.406L142.731,35.203z M139.87,34.139
		c0.19,0,0.379-0.031,0.563-0.094s0.351-0.146,0.506-0.251s0.289-0.227,0.405-0.366c0.115-0.137,0.205-0.282,0.268-0.435v-1.279
		h-1.226c-0.25,0-0.472,0.035-0.668,0.104c-0.193,0.069-0.357,0.165-0.488,0.288c-0.132,0.122-0.233,0.267-0.302,0.433
		c-0.068,0.164-0.103,0.341-0.103,0.529c0,0.321,0.086,0.581,0.261,0.778C139.259,34.04,139.519,34.139,139.87,34.139z"/>
	<path fill="#FFFFFF" d="M148.551,28.979l-0.657-0.04c-0.321,0-0.586,0.085-0.795,0.255c-0.212,0.17-0.373,0.405-0.484,0.704v5.173
		h-1.34v-7.25h1.146l0.147,1.079c0.168-0.375,0.396-0.67,0.684-0.888c0.284-0.217,0.609-0.324,0.971-0.324
		c0.091,0,0.181,0.008,0.271,0.023c0.092,0.016,0.169,0.035,0.231,0.058L148.551,28.979z"/>
	<path fill="#FFFFFF" d="M151.542,25.943h-1.34v-1.327h1.34V25.943z M151.542,35.069h-1.34v-7.25h1.34V35.069z"/>
	<path fill="#FFFFFF" d="M158.501,35.203c-0.1-0.031-0.201-0.084-0.306-0.158c-0.105-0.071-0.204-0.158-0.298-0.258
		c-0.094-0.099-0.174-0.206-0.241-0.322c-0.065-0.115-0.112-0.234-0.135-0.355c-0.111,0.166-0.247,0.317-0.405,0.453
		c-0.159,0.137-0.331,0.253-0.516,0.348c-0.186,0.097-0.382,0.17-0.587,0.223c-0.206,0.052-0.412,0.077-0.621,0.077
		c-0.345,0-0.649-0.051-0.916-0.153c-0.267-0.099-0.488-0.241-0.669-0.428c-0.183-0.186-0.318-0.409-0.413-0.677
		c-0.093-0.265-0.141-0.563-0.141-0.895c0-0.348,0.066-0.66,0.201-0.938c0.135-0.276,0.326-0.512,0.58-0.704
		c0.253-0.191,0.559-0.339,0.915-0.441c0.357-0.103,0.76-0.154,1.211-0.154h1.219v-0.713c0-0.434-0.105-0.776-0.316-1.025
		c-0.212-0.248-0.542-0.371-0.988-0.366c-0.211,0-0.411,0.021-0.604,0.063c-0.19,0.042-0.373,0.097-0.544,0.164
		c-0.169,0.067-0.323,0.142-0.465,0.225c-0.141,0.083-0.263,0.166-0.371,0.25l-0.449-0.836c0.084-0.07,0.207-0.157,0.365-0.259
		c0.157-0.103,0.35-0.201,0.575-0.297c0.227-0.096,0.48-0.176,0.764-0.243c0.284-0.066,0.599-0.1,0.943-0.1
		c0.357,0,0.684,0.054,0.983,0.16c0.299,0.107,0.558,0.265,0.771,0.472c0.213,0.208,0.38,0.463,0.499,0.767
		c0.117,0.304,0.177,0.65,0.177,1.039v3.336c0,0.196,0.027,0.373,0.084,0.526c0.056,0.155,0.157,0.29,0.305,0.406L158.501,35.203z
		 M155.64,34.139c0.192,0,0.379-0.031,0.563-0.094s0.351-0.146,0.506-0.251s0.288-0.227,0.405-0.366
		c0.116-0.137,0.205-0.282,0.268-0.435v-1.279h-1.226c-0.25,0-0.472,0.035-0.666,0.104c-0.195,0.069-0.358,0.165-0.49,0.288
		c-0.132,0.122-0.231,0.267-0.301,0.433c-0.069,0.164-0.104,0.341-0.104,0.529c0,0.321,0.087,0.581,0.261,0.778
		C155.031,34.04,155.292,34.139,155.64,34.139z"/>
	<path fill="#FFFFFF" d="M163.681,31.558c0-0.571,0.053-1.095,0.16-1.569c0.105-0.478,0.271-0.885,0.49-1.228
		c0.219-0.341,0.494-0.606,0.826-0.793c0.334-0.188,0.725-0.282,1.176-0.282c0.385,0,0.725,0.078,1.018,0.234
		c0.297,0.157,0.553,0.379,0.766,0.67v-3.966h1.34v8.837c0,0.241,0.035,0.43,0.102,0.563c0.066,0.133,0.162,0.257,0.285,0.368
		l-0.602,0.81c-0.055-0.012-0.127-0.046-0.221-0.1s-0.189-0.125-0.293-0.218c-0.098-0.091-0.191-0.2-0.275-0.328
		c-0.086-0.128-0.146-0.271-0.182-0.433c-0.107,0.166-0.225,0.314-0.352,0.449c-0.127,0.134-0.271,0.248-0.434,0.342
		s-0.34,0.166-0.537,0.219c-0.195,0.049-0.418,0.075-0.668,0.075c-0.416,0-0.783-0.078-1.105-0.235
		c-0.32-0.156-0.594-0.385-0.814-0.687s-0.391-0.669-0.508-1.103c-0.115-0.433-0.174-0.929-0.174-1.487v-0.14H163.681z
		 M165.021,31.699c0,0.384,0.033,0.73,0.102,1.036c0.066,0.306,0.166,0.564,0.301,0.78c0.135,0.215,0.303,0.379,0.508,0.492
		c0.207,0.112,0.451,0.172,0.732,0.172c0.174,0,0.332-0.034,0.475-0.1c0.143-0.068,0.275-0.155,0.396-0.267
		c0.121-0.108,0.23-0.234,0.324-0.378c0.098-0.143,0.182-0.293,0.258-0.45V29.89c-0.076-0.147-0.16-0.288-0.26-0.425
		c-0.1-0.136-0.209-0.258-0.326-0.365c-0.117-0.108-0.25-0.192-0.393-0.255c-0.143-0.063-0.297-0.094-0.461-0.094
		c-0.281,0-0.525,0.071-0.734,0.211c-0.207,0.142-0.379,0.336-0.514,0.586c-0.137,0.25-0.238,0.546-0.307,0.888
		c-0.066,0.342-0.1,0.716-0.1,1.122v0.142H165.021z"/>
	<path fill="#FFFFFF" d="M174.483,35.21c-0.469,0-0.891-0.085-1.266-0.254s-0.689-0.406-0.951-0.707
		c-0.258-0.303-0.455-0.66-0.592-1.08c-0.139-0.416-0.205-0.874-0.205-1.37v-0.495c0-0.456,0.061-0.9,0.182-1.333
		c0.119-0.434,0.303-0.82,0.551-1.159c0.246-0.339,0.555-0.612,0.928-0.817c0.373-0.206,0.813-0.308,1.314-0.308
		c0.451,0,0.846,0.075,1.184,0.228c0.336,0.151,0.619,0.366,0.84,0.644c0.225,0.277,0.393,0.611,0.506,1.002
		c0.109,0.39,0.166,0.825,0.166,1.303v0.897h-4.311c0,0.005,0,0.005,0,0c-0.006-0.004-0.006-0.004-0.006,0
		c0.006,0.321,0.047,0.632,0.127,0.932c0.082,0.298,0.203,0.559,0.367,0.782c0.162,0.224,0.369,0.4,0.613,0.53
		c0.246,0.129,0.535,0.188,0.865,0.174c0.322-0.013,0.643-0.071,0.957-0.178c0.32-0.104,0.615-0.27,0.887-0.498l0.406,0.855
		c-0.377,0.31-0.785,0.528-1.227,0.659C175.382,35.146,174.935,35.21,174.483,35.21z M174.372,28.731
		c-0.209,0-0.404,0.051-0.58,0.153s-0.33,0.244-0.463,0.422c-0.131,0.179-0.238,0.389-0.326,0.63
		c-0.084,0.241-0.137,0.501-0.16,0.783c0.006,0.004,0.008,0.016,0.008,0.033c0,0.018,0,0.029,0,0.034h2.949v-0.275
		c0-0.254-0.033-0.49-0.09-0.707c-0.063-0.215-0.152-0.405-0.271-0.566c-0.121-0.161-0.27-0.286-0.451-0.376
		C174.81,28.776,174.604,28.731,174.372,28.731z"/>
	<path fill="#FFFFFF" d="M105.125,47.014h-3.98v3.49h4.611v1.032h-5.951V41.78h5.891v1.045h-4.55v3.156h3.98V47.014L105.125,47.014z
		"/>
	<path fill="#FFFFFF" d="M108.748,44.287l0.134,1.078c0.219-0.379,0.501-0.676,0.848-0.891c0.345-0.214,0.735-0.32,1.169-0.32
		c0.353,0,0.669,0.056,0.944,0.171c0.277,0.113,0.512,0.287,0.704,0.522c0.192,0.233,0.336,0.529,0.439,0.886
		c0.099,0.358,0.149,0.781,0.149,1.267v4.537h-1.34v-4.517c0-0.308-0.034-0.576-0.105-0.805c-0.067-0.228-0.162-0.415-0.28-0.563
		c-0.117-0.147-0.254-0.257-0.407-0.328c-0.155-0.072-0.319-0.108-0.494-0.108c-0.271,0-0.548,0.086-0.823,0.256
		c-0.277,0.17-0.518,0.416-0.725,0.737v5.326h-1.34v-7.249H108.748z"/>
	<path fill="#FFFFFF" d="M119.043,49.721c0-0.112-0.021-0.22-0.061-0.325c-0.041-0.104-0.114-0.208-0.221-0.309
		c-0.107-0.101-0.253-0.198-0.439-0.292c-0.185-0.093-0.42-0.186-0.706-0.274c-0.402-0.119-0.755-0.246-1.056-0.378
		c-0.302-0.131-0.552-0.283-0.753-0.456c-0.201-0.172-0.354-0.372-0.453-0.6c-0.102-0.228-0.15-0.498-0.15-0.81
		c0-0.305,0.059-0.586,0.181-0.844c0.12-0.261,0.291-0.484,0.512-0.674s0.487-0.338,0.798-0.445c0.31-0.107,0.652-0.162,1.028-0.162
		c0.336,0,0.637,0.027,0.907,0.083c0.271,0.057,0.511,0.127,0.721,0.211c0.21,0.085,0.39,0.177,0.539,0.271
		c0.149,0.099,0.276,0.188,0.379,0.272l-0.361,0.926c-0.326-0.229-0.661-0.403-1.003-0.527c-0.342-0.122-0.69-0.185-1.048-0.185
		c-0.229,0-0.425,0.027-0.595,0.077c-0.166,0.052-0.305,0.119-0.415,0.205c-0.108,0.085-0.189,0.183-0.241,0.29
		c-0.051,0.112-0.077,0.227-0.077,0.346c0,0.099,0.019,0.194,0.051,0.285c0.033,0.092,0.103,0.182,0.201,0.268
		c0.102,0.088,0.241,0.175,0.424,0.262c0.181,0.087,0.419,0.173,0.714,0.259c0.818,0.245,1.435,0.549,1.847,0.91
		c0.412,0.362,0.618,0.812,0.618,1.348c0,0.348-0.064,0.66-0.193,0.934c-0.128,0.274-0.305,0.508-0.532,0.697
		c-0.227,0.189-0.497,0.336-0.809,0.439c-0.314,0.103-0.655,0.153-1.026,0.153c-0.563,0-1.079-0.076-1.552-0.228
		c-0.47-0.152-0.868-0.355-1.195-0.609l0.376-0.938c0.344,0.228,0.712,0.405,1.108,0.533c0.396,0.127,0.789,0.19,1.184,0.19
		c0.218,0,0.408-0.025,0.571-0.074s0.298-0.116,0.406-0.2c0.107-0.085,0.187-0.183,0.24-0.292
		C119.016,49.95,119.043,49.837,119.043,49.721z"/>
	<path fill="#FFFFFF" d="M123.697,42.412h-1.341v-1.328h1.341V42.412z M123.697,51.537h-1.341v-7.25h1.341V51.537z"/>
	<path fill="#FFFFFF" d="M127.192,44.287l0.134,1.078c0.219-0.379,0.503-0.676,0.849-0.891c0.347-0.214,0.735-0.32,1.169-0.32
		c0.353,0,0.669,0.056,0.944,0.171c0.277,0.113,0.511,0.287,0.704,0.522c0.192,0.233,0.339,0.529,0.438,0.886
		c0.102,0.358,0.151,0.781,0.151,1.267v4.537h-1.34v-4.517c0-0.308-0.035-0.576-0.104-0.805c-0.07-0.228-0.163-0.415-0.281-0.563
		c-0.121-0.147-0.255-0.257-0.41-0.328c-0.154-0.072-0.316-0.108-0.492-0.108c-0.271,0-0.546,0.086-0.824,0.256
		c-0.275,0.17-0.518,0.416-0.722,0.737v5.326h-1.341v-7.249H127.192z"/>
	<path fill="#FFFFFF" d="M133.521,47.651c0-0.502,0.069-0.964,0.207-1.392c0.139-0.426,0.338-0.796,0.6-1.108
		s0.578-0.557,0.952-0.732c0.372-0.177,0.795-0.265,1.27-0.265c0.474,0,0.897,0.088,1.272,0.265c0.376,0.176,0.693,0.42,0.955,0.732
		c0.261,0.313,0.461,0.683,0.604,1.108c0.138,0.428,0.21,0.89,0.21,1.392v0.535c0,0.51-0.071,0.978-0.21,1.404
		c-0.142,0.426-0.343,0.794-0.604,1.102c-0.262,0.309-0.579,0.549-0.953,0.724c-0.373,0.175-0.794,0.261-1.262,0.261
		c-0.479,0-0.906-0.087-1.279-0.261c-0.375-0.175-0.694-0.416-0.955-0.728c-0.261-0.311-0.461-0.679-0.6-1.106
		c-0.138-0.425-0.207-0.892-0.207-1.396V47.651L133.521,47.651z M134.861,48.187c0,0.354,0.036,0.681,0.104,0.981
		c0.07,0.302,0.175,0.563,0.314,0.781c0.139,0.219,0.317,0.39,0.534,0.513c0.213,0.123,0.463,0.185,0.75,0.185
		c0.281,0,0.526-0.063,0.735-0.188c0.211-0.125,0.387-0.298,0.526-0.516c0.141-0.221,0.247-0.48,0.317-0.782
		c0.073-0.301,0.109-0.626,0.109-0.975v-0.535c0-0.348-0.037-0.671-0.109-0.968c-0.07-0.298-0.177-0.558-0.32-0.777
		c-0.144-0.224-0.321-0.396-0.533-0.521s-0.459-0.188-0.74-0.188c-0.289,0-0.539,0.065-0.751,0.19
		c-0.21,0.129-0.384,0.303-0.527,0.522c-0.14,0.222-0.244,0.482-0.31,0.781c-0.066,0.299-0.101,0.619-0.101,0.959L134.861,48.187
		L134.861,48.187z"/>
	<path fill="#FFFFFF" d="M149.207,51.672c-0.098-0.031-0.2-0.084-0.305-0.159c-0.105-0.072-0.204-0.159-0.297-0.258
		c-0.095-0.098-0.177-0.206-0.243-0.321c-0.067-0.117-0.11-0.234-0.133-0.354c-0.112,0.164-0.247,0.316-0.406,0.451
		c-0.159,0.138-0.332,0.254-0.516,0.349c-0.186,0.097-0.381,0.17-0.586,0.223c-0.205,0.051-0.413,0.076-0.624,0.076
		c-0.345,0-0.647-0.049-0.913-0.151c-0.267-0.099-0.488-0.242-0.671-0.429c-0.181-0.186-0.318-0.41-0.412-0.677
		c-0.092-0.266-0.139-0.563-0.139-0.896c0-0.346,0.066-0.659,0.201-0.936c0.134-0.278,0.326-0.512,0.578-0.705
		c0.253-0.192,0.557-0.339,0.915-0.442c0.357-0.103,0.763-0.154,1.214-0.154h1.218v-0.712c0-0.435-0.104-0.777-0.317-1.025
		s-0.543-0.371-0.989-0.367c-0.21,0-0.41,0.021-0.604,0.064c-0.191,0.042-0.373,0.098-0.542,0.164
		c-0.169,0.065-0.325,0.142-0.466,0.225c-0.142,0.083-0.266,0.164-0.372,0.251l-0.448-0.838c0.086-0.071,0.207-0.156,0.365-0.26
		c0.158-0.102,0.351-0.2,0.576-0.296c0.225-0.096,0.479-0.177,0.764-0.243s0.598-0.1,0.94-0.1c0.359,0,0.687,0.054,0.985,0.161
		c0.299,0.108,0.555,0.264,0.771,0.472c0.213,0.208,0.379,0.463,0.498,0.767c0.119,0.305,0.178,0.651,0.178,1.039v3.338
		c0,0.196,0.027,0.372,0.084,0.525c0.055,0.155,0.158,0.289,0.305,0.406L149.207,51.672z M146.347,50.605
		c0.191,0,0.379-0.031,0.563-0.093c0.183-0.063,0.353-0.146,0.505-0.252c0.154-0.105,0.289-0.227,0.407-0.365
		c0.115-0.138,0.205-0.283,0.267-0.435v-1.28h-1.225c-0.252,0-0.475,0.035-0.667,0.104c-0.195,0.07-0.358,0.166-0.491,0.288
		c-0.132,0.124-0.23,0.267-0.3,0.433c-0.07,0.164-0.104,0.341-0.104,0.529c0,0.321,0.087,0.581,0.261,0.778
		C145.736,50.508,145.998,50.605,146.347,50.605z"/>
	<path fill="#FFFFFF" d="M154.991,51.537V41.78h2.307c0.617,0,1.193,0.081,1.729,0.242c0.538,0.16,1.004,0.419,1.402,0.777
		c0.397,0.357,0.71,0.823,0.938,1.396c0.229,0.575,0.344,1.272,0.344,2.095v0.744c0,0.692-0.096,1.316-0.286,1.873
		c-0.189,0.556-0.46,1.028-0.816,1.417c-0.353,0.39-0.78,0.688-1.282,0.898c-0.504,0.21-1.068,0.315-1.695,0.315h-2.641
		L154.991,51.537L154.991,51.537z M156.331,42.827v7.679h1.272c0.447,0,0.842-0.079,1.186-0.239
		c0.344-0.157,0.633-0.387,0.868-0.686c0.233-0.299,0.412-0.663,0.533-1.092c0.121-0.43,0.181-0.914,0.181-1.454v-0.757
		c0-0.528-0.06-1.005-0.181-1.43c-0.12-0.427-0.298-0.791-0.529-1.09c-0.233-0.299-0.521-0.529-0.869-0.69
		c-0.346-0.161-0.741-0.24-1.188-0.24L156.331,42.827L156.331,42.827z"/>
	<path fill="#FFFFFF" d="M165.091,42.412h-1.34v-1.328h1.34V42.412z M165.091,51.537h-1.34v-7.25h1.34V51.537z"/>
	<path fill="#FFFFFF" d="M171.038,49.721c0-0.112-0.02-0.22-0.061-0.325c-0.041-0.104-0.113-0.208-0.221-0.309
		s-0.254-0.198-0.438-0.292c-0.188-0.093-0.422-0.186-0.707-0.274c-0.404-0.119-0.756-0.246-1.055-0.378
		c-0.303-0.131-0.555-0.283-0.754-0.456c-0.201-0.172-0.352-0.372-0.453-0.6s-0.15-0.498-0.15-0.81c0-0.305,0.059-0.586,0.18-0.844
		c0.121-0.261,0.291-0.484,0.512-0.674s0.488-0.338,0.797-0.445c0.313-0.107,0.656-0.162,1.031-0.162
		c0.334,0,0.637,0.027,0.906,0.083c0.27,0.057,0.51,0.127,0.721,0.211c0.209,0.085,0.389,0.177,0.541,0.271
		c0.148,0.099,0.273,0.188,0.377,0.272l-0.361,0.926c-0.326-0.229-0.66-0.403-1.002-0.527c-0.342-0.122-0.691-0.185-1.049-0.185
		c-0.229,0-0.426,0.027-0.592,0.077c-0.17,0.052-0.309,0.119-0.416,0.205c-0.111,0.085-0.191,0.183-0.24,0.29
		c-0.055,0.112-0.078,0.227-0.078,0.346c0,0.099,0.016,0.194,0.049,0.285c0.035,0.092,0.102,0.182,0.201,0.268
		c0.102,0.088,0.242,0.175,0.426,0.262c0.18,0.087,0.418,0.173,0.713,0.259c0.818,0.245,1.434,0.549,1.846,0.91
		c0.412,0.362,0.617,0.812,0.617,1.348c0,0.348-0.064,0.66-0.193,0.934c-0.125,0.274-0.305,0.508-0.529,0.697
		c-0.227,0.189-0.498,0.336-0.811,0.439c-0.314,0.103-0.654,0.153-1.025,0.153c-0.564,0-1.08-0.076-1.553-0.228
		c-0.471-0.152-0.871-0.355-1.195-0.609l0.375-0.938c0.344,0.228,0.715,0.405,1.109,0.533c0.396,0.127,0.787,0.19,1.18,0.19
		c0.221,0,0.412-0.025,0.574-0.074c0.164-0.049,0.299-0.116,0.406-0.2c0.107-0.085,0.186-0.183,0.242-0.292
		C171.011,49.95,171.038,49.837,171.038,49.721z"/>
	<path fill="#FFFFFF" d="M175.886,42.511v1.776h1.455v0.979h-1.455v4.354c0,0.358,0.066,0.611,0.195,0.762
		c0.131,0.149,0.314,0.224,0.557,0.224c0.094,0,0.197-0.014,0.313-0.044c0.113-0.027,0.219-0.061,0.316-0.098l0.154,0.919
		c-0.061,0.036-0.143,0.071-0.238,0.108c-0.096,0.035-0.199,0.066-0.309,0.093s-0.221,0.049-0.33,0.067
		c-0.111,0.018-0.215,0.026-0.311,0.026c-0.262,0-0.498-0.039-0.707-0.116c-0.207-0.078-0.385-0.2-0.529-0.365
		c-0.146-0.166-0.258-0.376-0.334-0.634c-0.08-0.257-0.119-0.563-0.119-0.921v-4.376h-1.043v-0.978h1.043v-1.776L175.886,42.511
		L175.886,42.511L175.886,42.511z"/>
	<path fill="#FFFFFF" d="M183.624,51.672c-0.1-0.031-0.201-0.084-0.307-0.159c-0.105-0.072-0.205-0.159-0.297-0.258
		c-0.096-0.098-0.174-0.206-0.242-0.321c-0.066-0.117-0.111-0.234-0.133-0.354c-0.111,0.164-0.246,0.316-0.408,0.451
		c-0.158,0.138-0.33,0.254-0.516,0.349c-0.186,0.097-0.379,0.17-0.586,0.223c-0.203,0.051-0.41,0.076-0.621,0.076
		c-0.344,0-0.65-0.049-0.916-0.151c-0.266-0.099-0.486-0.242-0.67-0.429c-0.182-0.186-0.316-0.41-0.41-0.677
		c-0.096-0.266-0.143-0.563-0.143-0.896c0-0.346,0.066-0.659,0.203-0.936c0.133-0.278,0.328-0.512,0.578-0.705
		c0.254-0.192,0.559-0.339,0.916-0.442c0.357-0.103,0.76-0.154,1.211-0.154h1.221v-0.712c0-0.435-0.105-0.777-0.32-1.025
		c-0.211-0.248-0.537-0.371-0.984-0.367c-0.211,0-0.412,0.021-0.604,0.064c-0.191,0.042-0.375,0.098-0.543,0.164
		c-0.17,0.066-0.326,0.142-0.467,0.225c-0.139,0.083-0.264,0.164-0.371,0.251l-0.449-0.838c0.084-0.071,0.207-0.156,0.363-0.26
		c0.16-0.102,0.352-0.2,0.578-0.296c0.225-0.096,0.48-0.177,0.762-0.243c0.285-0.066,0.6-0.1,0.943-0.1
		c0.357,0,0.686,0.054,0.984,0.161c0.299,0.108,0.559,0.264,0.771,0.472c0.215,0.208,0.379,0.463,0.498,0.767
		c0.119,0.305,0.178,0.651,0.178,1.039v3.338c0,0.196,0.029,0.372,0.084,0.525c0.059,0.155,0.158,0.289,0.305,0.406L183.624,51.672z
		 M183.737,43.241h-1.092l-1.24-1.085l-1.234,1.085h-1.07l1.834-2.204h0.945L183.737,43.241z M180.761,50.605
		c0.193,0,0.381-0.031,0.563-0.093c0.184-0.063,0.352-0.146,0.506-0.252s0.289-0.227,0.408-0.365
		c0.115-0.138,0.203-0.283,0.268-0.435v-1.28h-1.229c-0.25,0-0.473,0.035-0.666,0.104c-0.193,0.07-0.357,0.166-0.49,0.288
		c-0.129,0.124-0.232,0.267-0.299,0.433c-0.07,0.164-0.105,0.341-0.105,0.529c0,0.321,0.088,0.581,0.262,0.778
		C180.153,50.508,180.413,50.605,180.761,50.605z"/>
	<path fill="#FFFFFF" d="M187.29,44.287l0.135,1.078c0.219-0.379,0.502-0.676,0.848-0.891c0.346-0.214,0.736-0.32,1.172-0.32
		c0.352,0,0.666,0.056,0.941,0.171c0.279,0.113,0.514,0.287,0.707,0.522c0.191,0.233,0.336,0.529,0.438,0.886
		c0.1,0.358,0.15,0.781,0.15,1.267v4.537h-1.34v-4.517c0-0.308-0.035-0.576-0.104-0.805c-0.07-0.228-0.164-0.415-0.281-0.563
		c-0.119-0.147-0.256-0.257-0.41-0.328c-0.154-0.072-0.316-0.108-0.492-0.108c-0.271,0-0.549,0.086-0.826,0.256
		s-0.518,0.416-0.723,0.737v5.326h-1.34v-7.249H187.29z"/>
	<path fill="#FFFFFF" d="M196.729,50.646c0.33,0,0.637-0.061,0.922-0.183c0.283-0.119,0.518-0.28,0.707-0.48l0.477,0.829
		c-0.113,0.117-0.242,0.228-0.383,0.334c-0.145,0.104-0.305,0.196-0.486,0.271c-0.182,0.08-0.381,0.142-0.596,0.188
		c-0.219,0.048-0.453,0.071-0.707,0.071c-0.496,0-0.934-0.087-1.313-0.262c-0.377-0.174-0.689-0.415-0.945-0.723
		c-0.252-0.309-0.439-0.671-0.57-1.089c-0.129-0.419-0.195-0.874-0.195-1.365V47.59c0-0.487,0.066-0.94,0.195-1.36
		c0.131-0.42,0.318-0.783,0.57-1.092c0.256-0.309,0.568-0.55,0.945-0.725c0.379-0.173,0.816-0.261,1.313-0.261
		c0.254,0,0.488,0.022,0.707,0.066c0.217,0.045,0.414,0.105,0.596,0.181c0.182,0.077,0.342,0.165,0.486,0.265
		c0.141,0.102,0.271,0.21,0.387,0.325l-0.482,0.871c-0.188-0.2-0.424-0.363-0.707-0.489c-0.285-0.125-0.59-0.188-0.922-0.188
		c-0.289,0-0.545,0.064-0.76,0.195c-0.217,0.129-0.396,0.304-0.537,0.526c-0.145,0.22-0.256,0.482-0.332,0.782
		c-0.076,0.302-0.115,0.623-0.119,0.962v0.423c0,0.353,0.035,0.686,0.107,0.997c0.072,0.313,0.18,0.586,0.322,0.818
		c0.141,0.232,0.324,0.417,0.545,0.553C196.175,50.579,196.435,50.646,196.729,50.646z"/>
	<path fill="#FFFFFF" d="M201.837,42.412h-1.338v-1.328h1.338V42.412z M201.837,51.537h-1.338v-7.25h1.338V51.537z"/>
	<path fill="#FFFFFF" d="M208.796,51.672c-0.098-0.031-0.199-0.084-0.303-0.159c-0.105-0.072-0.205-0.159-0.301-0.258
		c-0.094-0.098-0.174-0.206-0.24-0.321c-0.066-0.117-0.111-0.234-0.135-0.354c-0.111,0.164-0.248,0.316-0.406,0.451
		c-0.158,0.138-0.33,0.254-0.514,0.349c-0.188,0.097-0.383,0.17-0.586,0.223c-0.207,0.051-0.414,0.076-0.625,0.076
		c-0.344,0-0.648-0.049-0.914-0.151c-0.266-0.099-0.486-0.242-0.67-0.429c-0.18-0.186-0.316-0.41-0.41-0.677
		c-0.094-0.266-0.141-0.563-0.141-0.896c0-0.346,0.066-0.659,0.201-0.936c0.133-0.278,0.324-0.512,0.578-0.705
		c0.252-0.192,0.559-0.339,0.914-0.442c0.357-0.103,0.762-0.154,1.215-0.154h1.219v-0.712c0-0.435-0.107-0.777-0.318-1.025
		c-0.213-0.248-0.541-0.371-0.986-0.367c-0.211,0-0.412,0.021-0.605,0.064c-0.189,0.042-0.371,0.098-0.541,0.164
		s-0.324,0.142-0.467,0.225c-0.139,0.083-0.264,0.164-0.371,0.251l-0.447-0.838c0.084-0.071,0.205-0.156,0.363-0.26
		c0.156-0.102,0.35-0.2,0.574-0.296c0.227-0.096,0.482-0.177,0.766-0.243c0.285-0.066,0.598-0.1,0.941-0.1
		c0.357,0,0.688,0.054,0.984,0.161c0.299,0.108,0.557,0.264,0.77,0.472c0.215,0.208,0.383,0.463,0.502,0.767
		c0.117,0.305,0.178,0.651,0.178,1.039v3.338c0,0.196,0.025,0.372,0.084,0.525c0.055,0.155,0.156,0.289,0.305,0.406L208.796,51.672z
		 M205.937,50.605c0.191,0,0.379-0.031,0.563-0.093c0.182-0.063,0.35-0.146,0.506-0.252c0.152-0.105,0.289-0.227,0.404-0.365
		c0.117-0.138,0.205-0.283,0.268-0.435v-1.28h-1.227c-0.25,0-0.471,0.035-0.664,0.104c-0.195,0.07-0.359,0.166-0.49,0.288
		c-0.133,0.124-0.232,0.267-0.301,0.433c-0.07,0.164-0.105,0.341-0.105,0.529c0,0.321,0.088,0.581,0.262,0.778
		C205.323,50.508,205.589,50.605,205.937,50.605z"/>
</g>
<g class="assinatura">
	<rect x="90.685" y="19.689" fill="#FFFFFF" width="0.92" height="38.559"/>
</g>
<g>
	<g>
		<g>
			<path fill="#FFFFFF" d="M7.402,31.204c0.276,0.244,0.62,0.489,1.03,0.733c0.41,0.245,0.867,0.466,1.373,0.663
				c0.505,0.196,1.051,0.356,1.636,0.479c0.585,0.122,1.192,0.183,1.819,0.183c1.289,0,2.289-0.226,3.002-0.679
				c0.712-0.452,1.07-1.078,1.07-1.875c0-0.479-0.12-0.886-0.359-1.221c-0.239-0.335-0.569-0.636-0.99-0.902
				c-0.421-0.266-0.916-0.508-1.484-0.727c-0.569-0.218-1.184-0.444-1.844-0.678c-1.32-0.479-2.413-0.956-3.28-1.429
				c-0.867-0.474-1.557-0.99-2.068-1.548c-0.51-0.559-0.87-1.187-1.077-1.884c-0.208-0.697-0.312-1.503-0.312-2.419
				c0-0.968,0.196-1.86,0.591-2.673c0.394-0.814,0.947-1.518,1.661-2.108c0.712-0.591,1.561-1.051,2.545-1.38
				c0.985-0.33,2.063-0.495,3.233-0.495c1.14,0,2.14,0.111,3.001,0.334c0.862,0.222,1.607,0.488,2.236,0.794
				c0.627,0.308,1.146,0.623,1.556,0.946c0.41,0.323,0.737,0.585,0.981,0.786l-2.01,3.078c-0.182-0.181-0.456-0.389-0.823-0.623
				c-0.366-0.234-0.796-0.457-1.284-0.67c-0.49-0.213-1.018-0.392-1.581-0.535c-0.564-0.144-1.124-0.215-1.677-0.215
				c-0.574,0-1.08,0.063-1.516,0.191c-0.437,0.128-0.802,0.301-1.094,0.519c-0.293,0.219-0.514,0.477-0.662,0.775
				c-0.15,0.298-0.225,0.618-0.225,0.958c0,0.416,0.093,0.772,0.28,1.07c0.186,0.298,0.468,0.57,0.846,0.815
				c0.377,0.246,0.858,0.484,1.445,0.719c0.584,0.235,1.277,0.496,2.075,0.784c1.192,0.426,2.213,0.871,3.064,1.333
				c0.853,0.464,1.552,0.991,2.1,1.582c0.548,0.591,0.953,1.262,1.214,2.013c0.26,0.752,0.39,1.622,0.39,2.612
				c0,0.895-0.196,1.745-0.591,2.548c-0.393,0.804-0.957,1.509-1.691,2.117c-0.734,0.606-1.628,1.09-2.682,1.445
				c-1.055,0.358-2.242,0.536-3.561,0.536c-1.033,0-1.988-0.094-2.866-0.28s-1.668-0.42-2.37-0.702
				c-0.704-0.283-1.317-0.591-1.843-0.927c-0.528-0.335-0.961-0.652-1.302-0.95L7.402,31.204z"/>
			<path fill="#FFFFFF" d="M39.219,26.75h-8.302v6.179h9.963v3.895H25.953V13.58h14.768v3.895h-9.803v5.38h8.302L39.219,26.75
				L39.219,26.75z"/>
			<path fill="#FFFFFF" d="M55.584,32.098h-6.721l-1.277,4.726h-5.013l7.024-23.243h5.269l7.024,23.243h-5.013L55.584,32.098z
				 M49.916,28.202h4.614l-2.267-8.588h-0.096L49.916,28.202z"/>
			<path fill="#FFFFFF" d="M64.763,36.823V13.58h7.393c1.585,0,2.984,0.268,4.198,0.806c1.214,0.538,2.23,1.288,3.049,2.251
				c0.82,0.963,1.437,2.113,1.853,3.448c0.414,1.336,0.622,2.796,0.622,4.381v1.485c0,1.66-0.221,3.161-0.663,4.502
				c-0.44,1.34-1.08,2.482-1.916,3.424c-0.834,0.942-1.854,1.669-3.057,2.18c-1.203,0.51-2.564,0.766-4.086,0.766H64.763
				L64.763,36.823z M69.728,17.475v15.454h1.776c0.725,0,1.363-0.086,1.912-0.255c0.55-0.172,1.024-0.41,1.425-0.719
				c0.4-0.309,0.733-0.679,1.001-1.108c0.266-0.431,0.479-0.904,0.639-1.42c0.159-0.515,0.272-1.068,0.335-1.658
				c0.065-0.59,0.096-1.199,0.096-1.826v-1.515c0-1.021-0.085-1.956-0.255-2.807c-0.171-0.85-0.465-1.581-0.881-2.193
				c-0.417-0.611-0.97-1.09-1.665-1.436c-0.692-0.345-1.563-0.518-2.607-0.518L69.728,17.475L69.728,17.475z"/>
		</g>
	</g>
	<path fill="#FFFFFF" d="M27.7,5.188c-3.598-2.821-8.394-4.548-13.662-4.556C8.77,0.625,4.222,2.553,0.616,5.364l1.267,1.087
		c3.246-2.619,7.625-4.219,12.443-4.212c4.669,0.008,8.923,1.526,12.128,4.014L27.7,5.188z"/>
	<path fill="#FFFFFF" d="M5.351,9.421c2.346-1.823,5.465-2.935,8.89-2.929c3.317,0.005,6.345,1.056,8.658,2.786l1.282-1.092
		c-2.697-2.055-6.252-3.306-10.148-3.312C10.135,4.868,6.576,6.107,3.874,8.155"/>
	<path fill="#FFFFFF" d="M8.672,12.268c1.479-1.062,3.388-1.699,5.472-1.695c2.023,0.002,3.877,0.608,5.334,1.618l1.335-1.136
		c-1.801-1.297-4.127-2.083-6.666-2.086c-2.602-0.003-4.98,0.81-6.802,2.159L8.672,12.268z"/>
</g>
<g>
	<path fill="#FFFFFF" d="M38.943,42.536v11.921c0,1.021-0.176,1.915-0.527,2.683c-0.351,0.768-0.829,1.411-1.433,1.93
		c-0.605,0.519-1.313,0.908-2.125,1.17c-0.813,0.261-1.68,0.391-2.603,0.391c-0.988,0-1.895-0.137-2.72-0.409
		c-0.825-0.273-1.533-0.673-2.125-1.201c-0.592-0.526-1.054-1.174-1.384-1.941s-0.496-1.642-0.496-2.621V42.536h3.81v11.91
		c0,1.094,0.251,1.899,0.755,2.419c0.503,0.518,1.222,0.777,2.155,0.777c0.941,0,1.656-0.253,2.148-0.759
		c0.491-0.507,0.736-1.316,0.736-2.435V42.536H38.943z"/>
	<path fill="#FFFFFF" d="M52.406,53.085h-6.101v7.288h-3.81V42.536h11.197v2.99h-7.387v4.569h6.101V53.085z"/>
	<path fill="#FFFFFF" d="M66.335,52.644h-6.37v4.74h7.645v2.99H56.156V42.536h11.331v2.99h-7.522v4.129h6.37V52.644z"/>
	<path fill="#FFFFFF" d="M70.856,56.062c0.211,0.188,0.476,0.376,0.79,0.563c0.314,0.188,0.666,0.358,1.054,0.509
		c0.387,0.151,0.807,0.273,1.255,0.367c0.449,0.094,0.915,0.141,1.396,0.141c0.988,0,1.756-0.173,2.304-0.52
		c0.546-0.349,0.82-0.828,0.82-1.44c0-0.368-0.092-0.681-0.275-0.938c-0.184-0.257-0.438-0.487-0.76-0.691
		c-0.323-0.205-0.703-0.39-1.139-0.559c-0.438-0.166-0.909-0.341-1.416-0.521c-1.013-0.367-1.852-0.731-2.518-1.097
		c-0.666-0.362-1.195-0.758-1.586-1.188c-0.392-0.429-0.667-0.911-0.827-1.446c-0.16-0.534-0.239-1.154-0.239-1.856
		c0-0.742,0.15-1.426,0.453-2.052c0.303-0.624,0.727-1.163,1.274-1.617c0.547-0.452,1.198-0.806,1.953-1.06
		c0.756-0.252,1.583-0.379,2.481-0.379c0.874,0,1.642,0.086,2.303,0.256c0.661,0.171,1.232,0.374,1.715,0.611
		c0.482,0.234,0.88,0.477,1.195,0.726c0.313,0.248,0.565,0.449,0.753,0.604l-1.543,2.361c-0.139-0.138-0.35-0.298-0.631-0.478
		c-0.282-0.181-0.61-0.352-0.986-0.515c-0.375-0.162-0.78-0.301-1.212-0.41c-0.434-0.11-0.862-0.164-1.286-0.164
		c-0.441,0-0.829,0.049-1.164,0.147c-0.335,0.097-0.615,0.23-0.839,0.397c-0.225,0.168-0.394,0.365-0.508,0.594
		c-0.114,0.229-0.172,0.476-0.172,0.737c0,0.317,0.071,0.591,0.214,0.821c0.143,0.228,0.36,0.437,0.65,0.625
		c0.289,0.188,0.659,0.372,1.107,0.551c0.45,0.181,0.98,0.381,1.593,0.602c0.915,0.327,1.699,0.668,2.352,1.024
		c0.654,0.356,1.19,0.76,1.611,1.213c0.421,0.454,0.731,0.97,0.931,1.545c0.2,0.578,0.301,1.246,0.301,2.006
		c0,0.687-0.152,1.339-0.453,1.954c-0.303,0.617-0.735,1.159-1.3,1.626c-0.563,0.465-1.249,0.835-2.058,1.108
		c-0.809,0.274-1.719,0.41-2.732,0.41c-0.792,0-1.526-0.07-2.199-0.214c-0.673-0.142-1.28-0.322-1.82-0.538
		c-0.539-0.215-1.01-0.454-1.415-0.71c-0.404-0.258-0.737-0.501-0.999-0.73L70.856,56.062z"/>
</g>
</svg>
