<?xml version="1.0" encoding="utf-8"?>
<!-- Generator: Adobe Illustrator 16.0.3, SVG Export Plug-In . SVG Version: 6.00 Build 0)  -->
<!DOCTYPE svg PUBLIC "-//W3C//DTD SVG 1.1//EN" "http://www.w3.org/Graphics/SVG/1.1/DTD/svg11.dtd">
<svg version="1.1" id="Camada_1" xmlns="http://www.w3.org/2000/svg" xmlns:xlink="http://www.w3.org/1999/xlink" x="0px" y="0px"
	 width="18.438px" height="18.406px" viewBox="0 0 18.438 18.406" enable-background="new 0 0 18.438 18.406" xml:space="preserve">
<path fill="#FFFFFF" d="M17.974,15.784l-3.505-3.505c-0.158-0.158-0.373-0.246-0.598-0.246h-0.573
	c0.971-1.241,1.547-2.803,1.547-4.501c0-4.04-3.273-7.313-7.313-7.313S0.219,3.492,0.219,7.532c0,4.04,3.273,7.313,7.313,7.313
	c1.698,0,3.259-0.577,4.5-1.547v0.573c0,0.225,0.088,0.439,0.246,0.598l3.505,3.505c0.331,0.33,0.865,0.33,1.192,0l0.995-0.995
	C18.301,16.649,18.301,16.114,17.974,15.784z M7.532,12.033c-2.486,0-4.5-2.012-4.5-4.501c0-2.485,2.011-4.5,4.5-4.5
	c2.486,0,4.5,2.011,4.5,4.5C12.032,10.018,10.021,12.033,7.532,12.033z"/>
</svg>
