<?xml version="1.0" encoding="utf-8"?>
<!-- Generator: Adobe Illustrator 16.0.3, SVG Export Plug-In . SVG Version: 6.00 Build 0)  -->
<!DOCTYPE svg PUBLIC "-//W3C//DTD SVG 1.1//EN" "http://www.w3.org/Graphics/SVG/1.1/DTD/svg11.dtd">
<svg version="1.1" id="Sead-Icone" xmlns="http://www.w3.org/2000/svg" xmlns:xlink="http://www.w3.org/1999/xlink" x="0px" y="0px"
	 width="128px" height="128px" viewBox="0 0 128 128" enable-background="new 0 0 128 128" xml:space="preserve">
<rect fill="#0D64AC" width="128" height="128"/>
<g>
	<path fill="#FFFFFF" d="M46.481,95.918c0.718,0.636,1.607,1.271,2.67,1.905c1.063,0.634,2.249,1.208,3.561,1.718
		c1.309,0.511,2.725,0.926,4.242,1.242c1.518,0.316,3.091,0.475,4.72,0.475c3.34,0,5.935-0.585,7.782-1.758
		c1.849-1.172,2.774-2.794,2.774-4.865c0-1.24-0.31-2.297-0.932-3.165c-0.622-0.87-1.476-1.65-2.565-2.34
		c-1.092-0.69-2.375-1.317-3.85-1.885c-1.478-0.564-3.072-1.151-4.782-1.758c-3.423-1.243-6.258-2.479-8.508-3.705
		c-2.25-1.229-4.036-2.567-5.361-4.017c-1.325-1.448-2.255-3.076-2.794-4.885c-0.537-1.807-0.806-3.897-0.806-6.271
		c0-2.511,0.509-4.823,1.531-6.935c1.021-2.111,2.457-3.934,4.305-5.464c1.849-1.532,4.05-2.725,6.603-3.582
		c2.553-0.854,5.347-1.283,8.383-1.283c2.953,0,5.547,0.29,7.783,0.867c2.234,0.577,4.168,1.265,5.795,2.062
		c1.629,0.797,2.974,1.613,4.036,2.453c1.063,0.838,1.911,1.518,2.546,2.041l-5.215,7.979c-0.471-0.469-1.18-1.009-2.132-1.615
		c-0.954-0.606-2.063-1.186-3.333-1.739c-1.271-0.552-2.636-1.015-4.098-1.387c-1.464-0.373-2.913-0.559-4.349-0.559
		c-1.489,0-2.8,0.167-3.931,0.499c-1.133,0.331-2.077,0.779-2.837,1.345c-0.76,0.567-1.332,1.236-1.719,2.01
		c-0.386,0.774-0.579,1.602-0.579,2.485c0,1.08,0.242,2.004,0.725,2.777c0.482,0.772,1.214,1.478,2.193,2.113
		c0.979,0.636,2.229,1.256,3.747,1.863c1.519,0.609,3.312,1.284,5.38,2.03c3.092,1.107,5.741,2.259,7.949,3.459
		c2.208,1.202,4.022,2.57,5.445,4.103c1.42,1.533,2.469,3.272,3.146,5.22c0.676,1.948,1.014,4.206,1.014,6.775
		c0,2.318-0.51,4.521-1.532,6.607c-1.021,2.084-2.484,3.915-4.387,5.489c-1.904,1.574-4.224,2.825-6.955,3.749
		s-5.811,1.389-9.232,1.389c-2.678,0-5.154-0.242-7.431-0.725c-2.277-0.482-4.327-1.09-6.147-1.821
		c-1.823-0.73-3.416-1.531-4.781-2.401c-1.367-0.87-2.492-1.689-3.375-2.464L46.481,95.918z"/>
	<path fill="#FFFFFF" d="M99.117,28.456c-9.33-7.316-21.766-11.793-35.427-11.815c-13.661-0.016-25.455,4.983-34.806,12.272
		l3.287,2.818c8.417-6.789,19.772-10.943,32.263-10.924c12.109,0.021,23.142,3.958,31.453,10.408L99.117,28.456z"/>
	<path fill="#FFFFFF" d="M41.161,39.432c6.085-4.729,14.175-7.609,23.055-7.594c8.598,0.013,16.449,2.738,22.449,7.224l3.324-2.833
		c-6.994-5.329-16.21-8.572-26.313-8.587c-10.107-0.016-19.334,3.2-26.344,8.51"/>
	<path fill="#FFFFFF" d="M49.774,46.814c3.836-2.753,8.787-4.406,14.189-4.396c5.243,0.006,10.054,1.578,13.833,4.197l3.459-2.945
		c-4.67-3.364-10.698-5.399-17.284-5.409c-6.747-0.01-12.915,2.1-17.639,5.598L49.774,46.814z"/>
</g>
</svg>
